<svg id="Layer_1" data-name="Layer 1" xmlns="http://www.w3.org/2000/svg" viewBox="0 0 1920 1080"><defs><style>.cls-1{fill:#f1f1f1;}.cls-2{opacity:0.4;}.cls-3{fill:#999;}</style></defs><rect class="cls-1" width="1920" height="1080"/><g class="cls-2"><path class="cls-3" d="M2.53,775.59h0a.29.29,0,0,0,.26-.29l.79-5.77s0-.07,0-.11,0-.07,0-.1L2.81,767c-.06-.17-.22-.26-.35-.17a.41.41,0,0,0-.12.47l.75,2.23-.77,5.67A.36.36,0,0,0,2.53,775.59Z"/><path class="cls-3" d="M897.21,898.54h0a.32.32,0,0,1,0-.09l0,0,0-.08a.21.21,0,0,0-.12-.07s0,0,0,0L882.1,896.5H882s0,0-.06,0a.23.23,0,0,0-.1.07.23.23,0,0,0,0,.1.25.25,0,0,0,0,.11V897l3.27,60.5s0,.08,0,.12,0,.07,0,.1a.19.19,0,0,0,.12.07.09.09,0,0,0,0,0l14.59.61.47,0h0s0,0,.07,0l.1-.07a.45.45,0,0,0,0-.11.28.28,0,0,0,0-.12v0ZM885.52,957.1l-3.22-59.77L896.23,899l3.35,58.75Z"/><path class="cls-3" d="M912.84,900.26s0-.09-.05-.12-.06,0-.08-.07-.05,0-.07,0l-14.36-1.66h0s0,0,0,0a.16.16,0,0,0-.12.08s0,0,0,.06a.29.29,0,0,0,0,.14v.17l3.41,59.3a.4.4,0,0,0,0,.13s0,.07,0,.1a.47.47,0,0,0,.12.07s0,0,0,0l14,.58.48,0h0s.05,0,.07-.06.07,0,.09-.06,0-.08,0-.11a.54.54,0,0,0,0-.11s0,0,0,0v0l-3.53-58.36A.24.24,0,0,0,912.84,900.26ZM901.91,957.8l-3.36-58.58,13.35,1.54,3.48,57.59Z"/><path class="cls-3" d="M872.74,816.54a.36.36,0,0,0,0,.11l.09.07s0,0,.06,0l9.83,2.08.47.09h0l.05,0a.28.28,0,0,0,.11-.08s0-.06,0-.09,0,0,0-.1v-.08l-3.12-56.75v0s0,0,0-.06,0-.07,0-.1l0,0s0,0-.06,0l0,0L870,758.65h0s0,0,0,0,0,0-.07,0l-.08.06-.06.1s0,0,0,.08,0,0,0,.05a.43.43,0,0,0,0,0v.26l3,57.16S872.73,816.5,872.74,816.54Zm6.71-54.27,3.07,55.81-9.3-2-3-56.43Z"/><path class="cls-3" d="M884.37,819l0,.11s.06,0,.1.07l0,.05,9.55,2,.46.1h.07s0,0,0,0a.42.42,0,0,0,.12-.08.47.47,0,0,1,0-.09s0,0,0-.09a.43.43,0,0,0,0,0s0,0,0,0l-3.22-56v0s0,0,0,0l0-.06,0-.09-.05-.07,0,0s0,0,0,0l-9.93-2.78h0s0,0,0,0,0,0-.06,0a.16.16,0,0,0-.09.06l0,.1s0,0,0,.08a.43.43,0,0,1,0,.05s0,0,0,0v.25l3.13,56.4S884.36,819,884.37,819Zm6.32-53.58,3.16,55.06-9-1.91-3.09-55.65Z"/><path class="cls-3" d="M980.19,999.16l229.06-1.56h0l46.08-.61a.34.34,0,0,0,.25-.37.47.47,0,0,0-.06-.21.48.48,0,0,0,.06-.22c0-.19-.11-.35-.25-.35l-5.11-.15-.07-.49s0-.06,0-.09v0s0-.06,0-.08h0a.14.14,0,0,0-.09,0l0,0,0,0-28.35-.47h0L1157.8,994l-9.57,0-.69-6.35a.15.15,0,0,0,0-.07.22.22,0,0,0,0-.12s0,0-.08-.06,0,0-.07,0l-6.92-.85h0l-41.49-.38-34.13-.13-.46-5s0,0,0-.09a.22.22,0,0,0,0-.11.24.24,0,0,0-.08-.06s0,0-.07-.05l-9.84-.85h0l-28.69-.6-23.65-.83-1,0-.13-1.62a.35.35,0,0,0-.09-.24h0l-.79-.84s0,0-.07,0,0-.05-.07-.05l-21.62-1.78h0l-19.4-.85h0l-21.66-.53-.27-4.31L929.3,852l18-3h0s0,0,0,0,.08-.05.1-.09h0s0,0,0-.07a1,1,0,0,0,0-.1.43.43,0,0,1,0-.05.1.1,0,0,0,0,0l-.76-11a.32.32,0,0,0,0-.09.49.49,0,0,0,0-.11.17.17,0,0,0-.1-.07l0,0-18.4-3.75-.23-3.59s0,0,0-.08a.83.83,0,0,0,0-.12.28.28,0,0,0-.09-.07s0,0-.06,0l-1.73-.36-3.72-58,1.62-.43s0,0,0,0a.31.31,0,0,0,.09-.07l0,0,0-.06s0,0,0-.07,0,0,0-.06,0,0,0,0l-1.58-24.62,17.4-5.08s0,0,0,0l.09-.07,0,0a.2.2,0,0,0,0-.07l0,0s0,0,0-.07a.08.08,0,0,0,0,0l-1.8-26.28a.15.15,0,0,0,0-.07.42.42,0,0,0,0-.12.2.2,0,0,0-.08-.08s0,0,0,0L788.56,659.4h0l0,0s0,0,0,0h0L677.33,711.33l-23-6.29L768.7,648s0,0,0,0a.1.1,0,0,0,0,0,.25.25,0,0,0,0-.07.15.15,0,0,0,0-.07l0,0a.43.43,0,0,0,0,0s0,0,0-.06l-.08-2.77-.53-16.57-.08-2.75a.15.15,0,0,0,0-.07.29.29,0,0,0,0-.11.18.18,0,0,0-.08-.09s0,0,0,0L389.57,476.78,681.84,0h-.67L389,476.57l-13.35-5.24L643.67,0H643L375.22,471,288,437,453.6,0H453L287.46,436.82l-5.69-2.21L435,0h-.58L281.26,434.41l-49-19.07L347.68,0h-.56L231.76,415.14l-12.22-4.75L320.22,0h-.55L219,410.19l-22.63-8.8L268.21,0h-.53L195.91,401.19,177.44,394,228.35,0h-.52L176.94,393.81,2.37,325.88v.74l174.48,67.89-.76,5.86-173.72-65v.73l173.63,65-3.4,26.32L2.37,367.9v.73l170.14,59.46-.82,6.31L2.37,378v.73L171.6,435.1,124.2,801.93l0,.17v.08a.17.17,0,0,0,0,.07l0,.26.26.07.24.12,0-.09L248,817.42l-1,1h0l-9.74,10-17.73,18.18-112.8-11s0,0-.07,0a.11.11,0,0,0-.09,0h0a.22.22,0,0,0,0,.11.16.16,0,0,0,0,.08l-3.64,20.17h-.13l-.45,0-.15,0H102l-1.78-.15h0L63.6,852.75h-.05l-1.88-.16L31.06,850l-.13,0-.3-.86-6.79-20.06-.47-1.39L10.76,790.45,10,788.3l0,0s0,0,0,0a.2.2,0,0,0-.07-.06s0-.06-.07-.06l0,0h0l-7.22-.88c-.14,0-.27.13-.29.33a.35.35,0,0,0,.24.38l6.94.84L2.32,841.86a.36.36,0,0,0,.21.41h0a.3.3,0,0,0,.26-.3L9.9,789.61l.35,1L7.17,813.51l-4.85,36a.34.34,0,0,0,.21.4h0a.29.29,0,0,0,.26-.29l4.72-35,4.89,12.23L2.32,902.79a.35.35,0,0,0,.21.41h0a.29.29,0,0,0,.26-.29l10.1-75.75,9.89,1L2.32,984.65a.34.34,0,0,0,.21.4h0a.29.29,0,0,0,.26-.29L23.24,829l.09.28L20.9,847.85,8.32,943.93l-3.66,28L3.3,982.3l-1,7.54a.34.34,0,0,0,.21.4h0a.29.29,0,0,0,.26-.29l.95-7.25,85.71.47-1.06,9.42-85.86.07c-.14,0-.26.16-.26.35h0c0,.2.12.36.26.36l85.9-.07-1.08,9.58-84.82.61c-.14,0-.26.16-.26.36,0,0,0,0,0,.08a.15.15,0,0,0,0,.07c0,.2.12.36.26.36h0l84.86-.62-1.11,9.75-83.75,1.16c-.14,0-.26.16-.26.36a.39.39,0,0,0,0,.14.44.44,0,0,0,0,.15c0,.2.12.35.26.35h0l83.78-1.17-1.13,9.94-82.65,1.7c-.15,0-.26.16-.26.36s.12.35.26.35h0l82.87-1.7,84-1.73-.4,4.14s0,.07,0,.11a.5.5,0,0,0,0,.13l.08.08s0,.06.06.07l6,2.4h.08l54.5-1.38,6.54,1.61L2.57,1036.86c-.15,0-.26.17-.26.37a.31.31,0,0,0,.26.34h0l236.09-6.34-.48,6-138.7,4.36-96.91-2.86a.33.33,0,0,0-.27.35.33.33,0,0,0,.26.36l96.77,2.85,1.35,3.25,16.86,40.6a.26.26,0,0,0,.23.18.24.24,0,0,0,.13,0,.43.43,0,0,0,.09-.48l-16.65-40.09,348-11.69,55.73-1.87,575.59,54.17h0c.13,0,.25-.14.26-.33a.34.34,0,0,0-.24-.37l-575.36-54.15.05-1.92.79,0c.15,0,.26-.17.26-.36s-.12-.34-.26-.34h0l-1,0-55.7,1.75-210.71,6.62.51-6.27.38-4.67,33.24-.78L506.41,1020c.15,0,.26-.16.26-.35s-.12-.35-.26-.35h0l-.77,0v-.17l.23-9.29v-.34l.24-9.07v-.17l.23-8.88.13-5,33.64-.44h0l3.29,0,43.47-.57-.11,12.35h0a.25.25,0,0,0,0,.11.19.19,0,0,0,0,.07s0,0,0,.06h0a.13.13,0,0,0,.09.06h0s0,0,.07,0l216.5,2.58.66,17.92a.37.37,0,0,0,0,.14.47.47,0,0,0,0,.09h0a.26.26,0,0,0,.11.07l.06,0,232.89,8.62,2,24.06s0,.08,0,.12a.41.41,0,0,1,0,.08v0a.2.2,0,0,0,.12.06l.05,0,215.68,13.43h0a.3.3,0,0,0,.26-.33c0-.2-.1-.36-.24-.37l-209.43-13,107.58-5.44,101.84-1.57c.13,0,.26-.16.25-.36s-.12-.35-.26-.35h0l-101.85,1.57h0l-113.59,5.74-2-23.65,113.24-3.39,104.22-.95a.32.32,0,0,0,.26-.36c0-.2-.12-.35-.26-.35h0l-104.24,1h0l-113.5,3.4-224.44-8.32,61.52-2.73,106.64-1.36h0l134-2.52,95.45-2.33h0l44.63-1.88c.14,0,.26-.17.25-.36s-.11-.37-.27-.34l-44.62,1.88-95.45,2.32-133.94,2.53L874.64,1015h0l-69.93,3.12-.65-17.54,69.76-1ZM12.87,826.45,7.7,813.51l2.93-21.75,12.08,35.65Zm436.8,204.8,55.19-1.74-.05,1.89-55.21,1.85Zm800-35.63v.06l-.68,0ZM936.56,972.39l-2.06,0-.13-1.85a.24.24,0,0,0,0-.09.42.42,0,0,0,0-.12.2.2,0,0,0-.09-.07l-.05-.05-6.2-1.22h0l-11.18-.68-14.45-.78h0l-17.63-.6-10.28-.3v0l61.92,1.9Zm-429.43-5.31h0l-17.94,1,0-.76h0a.29.29,0,0,0,0-.11c0-.05,0-.1,0-.13s-.06,0-.08-.05-.06-.07-.1-.07h0l-4.69-.09.19-6.21,12.39.21h0l14.59.24h0l12.29.2h0l6.44.11h0l48,.47h0l29,.16,16.74.08,10.08.06,4.71,0,27.89.16,3.12,0,12.94.1h2.9l10,.07h2l3.94,0,2.92,0,3.34,0,13.84.1,29.44.22,11.59.31,4.24.12h0l4.11.11,9.56.26,3.77.1,3.49.1,3.47.09,14.94.4,13.09.51,2,.09,3.84.14.55,0,16.33,1.07h0l32,.94,10.53.32,17.63.6,14.44.78,11.18.67,6,1.18.1,1.51-5.87-.15-16.4-.53h0l-7.08-.68h0l-22.44-1.19h0l-39.88-.95h0L794.11,968h0l-70.26-.39-72.45-.15h0l-74.81.21-37.74-.12-17.54-.14-11-.28h0Zm2.84.76-.22,8.68-2.61.09.23-8.83Zm-321.91,48.55.89-9.8,6.69.89-.94,10.43Zm4,1.63-15.67.28-3.67-1,15-.25Zm1.67-11.52,11.89-.11h.16l2.51.28-12.34.13Zm12.35-.79.84-9.62,7.74.25-.89,10.25Zm.74-10.34,5.25-59.55,16.64-7-5.29,62.46-.34,4.05Zm17.1-3.7h8.7l-.32,3.92-8.69-.24Zm.06-.7,5.27-62.28,8.55.36-2.73,33.07L232.67,991Zm14.37-62.22,2.2-26.56,9-5-5.08,62.87-8.8,1.65ZM132.14,771.37l3.29-13.6,1.08.16-3.76,13.53Zm.42.77L127.89,789l4.08-16.9ZM520,651.84l-10.81-3.11.44-16.6.21-7.8s0-.06,0-.1,0-.07,0-.1h0a.18.18,0,0,0-.08-.09l-.08,0,0,0s0,0-.06,0-.06,0-.08,0l-21.75,18.54-18.79-5.41,52.62-47.85ZM522,589.07l6.22,2.13-1.43,62.61L520.47,652ZM494.1,644.41l-5.72-1.65L509.25,625l-.18,6.95ZM509,632.76l-.42,15.82-13.78-4Zm-21.4,10.52,6.45,1.85,14.72,4.23,11.34,3.26,6.84,2,3.64,1v.49l-13.08-3.75-.32-.09h0l-34.52-9.89-.35-.11h0l-36.61-10.49-.39-.1h0l-38.89-11.14-.41-.11-41.42-11.87h0l-.44-.12h0L320,595.78l-.46-.13-47.24-13.53h0l-.5-.14h0L237.09,572l.06-.76,69.93,20.1,1.28.36,8.11,2.34,1.43.4,150.25,43.19Zm67.84,47.89s0,.05,0,.07v0l0,0s0,0,0,.05a.18.18,0,0,0,.09.06s0,0,0,0l5.26,1.38H561a.19.19,0,0,0,.1,0l23.18-14.37,27.08,7.6v3.24l-3,1.71s0,0,0,0a.36.36,0,0,0-.07.1.49.49,0,0,0,0,.11s0,0,0,.07l-.1,23.81v.6l-.1,22.78-78.21-18.08.36-16.48,0-1.22a.29.29,0,0,0,0-.1.5.5,0,0,0,0-.13l-.09-.07s0,0-.06-.06l-.19-.05.17-7.68.27-.18s0,0,0,0,0,0,0,0,0,0,0-.07v0s0,0,0-.07a.06.06,0,0,0,0,0s0,0,0,0,0,0,0,0l0-1.22a.16.16,0,0,0,0-.1.42.42,0,0,0,0-.12s0-.05-.08-.07a.16.16,0,0,0-.07-.07l-.18,0,.22-9.95v-.66l.34-15.21.27-.2,0,0,0,0a.25.25,0,0,0,0-.07s0,0,0,0,0,0,0-.07h0s0,0,0,0v0l0-1.21s0-.06,0-.1a.53.53,0,0,0,0-.12s0,0-.08-.08,0,0-.07-.05l-.18,0,0-1.24,25.22,7.08-.34,20.66S555.48,691.14,555.48,691.17Zm74.93-6.68,3,.88V692l0,17-9-2.38,0-23.76.25.07ZM625,682.23l.06-57.92,5.09,1.74,0,57.67Zm8.55,120.16-9.24-1.63,0-30.49,9.16,1.89v11Zm0,35.79v5.21l0,13.08v10.42l-9.36-1.09,0-31.39,9.3,1.36v1.11h0Zm.12,114.71v8.59l-9.56-.05,0-27.35,9.51.51,0,16.1v2.2Zm-9.52-20.2,0-32.31,9.44.81,0,32Zm0-33.68,0-31.84,9.36,1.08,0,31.57Zm.07-66,0-30.93,9.24,1.63,0,30.66Zm.07-64.13,0-30.06,9.1,2.14v12.84l0,17Zm0-31.4,0-29.64,9,2.38,0,29.41Zm.1-55.44-.24-.07h0l0,0s0,0,0,0h-.06l-12.26,7,0-3.24L612,661l0-5.19s0-.05,0-.07,0-.06,0-.08l0,0a.18.18,0,0,0-.07-.08.16.16,0,0,0-.09,0s0,0,0,0h0s0,0-.05,0,0,0-.06,0l-55.61,35,.33-20.17,68.23-46Zm-140,277.67h0s0-.08,0-.11,0-.11,0-.14-.05,0-.07,0-.06-.06-.1-.06h0l-21.07-.56.41-11.78,13.2.48.42,0h0l.93,0h0l18.81.68-.33,11.9-12.13-.2v-.21Zm-.49,7.82h0l4.69.09,0,.78h0l-.19,6.23-25.85-.35.25-7.18Zm-21.09-1.13.24-6.91,20.81.55v.21l-.2,6.57Zm6.18-177.36a.23.23,0,0,0,0-.11l20.51,3.38L489,810l-20.56-3.07.62-17.78Zm-53.22,70.83,1.84-.72-.12,2.52-7.05,2.7.12-2.46,1-.4Zm-4,.82,0-.26,1.91-.75.54,0Zm3.35-1.57,1.35-.54.56.06-1.36.53Zm2.58,9.39,0-.63h0v-.19h0v-.26l0-.56.15-3.28,0-.46h0V863h0l0-.39h0l0-.58.15-3.27h0v-.29h0v-.19h0v0l0-.52.65-14.31,1.4-.61-5.16,114.8-1.42,0,.57-12.61.14-3.09.08-1.55h0v-.08l.15-3.26.07-1.55v-.09l.15-3.25.07-1.54h0v-.09l.15-3.26.07-1.53h0v-.09h0l.15-3.26.07-1.51v-.11l.15-3.24.07-1.5h0v-.12l.15-3.24.07-1.49h0V911h0l.15-3.23.07-1.48v-.14l.15-3.21.07-1.48h0v-.14l.15-3.21.06-1.46h0v-.15l.15-3.21h0l0-1.16,0-.45.15-3.31h0l.05-1.18,0-.48.15-3.29.06-1.15h0l0-.49.15-3.3,0-1h0v-.16h0l0-.51h0l.15-3.29,0-.81h0v-.3l0-.54.14-3.28ZM425,854.78l0,1v.05l-.15,3.34,0,.58h0l0,.74v.35l-.15,3.34,0,.57,0,.46,0,.65-.15,3.35,0,.54V870l0,.94-.15,3.37,0,.52-.06,1.16L424,879.3l0,.5-.06,1.18-.14,3.38,0,.48-.06,1.21-.15,3.38,0,.46-.09,2.26v.16h0l-.07,1.44-.13,3.19h0v.13h0l-.07,1.45-.13,3.19v.15l-.06,1.45-.14,3.21h0v.14l-.06,1.46-.15,3.22h0v.12l-.06,1.49-.15,3.21v.12l-.07,1.49-.14,3.23h0v.1h0l-.07,1.5-.14,3.23h0v.1h0l-.07,1.51-.14,3.24v.09l-.06,1.53-.15,3.24v.09h0l-.07,1.54-.14,3.25h0s0,0,0,0,0,0,0,0l-.07,1.54-.14,3.07-.54,12.57-4.84-.13,5.17-114.92,4.68.54Zm.51.29.48-.19.61.07-1.1.43Zm-.22,5,1.09-.41.69.08-1.37.52-.41,0Zm-.45,10.29.24,0-.24.08Zm-.2,4.75.94.08-1,.33Zm-.22,5,.66-.22,1.09.1-1.77.57Zm-.22,5,1.4-.43,1.21.11-2.63.8Zm-.34,7.57H424l0,.73h-.12Zm-.08,4.78,0,.74h-.13l0-.74Zm-.21,4.79,0,.75h-.13l0-.75Zm-.33,4.79h.12l0,.76h-.13Zm-.21,4.8h.12l0,.78H423Zm-.21,4.82H423l0,.78h-.13Zm-.22,4.83h.13l0,.79h-.13Zm-.21,4.83h.13l0,.81h-.13Zm-.21,4.85h.13l0,.81h-.13Zm-.21,4.86h.13l0,.83H422Zm-.22,4.86h.13l0,.84h-.13Zm-5.9-76.23,1.58-.6-.11,2.52-7.06,2.6.12-2.46,1-.38Zm-4.25.87,0-.29,2-.78.61.06Zm3.52-1.63,1.43-.55.63.07-1.43.54Zm2.13,4.3v0l-1.45.53-.71-.07,1.5-.54Zm-3,1.11-2.89,1,0-.32,2.17-.8Zm1.64.14h0l1.31-.48-.11,2.54L410.06,874l.11-2.47,1-.36Zm1.13,3.51v.19l-1.14.4-.8-.08,1.58-.55Zm-2.76,1.15-3.12,1.09,0-.34,2.31-.82Zm1.7.13,1-.35-.12,2.55-7.06,2.39.12-2.47,1-.36Zm.84,3.48v.36l-.82.28-.9-.08,1.67-.56Zm-2.51,1.2-3.38,1.13,0-.38,2.48-.83Zm1.77.14.69-.24-.11,2.56-7.07,2.3.12-2.49,1-.33Zm.52,3.55,0,.42-.46.15-1-.09Zm-2.23,1.13-3.66,1.17v-.4l2.65-.85Zm1.84.14.34-.12-.12,2.57-7.06,2.19.11-2.49,1-.32Zm.17,3.66,0,.45h-.07l-1.14-.09Zm-1.93,1-4,1.22,0-.43,2.84-.87Zm1.88.16-.12,2.57-7.07,2.09.12-2.5,1-.31ZM410,900.48l.12-2.53,5.79.42-.11,2.51Zm5.76,1.25,0,.76-5.79-.4,0-.77Zm-5.61-4.49,0-.76,5.79.44,0,.74Zm.08-1.62.06-1.38,3.05-.9,2.79.21-.12,2.5Zm5-2.85.93-.26,0,.34Zm-5.36,10,5.8.41-.11,2.52-5.81-.39Zm5.65,3.76,0,.78-5.8-.38,0-.78Zm-.07,1.49-.11,2.51-5.81-.36.12-2.54Zm-.15,3.35,0,.78-5.81-.35,0-.79Zm-.07,1.49-.11,2.52-5.82-.34.12-2.54Zm-.15,3.36,0,.79-5.82-.34,0-.8Zm-.07,1.5-.11,2.53-5.83-.32.12-2.55Zm-.15,3.35,0,.81-5.82-.32,0-.81Zm-.07,1.51-.11,2.54-5.84-.3.12-2.55Zm-.15,3.35,0,.82-5.83-.29,0-.82Zm-.07,1.53-.12,2.55-5.83-.28.11-2.57Zm-.15,3.35,0,.83-5.84-.28,0-.83Zm-.07,1.54-.12,2.55-5.85-.26.12-2.57Zm-.15,3.35,0,.84-5.85-.25,0-.85Zm-.07,1.54-.12,2.56-5.86-.23.12-2.58Zm-.15,3.35,0,.85-5.86-.23,0-.85Zm-.07,1.56-.11,2.38-5.87-.22.11-2.39Zm-.14,3.08-.56,12.28-14-.38.6-12.4,7.87.28Zm-2.47-84.31-1,.4,0,0a.19.19,0,0,0-.09.09.42.42,0,0,0,0,.12s0,0,0,.07l-.15,3.19h0s0,0,0,.06,0,0,0,.06,0,0,0,.08,0,.05,0,.06,0,0,0,0a.35.35,0,0,0,.13.08l0,0,.9.09,0,.44-1,.37a.28.28,0,0,0-.17.17h0a.57.57,0,0,0,0,.15l-.15,3.2h0s0,0,0,.06,0,0,0,.06a.43.43,0,0,0,0,.07s0,0,0,.07h0a.23.23,0,0,0,.12.1l0,0,.9.08,0,.46-1,.37s0,0,0,0a.29.29,0,0,0-.09.1.49.49,0,0,0,0,.11.15.15,0,0,1,0,.07l-.15,3.21h0s0,0,0,0,0,0,0,.06a.29.29,0,0,0,0,.08s0,.05,0,.06l0,0a.26.26,0,0,0,.13.08l0,0,.9.08,0,.49-1,.34s0,0,0,0a.2.2,0,0,0-.08.08.34.34,0,0,0,0,.12s0,0,0,.07l-.15,3.22h0s0,0,0,.05,0,0,0,.06a.35.35,0,0,0,0,.08l0,.08a.2.2,0,0,0,.13.08l0,0,.91.08,0,.51-1,.33a.24.24,0,0,0-.17.16h0a.62.62,0,0,0,0,.16l-.15,3.22h0s0,0,0,.05,0,0,0,.06,0,0,0,.08l0,.08a.25.25,0,0,0,.12.08l0,0,.9.08,0,.52-1,.32-.05,0s-.06,0-.09.09a.36.36,0,0,0,0,.11s0,.06,0,.08l-.16,3.23h0s0,0,0,0,0,0,0,.05a1,1,0,0,0,0,.1,30906320560,30906320560,0,0,0,0,.06h0a.22.22,0,0,0,.12.09l0,0,.9.07,0,.54-1,.31s0,0,0,0-.06,0-.08.08a.59.59,0,0,0-.05.13s0,0,0,.07l-.15,3.24h0s0,0,0,0,0,0,0,.05l0,.09s0,.05,0,.07h0s.08.06.12.08,0,0,0,0l.91.06-.08,1.66h0v.15h0l-.07,1.47h0l-.15,3.22h0v.14h0l-.07,1.47h0l-.15,3.23h0v.13h0l-.07,1.48h0l-.15,3.24h0v.12h0l-.06,1.5h0l-.16,3.24h0v.13h0L408.7,917h0l-.16,3.26h0v.1h0l-.07,1.52h0l-.15,3.24h0v0h0v.09h0l-.07,1.52h0l-.15,3.25v0h0v.08h0l-.07,1.54h0l-.15,3.26h0v.09h0l-.07,1.54h0l-.15,3.27h0s0,0,0,0h0s0,0,0,0h0l-.07,1.54v0h0l-.13,2.74-7.6-.28,4.08-84.27,7.43.76Zm-7.91-1.58h0l-4.11,85h0l-.62,12.78-5.85-.16.23-4.64h0l8.73-175.48,5.57.92-1,20.2-1,20.7h0ZM392.55,952l-2.63-.08.34-6.8h0v0a.28.28,0,0,0,0-.12.53.53,0,0,0,0-.12s-.06,0-.1-.06,0,0-.07-.06h0l-2.82-.1.34-6.61h0a.28.28,0,0,0,0-.13.35.35,0,0,0,0-.12s-.06,0-.09-.07-.05,0-.08,0h0l-2.75-.11.33-6.44h0l3.79-73.2h0L390.24,827l1-19.76,1.26-24.38,8.73-5.82Zm-12.5-79.56L377,930.34l-10.09-.47,3.24-58.36Zm-9.89-1.6,1.89-34,17.64-9.32-1.54,30-2.49-.26h0l0,0h0l-4.64,2s0,0,0,0a.26.26,0,0,0-.09.09s0,.07,0,.12,0,0,0,.06l-.65,12.16Zm10.43,1.3.66-12.27,4.1-1.79-3.79,72.5-4.07-.19Zm5.29-14.18,2.23.23-3.75,72.52-2.28-.1Zm3.85-31.2-17.64,9.33,1-17.88,17.63-10.41Zm-17.16-8.82-1,18.65-1.92,34.56-3.26,58.73-47.25-2.17.35-5.36,30,1.52h0a.24.24,0,0,0,.18-.1s0-.07,0-.11,0-.07,0-.12h0l5-85.08h0s0-.06,0-.09a.85.85,0,0,0,0-.17l-.08,0s-.06-.07-.1-.07L325,834.68h0l-37.47-4.27,3.15-42.67,82.95,12ZM319.51,921.62l5.66-86.21,29,3.3-5,84.41Zm5.14-86.27L319,921.93l-.37,5.73-1,0,6-90.78h0s0-.06,0-.09a.27.27,0,0,0,0-.09l0,0a.07.07,0,0,0,0,0s0,0-.06-.05l-.08,0,0,0h0l-36-4,.1-1.28Zm-7.79,92.23-29.54-1.36L294,834l28.83,3.24ZM293.47,834l-6.68,92.24-6.37-.29,2-27.07,4.49-60.69.36-4.89Zm-6.45,93,30.07,1.39h.18l1.55.07,47.77,2.2,10.61.49,4.59.21,2.53.11-.31,6.11-104.13-4.26.49-6.62Zm97.22,11.29,2.75.12-.32,6.27-107.35-3.8.51-6.85Zm2.67,7.11,2.81.1-.32,6.46-110.65-3.32.52-7.06Zm2.72,7.28,2.89.09-.22,4.3-113.95-3,.35-4.73Zm2.91,5.09,6.37.18,14.54.38h0l1.93,0h0l5.35.14h0l18.67.5-.28,7L277.7,962.73l.12-1.58.48-6.45Zm28.5.05.53-12.2,18.36.67-.47,12Zm.56-12.9.11-2.36h.66l10.6.42h0l7.08.26L440,945.5Zm1-3,0-.84,10.08.4,0,.83Zm10.61.41,0-.83,6.83.28,0,.81Zm-11.45-2.07.11-2.55.39,0h.27l10.59.45h0l7.08.3-.1,2.5Zm1.06-3.22,0-.82,10.07.44,0,.81Zm10.59.45,0-.81,6.82.3,0,.8ZM422,935.26l.11-2.53h.66l10.58.5h0l7.07.32-.1,2.49Zm1.06-3.2,0-.82,10.06.48,0,.81Zm10.58.49,0-.8,6.81.32,0,.8Zm-11.43-2.15.11-2.53.4,0H423l10.57.53h0l7.06.35-.1,2.49Zm1.06-3.19,0-.81,10.05.52,0,.79Zm10.57.53,0-.79,6.8.35,0,.78Zm-11.41-2.2.11-2.52.39,0h0l.26,0h0l10.55.56h0l7.05.38-.1,2.49Zm1.05-3.17,0-.81,10,.56,0,.78Zm10.55.56,0-.78,6.79.37,0,.78Zm-11.39-2.23.11-2.52.39,0h0l.26,0h0l10.54.61h0l7,.4-.1,2.48Zm1-3.17,0-.78,10,.58,0,.78Zm10.54.6,0-.77,6.79.4,0,.76Zm-11.38-2.26.11-2.52.39,0h.26l10.53.65h0l7,.43-.1,2.47Zm1.05-3.16,0-.78,10,.63,0,.76Zm10.53.64,0-.76,6.78.42,0,.76ZM423.08,911l.11-2.5.39,0h0l.26,0h0l10.52.69h0l7,.45-.1,2.46Zm1.05-3.15,0-.77,10,.67,0,.75Zm10.52.69,0-.75,6.76.44,0,.75Zm-11.36-2.35.11-2.5.39,0h0l.26,0h0l10.51.73h0l7,.49-.1,2.45Zm1-3.14,0-.76,10,.7,0,.74Zm10.51.72,0-.74,6.75.48,0,.72Zm-11.35-2.39.11-2.49.39,0h0l.26,0h0l10.49.76,7,.51-.09,2.46Zm1.05-3.13,0-.73,10,.73,0,.73Zm10.49.76,0-.72,6.75.49,0,.73Zm-11.33-2.43.11-2.48.39,0,.26,0h0L435,895l7,.54-.09,2.44Zm1.05-3.11,0-.74,10,.78,0,.72Zm10.48.8,0-.71,6.74.51,0,.72Zm-11.32-2.47.07-1.64,2.23-.66,8.92.72,7,.57-.1,2.42Zm4.19-2.86,1.91-.56,4.92.4,0,.71Zm7.32.59,0-.7,6.73.55,0,.7Zm-3.09-1.83,6.49-1.92,3.5.3-.1,2.43Zm8.36-2.47,1.68-.5,0,.64ZM424.05,889l.12-2.65,4.56-1.4,3.63-1.11h0l.43-.13,8-2.46,1.71-.52-.11,2.82Zm3.37-4.85,1.81-.56,1.24.11-1.82.55Zm4-1.25,6.2-1.91,1.3.12-6.24,1.9Zm8-2.47,1.72-.53,1.34.12-1.74.53Zm-15.16,3.49.12-2.64,3.61-1.16.64-.2.77-.25,2-.65.43-.14,7.68-2.45,3.2-1-.11,2.82Zm3.94-5,.31-.09,1.11.09-.3.1Zm2.45-.79,5.92-1.91,1.17.1-6,1.91Zm7.62-2.46,1.63-.53,1.2.11-1.64.53Zm3.77-1.22.75-.24v.31Zm-17.56,4.45.12-2.62,2.74-.92,3.27-1.1.44-.14,7.34-2.46,3.2-1.06.44-.15h0l.92-.32-.11,2.81Zm1.79-4.33,1.61-.55,1,.1-1.62.53Zm3.68-1.24,5.66-1.92.3,0h0l.74.07-5.7,1.9Zm7.29-2.46,1.55-.53,1.07.1-1.56.52Zm4.7-1.12-1.08-.11,2.14-.72,0,.48Zm-17.24,4.11.12-2.63,1.95-.68,3.12-1.09.43-.15,7-2.45,3-1.06.44-.16h0l2.31-.81-.11,2.8Zm1.1-4.09,1.52-.54.89.09-1.53.53Zm3.53-1.24,5.43-1.91.93.09-5.46,1.9Zm7.07-2.45v0l1.39-.49.95.1-1.47.51Zm4.36-1.14-1-.09,3.42-1.21v.45Zm-15.84,3.88.12-2.62,1.22-.44,3-1.08.43-.16,6.76-2.46,2.9-1,.44-.16,3.61-1.31-.12,2.78Zm.47-3.84,1.44-.53.79.08-1.45.53Zm3.39-1.24,5.21-1.9.82.08-5.23,1.9Zm6.71-2.46.59-.21v.27Zm1.1,0,0-.4.27-.1.85.09Zm3.09-1.12-.86-.09,4.6-1.68v.42Zm-14.54,3.63.12-2.6.55-.21,2.84-1.07.43-.16,6.5-2.46,1-.38,1.76-.67.45-.17,4.77-1.8-.1,2.78Zm3.14-4.82,5-1.9.73.08-5,1.9Zm6.46-2.45,1.32-.5h.23v.26l-.8.3Zm4-1.14-.76-.08,4.91-1.88.76.1h0Zm-13.35,3.39.12-2.59,2.65-1,.43-.17,6.26-2.45,2-.78.67-.26.44-.18,5.88-2.3-.12,2.77Zm2.48-4.56,4.82-1.91.65.08-4.85,1.9Zm6.22-2.46,1.26-.49.66.07-1.26.5Zm3.09-1.22,4.73-1.86.7.08-4.75,1.86Zm6.13-2.41.56-.23v.29Zm-1.5-.15-6.13,2.42h0l-.43.17h0l-2.66,1L426.34,854l-.43.17h0l-.34.14.5-11.42a.74.74,0,0,0,0-.14.45.45,0,0,0,0-.11s-.06,0-.09-.06-.05-.06-.08-.06h0l-5.19-.61h0l-.05,0h-.05l-1.93.84s0,0,0,.06l-.08.08,0,.11a.19.19,0,0,0,0,.07l-.65,14.3-.9.35-.42.17L413.67,859l-2.09.82-7.64-.78,1.93-40,38.92,5.2-.91,22.81ZM405.9,818.39l1-20,2.75.41,4.13.62h.09l2.28.35,3.65.55,2.17.32h0l1,.15h0l13.36,2h0l9.23,1.38-.77,19.41Zm4.75-20.15,3-1.74-.1,2.17Zm3.48.52.13-2.63,1.83-1.06-.18,3.95Zm7.74-2,0,.48-2.16-4.3.19-.11Zm-1.1-4.45,1.16-.68.16.3-.13,2.73Zm1,6.08v0l-1.17.66L418,793.93l1.16-.68Zm0,.82,0,.65-.89-.13Zm-2,.36-3.29-.5.2-4.35.52-.3Zm17.16-15.69-.76,18.14-12.85-1.92.09-2s0,0,0-.08a.22.22,0,0,0,0-.08l0,0a.31.31,0,0,0-.07-.09.21.21,0,0,0-.08-.06l0,0-.06,0H423l-.67.38.07-1.45,0-1,.16-3.55Zm-14.25,7.51v-.17l14.28-8.34v.22Zm.18,7.23-.06,1.4-.5-.08,0-1Zm13.83,3.47.77-18.37,6.91,1.15,2.85.47,2.93.48v.08l-1.4.27h0l-1.47.56s0,0,0,0h-.05l-.75.68,0,0a.58.58,0,0,0,0,.11.21.21,0,0,0,0,.11v0l-.62,15.71Zm.8-19.07,0-.45,6.87-4-.22,5.56Zm9.76-4.66-.24,6.23-2.34-.38.25-6,.38-.23Zm-1-.89,1.08-.62,0,.8Zm1.29,7.21.24-6.23,2.65.45-.25,6.21Zm.27-6.94.05-1.2,2.48-1.46.23.31-.11,2.8Zm2.49-3.4-2.8,1.63-2.34,1.37h0l-.59.34h0L437.1,782l-14.81,8.64h0l-.37.21h0l-1.64,1-.41.23-.68.4-1.65,1-.39.23h0l-.86.51h0l-2.37,1.38h0l-.09,0h0l-4.21,2.46-2.7-.4,1-20.2s0-.07,0-.11a.5.5,0,0,0,0-.13.24.24,0,0,0-.08-.06s-.05-.06-.08-.07l-6.09-1h0s-.05,0-.07,0h-.07l-9.26,6.17s0,0,0,0a.3.3,0,0,0-.07.11.21.21,0,0,0,0,.11l0,.05L390.75,807l-17.63,10.4,1-17.9h0s0-.06,0-.1,0-.11,0-.14a.16.16,0,0,0-.08-.06s-.05-.07-.09-.07L290.68,787l.6-8.06,4.25-57.66,2.2-29.7a.7.7,0,0,0,0-.12.61.61,0,0,0,0-.13.24.24,0,0,0-.08-.06s0-.07-.08-.07l-30.57-6.54h0l0,0-.08,0a.23.23,0,0,0-.1.07l0,0-10,16.29L215,769l-32.67-4.88L229,661.56l299.42,67.22-11.48,6.69-14.14,8.26-14.46,8.44-1.22.71-1.24.73-7.39,4.3-1.24.73h0l-1.22.71h0l-3.88,2.26h0l-5.9,3.44.85-24h0a.45.45,0,0,0,0-.11.47.47,0,0,0,0-.14h0l-.46-.61s0,0,0,0,0,0,0,0l-.93-.59h0v0l-1.34-.53h0l-1.66-.42h0l-1.86-.3h0l-1.94-.14h0l-1.88,0h0l-1.69.18h0s0,0,0,0l-1.38.33h0l-1,.45s0,0,0,0,0,0,0,0l-.51.54a.54.54,0,0,0-.09.25v0l-1.34,34.21Zm-186-59.16-9.34,13.88,2.28-27.6,9.4-15.31Zm2.93-29.75,30.05,6.43-2.14,29-30.3-5.82Zm-2.45,30.3L295,721.59l-4.21,57L260,773.91ZM373.25,501.53l-1.05-.35,1.19-2Zm-8.82-7.1,10.31-18-1.26,21.12Zm8.85,3.83L371.64,501l-9.22-3.07,1.66-2.88ZM524,661.26l-2.5-.7,4.44-3.33,0,0a.37.37,0,0,0,.08-.14s0,0,0-.06h0a.27.27,0,0,0,0-.13.48.48,0,0,0,0-.12h0l-.09-.09s0-.06-.07-.06h0l-1.14-.33-5.65-1.61h0l-1.34-.38,0-1.11,12.4,3.55Zm6.22-3.8-.12,5.45,0,1.53-5.79-1.62,0-1Zm-11,4-.35-.09.08-.06,5.72-4.29.35.1-4.44,3.32-.17.13Zm1,0v.26l-.25-.07Zm-1.16-1.11.12-4.92,4.67,1.33Zm1.86.8,2.77.78,0,.76L521,661.9Zm-2.26-5.87-.13,5.47-.48.37-.57-.16.15-6Zm-.62,6.56,1.12.31,1.25.35.17,0,3.29.92,6.31,1.77.18,0v.49l-12.9-3.59v-.5ZM600.55,776l-.82-.16-19.13-3.74-.85-.17-19.83-3.88s0,0,0,0h0s0,0-.07,0-.07,0-.09,0,0,.07-.05.1,0,.07,0,.12h0s0,0,0,0v.34L558.75,826s0,.08,0,.11,0,.09,0,.13a.18.18,0,0,0,.09.06s0,.06.08.06l19.54,2.84.54.08h0l.87.12,18.82,2.73.55.08.83.12,7.37,1.07V834L558.36,827l.91-59.67,48.49,9.55v.58Zm7.21,2.45-.13,28.27h0v.62l-.11,25.35-7.08-1,.34-54.57Zm-7.51-1.79v0l-.34,54.91-.32-.05L600,776.6Zm-20.28-4,.33.07v0l-.59,55.87-.35,0Zm-1.13,55.84-.25,0h0l-19.31-2.79.86-56.55,19,3.72h.12l.19-.09Zm2-55.33,18.29,3.57h0l.08,0,.21-.08-.36,54.79-.26,0-18.58-2.7Zm-21.76-6.68h0s0,0,0,0a.29.29,0,0,0-.21.26v0l-.93,60.39a.45.45,0,0,0,0,.11.5.5,0,0,0,0,.13.24.24,0,0,0,.08.06s0,0,.08.06l49.44,7.11,0,3.36v.63h0v.64l-80.54-11.19.11-5,27.4,3.94h0a.26.26,0,0,0,.18-.09s0-.06,0-.08a.39.39,0,0,0,0-.14v0h0l1-60.58s0-.07,0-.11a.56.56,0,0,0,0-.12.31.31,0,0,0-.09-.07s0,0-.07-.06l-27-5.33.23-10.34h0v-.68l.41-18.61,78.8,17.56-.12,27.36v.35Zm36.5,127.14-38.17-3.38.41-27,38,4.27Zm.52,1.24,2.49.21-.36,56.12-2.53-.1Zm-.52-.47v.08l-.4,56.61-.47,0,.41-56.57Zm-1.23.92s0,0,0,0a.15.15,0,0,0,0-.09.38.38,0,0,0,0-.1l0,0s0,0-.08,0l-.07,0h0l-19.79-1.71h0l-.77-.07h0l-14.88-1.3h0l-.79-.07h0l-.41,0v-.55l37.2,3.28-.41,56.53h-.24l.42-55.71ZM558,892.6l.28,0-.86,57.14h-.29Zm-1.4,57.13h-.16l.87-57.05.16,0Zm2.2-56.92L573,894h0l.18,0-.67,56.3h-.22L558,949.78Zm14.9,1.16.26,0-.65,56.35h-.28Zm.78.2,18.8,1.64L592.9,951l-19-.69Zm-17.24-31.24-.42,27.68v.28l0,1.27v.12h0v0L556,949.7l-3.2-.11,1.66-102.83,3.11.39Zm-5,86.64-20.94-.76,1.21-58.65V890h0l0-1.3h0v-.28l.58-28.27.15-7.06,20.61-6.29Zm-26.68-1.46,0,0s0,0,0-.05l-.2-.18h0s0,0,0,0l-.49-.25-.45-.48.41-18.7h0l0-.73h0l.79-36,0-.73.69-31.12,6.36.72L532,888.05l-4.35-.39h0l0,0c-.14,0-.23.14-.24.32h0v.29h0l0,1.29v.15l-1.27,58.88h-.32l0-.15,0-.05s0,0,0-.07l-.07-.11h0ZM498,928.73l.95-34.48,14-3.25L512,926.64Zm14-1.38v0l-14,2.07h0Zm-24-73.67.05,0,.07,0s0,0,0,0a.45.45,0,0,0,0-.11s0-.05,0-.07v0h0l.12-3.94a.5.5,0,0,0,0-.13.42.42,0,0,0,0-.12s-.07,0-.1-.06-.05-.06-.08-.06h0l-2.63-.31,2.75-1s0,0,0,0,.05,0,.07,0l0,0,0-.1a.21.21,0,0,0,0-.07h0l.12-3.93a.53.53,0,0,0,0-.12s0-.09,0-.12a.15.15,0,0,0-.09-.07s-.05-.05-.08-.06l-2.52-.3,2.63-1,0,0,.07,0s0,0,0,0a.54.54,0,0,0,0-.1s0,0,0-.07v0h0l.09-3.11,11.27,1.43-.45,16.19-13.87-1.56Zm-1.82-.12s0,0,0-.06h0l.15,0Zm.17-5.88a.31.31,0,0,0,0-.08v0l.21,0Zm.16-5.86h0s0-.07,0-.11v0l.26,0Zm2-5.83s0,0,0,0,0,0,.06,0l0,0,0-.1,0-.07h0v0l.12-3.9s0-.08,0-.13a.7.7,0,0,0,0-.12s-.06,0-.09-.06,0-.05-.08-.05l-2.32-.31,2.43-1a.1.1,0,0,0,0,0s.05,0,.06,0a.11.11,0,0,0,0-.06.3.3,0,0,0,0-.1l0-.06h0a0,0,0,0,0,0,0l.18-6.18,11.23,1.56-.39,14-11.26-1.42v-.1a.61.61,0,0,0,0-.13.34.34,0,0,0,0-.12s-.06,0-.09-.06,0-.06-.08-.06L486,837Zm-1.87,0,0,0a.36.36,0,0,0,0-.11s0,0,0,0l.31,0Zm3.38-45s0-.08,0-.11,0-.05-.08-.08-.05,0-.08,0l-1-.16.16-5.32,1.09-.54s0,0,0-.05l.06,0a.64.64,0,0,0,0-.07.3.3,0,0,0,0-.1l0,0v0h0l0-1a.35.35,0,0,0,0-.11.5.5,0,0,0,0-.13.13.13,0,0,0-.09-.06s0-.06-.08-.07l-1-.17.63-20.43,1.09-.62s0,0,0,0l.05,0s0,0,0-.07h0a.42.42,0,0,0,0-.1s0,0,0,0a0,0,0,0,0,0,0v0l0-.94a.34.34,0,0,0,0-.12.35.35,0,0,0,0-.12s-.06-.05-.09-.07,0,0-.07-.06l-1-.19.14-4.4a.42.42,0,0,0,0-.12.42.42,0,0,0,0-.06l12.31,2.4-.86,30.89,0,.68-.77,27.77-11.2-1.62.16-5.2h0l.55-18.32,0-1A.53.53,0,0,0,490.07,791Zm-21.53-11.62-1.11-.19,4.28-13.93-.15,4.32Zm2.92-6.82-.25,7.28-1.89-.32Zm-4.8,6.5-1-.17.47-13,5.54-3.23Zm.13.74.24,0,1.64.29.24,0,2.52.43.11,0,2.58.45,11.48,2,.3,0h0l1,.17v.25l-21.21-3.63v-.26Zm19.33-16h0l-11.67,6.5-1.54-.27,13.39-7.54,0,1.22Zm.12.69-.56,17.89h0l-11.25-1.94.32-9.53Zm-13.92,5.11v0h0l0-.07,2.4-1.35,11-6.2.22,0Zm2.55-2.34.1-2.95s0-.07,0-.11,0-.09,0-.12,0,0-.08-.07l.12-.36,4.9-2.83,4.8.91Zm-.17-4.24-1.57-.29,4.12-2.39,1.59.29Zm-2.13-.73v0h0l0,0,3.57-2.08.14,0Zm1.79,1.38-.06.19-2-.37.06-.19Zm-2,.55,2,.38-.1,3-2.1,1.19Zm1.83,6.76-.32,9.38-2.06-.36.33-9.39Zm12,11.49.58-18.5.06-2v-.2a.29.29,0,0,0,0-.1.33.33,0,0,0,0-.14.14.14,0,0,0-.08-.05s-.05-.07-.08-.07l-1-.19-5.81-1.1-2.59-.49-.21,0,.3-.17,10.22,1.94-.66,21.24Zm.15-26.17h0l-4.1,2.37-1.6-.31,5.89-3.42,0,1.28Zm.12.71-.07,2.45h0l-3.14-.6Zm-6.82,1.16-.15,0L486,754.3l.16,0Zm0,.71,2.6.5,4.07.78.29,0,1,.19v.24l-9.32-1.77.32-.18ZM183.39,734.37h0s0-.06,0-.1,0-.12,0-.16,0,0-.06-.05-.07-.07-.11-.08h0l-.22,0,.62-1.54s0,0,0-.06,0,0,0-.06l.41-4.18h0a.44.44,0,0,0,0-.1.66.66,0,0,0,0-.15s-.05-.05-.08-.07,0-.07-.09-.08h0l-.21,0,.61-1.54v0l0-.07.41-4.17a.36.36,0,0,0-.23-.4h0l-.19,0,.59-1.54s0,0,0-.06,0,0,0-.06l.1-1,.11,0-1.74,17.78-.16.38.25-2.57Zm-3.07,10.56v0l1.35.21-.56,1.34-1.28-.2.47-1.13s0,0,0-.06,0,0,0-.07A.19.19,0,0,0,180.32,744.93Zm2,.08V745s0,0,0-.06l.24-2.42.11,0-.24,2.52-.33.76h0l-.34.81-.12,0ZM181,738.62v0l1.35.22-.54,1.34-1.28-.21.45-1.13s0,0,0-.06,0,0,0-.06S181,738.65,181,738.62Zm1.71,3.15.11-1.1h0a.32.32,0,0,0,0-.14s0-.09,0-.11,0,0-.06-.06l.35-.84-.23,2.27Zm-1.09-9.44v-.05l1.36.24-.54,1.33-1.27-.22.43-1.11s0,0,0-.06,0,0,0-.06S181.57,732.35,181.57,732.33Zm.62-6.28v0l1.36.24-.53,1.33-1.27-.23.42-1.1s0,0,0,0,0,0,0-.06S182.19,726.08,182.19,726.05Zm.62-6.26v0l1.36.24-.52,1.32-1.27-.23.42-1.08s0,0,0-.06,0,0,0,0S182.81,719.82,182.81,719.79Zm.61-6.23s0,0,0-.07l1.36.25-.51,1.31-1.27-.24.4-1.06s0,0,0-.06,0,0,0-.06S183.42,713.59,183.42,713.56Zm.62-6.23s0-.05,0-.07l1.36.25-.49,1.31-1.27-.24.39-1.06v0a.11.11,0,0,0,0-.06S184,707.36,184,707.33Zm1,10.74.2-2.11.16-.39-.25,2.51Zm-1.27,19.68,3-7.17-.57,5.74-.64,1.52-2.3,5.45Zm.29-3,2.08-21.16,3-7.79-.8,8.14L187,727.6Zm.63-33.66a.27.27,0,0,0,0-.09l1.37.26-.49,1.3-1.27-.24.38-1s0,0,0-.06l0,0S184.65,701.16,184.65,701.13Zm.61-6.19a.27.27,0,0,0,0-.09l1.37.26-.48,1.3-1.27-.24.37-1s0,0,0-.06,0,0,0-.05S185.26,695,185.26,694.94Zm1.79,1.86s0-.08,0-.12a.31.31,0,0,0-.13-.1l-.05,0h0l-.15,0,.55-1.53s0,0,0,0,0,0,0-.06h0l.4-4.12a.25.25,0,0,0,0-.12.58.58,0,0,0,0-.14s-.07-.06-.1-.08,0,0-.07-.06h0l-.15,0,.55-1.52s0,0,0-.06l0,0h0l.4-4.11c0-.05,0-.09,0-.14a.5.5,0,0,0,0-.12s-.06-.05-.09-.08-.05,0-.08-.06h0l-.14,0,.54-1.52v-.06a.08.08,0,0,0,0-.05h0l.41-4.1a.61.61,0,0,0,0-.13.53.53,0,0,0,0-.12s-.05-.05-.08-.07,0-.06-.08-.07h0l-.13,0,.53-1.51s0,0,0,0l0-.05h0l.4-4.08a.7.7,0,0,0,0-.14.5.5,0,0,0,0-.12s-.06-.05-.09-.08-.05,0-.08-.06h0l-.12,0,.53-1.51s0,0,0,0,0,0,0,0h0l.4-4.08a.53.53,0,0,0,0-.12.51.51,0,0,0,0-.13s-.06-.05-.08-.08-.05-.06-.09-.06h0l-.12,0,.52-1.51v0s0,0,0,0h0l.4-4.07a.79.79,0,0,0,0-.13.59.59,0,0,0,0-.13.24.24,0,0,0-.08-.06s0-.07-.09-.08l-.11,0,.51-1.51v0s0,0,0,0h0l.4-4.05a.53.53,0,0,0,0-.12.51.51,0,0,0,0-.13s-.06,0-.09-.07,0-.07-.08-.07l-.1,0,.19-.6,2.23.5-.08.82-3.42,34.93a.8.8,0,0,0,0,.15s0,.08,0,.11l.11.08s0,0,.06,0h0l1.08.21-4.77,13.54,0-.3a.79.79,0,0,0,0-.13.42.42,0,0,0,0-.12.22.22,0,0,0-.14-.11l0,0h0l-.16,0,.56-1.53s0,0,0,0,0,0,0-.06h0l.41-4.12A.57.57,0,0,0,187.05,696.8Zm-1.18-8a.31.31,0,0,0,0-.1l1.38.27-.47,1.29L185.5,690l.37-1s0,0,0-.05a.14.14,0,0,1,0-.06S185.87,688.8,185.87,688.77Zm.61-6.16a.22.22,0,0,0,0-.11l1.38.28-.45,1.29-1.27-.26.35-1s0,0,0,0,0,0,0,0S186.48,682.65,186.48,682.61Zm.61-6.13a.35.35,0,0,0,0-.12h0l1.39.29-.45,1.28-1.26-.26.34-1a.08.08,0,0,0,0,0,.11.11,0,0,0,0-.06S187.09,676.51,187.09,676.48Zm.6-6.12a.23.23,0,0,0,0-.12h0l1.38.29-.43,1.27-1.27-.26.34-1s0,0,0,0l0,0S187.69,670.39,187.69,670.36Zm.6-6.11a.25.25,0,0,0,0-.12v0l1.39.3-.43,1.27L188,665.4l.33-1v-.05s0,0,0,0A.3.3,0,0,0,188.29,664.25Zm.61-6.08a.35.35,0,0,0,0-.12v0l1.39.31-.42,1.27-1.27-.28.32-1s0,0,0,0l0,0S188.9,658.2,188.9,658.17Zm.6-6.07a.61.61,0,0,0,0-.13v0l1.39.32-.42,1.26-1.26-.28.31-1s0,0,0,0,0,0,0,0S189.5,652.14,189.5,652.1Zm.59-6.06a.25.25,0,0,0,0-.12.09.09,0,0,0,0,0l1.4.32-.41,1.25-1.26-.28.3-.94v0s0,0,0,0A.36.36,0,0,0,190.09,646Zm1.39,6.08s0,0,0,0,0,0,0-.05h0l.39-4a.32.32,0,0,0,0-.13.42.42,0,0,0,0-.12.23.23,0,0,0-.09-.08s0,0-.07-.06h0l-.09,0,.49-1.51s0,0,0,0a.05.05,0,0,0,0,0h0l.4-4a.53.53,0,0,0,0-.12.51.51,0,0,0,0-.13.31.31,0,0,0-.09-.07.14.14,0,0,0-.08-.07h0l-.08,0,.49-1.5v0s0,0,0,0h0l.39-4s0-.09,0-.13a.61.61,0,0,0,0-.13s-.06,0-.09-.07,0-.06-.07-.07h-.09l.48-1.49v0a.05.05,0,0,1,0,0h0l.39-4a.27.27,0,0,0,0-.13.5.5,0,0,0,0-.13s-.05,0-.08-.07,0-.06-.08-.07h0l-.07,0,.47-1.49s0,0,0,0,0,0,0-.05h0l.39-4a.3.3,0,0,0,0-.13.42.42,0,0,0,0-.12s-.05,0-.08-.08,0-.06-.08-.06l-.07,0,.46-1.49s0,0,0,0a.05.05,0,0,0,0,0h0l.39-4a.25.25,0,0,0,0-.12.5.5,0,0,0,0-.13s-.05,0-.08-.08l-.08-.07h-.07L195,616v0l0,0h0a0,0,0,0,1,0,0l.39-4a.5.5,0,0,0,0-.13.3.3,0,0,0,0-.13s0,0-.08-.07-.05-.06-.08-.07h-.07l.46-1.49s0,0,0,0v0h0l0-.29,21.86,5.55-14,39.84-9.74-2.18-2.35-.53ZM190.69,640a.5.5,0,0,0,0-.12l0-.06,1.41.33-.4,1.25-1.26-.29.3-.93s0,0,0,0l0,0S190.69,640,190.69,640Zm.6-6a.5.5,0,0,0,0-.13.3.3,0,0,0,0-.08l1.43.34-.4,1.25-1.25-.3.28-.91s0,0,0,0l0,0S191.29,634,191.29,634Zm.59-6a.51.51,0,0,0,0-.13l-.06-.09,1.44.35-.39,1.24-1.25-.3.28-.91v0s0,0,0,0S191.88,628,191.88,628Zm.59-6a.27.27,0,0,0,0-.13.61.61,0,0,0-.07-.1h0l1.45.35-.38,1.24-1.25-.31.27-.89v0l0,0S192.47,622,192.47,622Zm.59-6a.28.28,0,0,0-.09-.22h0l1.46.36-.38,1.23-1.24-.31.26-.88v0l0,0S193.06,616.05,193.06,616Zm.59-5.95a.27.27,0,0,0,0-.13.61.61,0,0,0-.07-.1l0,0,1.47.37-.37,1.23-1.25-.32.26-.86v0l0,0S193.65,610.1,193.65,610.07Zm43.1-39.44h0a.08.08,0,0,0-.05.05l-1.44,3.8-2.54-.72L270,467.88l5,1.67ZM235,575.15,221.8,610.28l-1.79-.46,12.48-35.39Zm35.06,17.44.52.15-.06.74L236,583.89l.07-.78,2.58.71ZM239,583.2l.13-1.42,1.92-4.92,29.38,8.36-.54,6.6Zm121.53,59.59.07-1.12.06,0-.07,1.11Zm0,.73-.34,5.69h-.07l.35-5.7Zm-.14-2.61L317.8,629.77l.22-3,42.87,11.32-.18,2.94Zm-.33.63-.07,1.12-42.35-11,.08-1.17Zm-.11,1.83-.34,5.69-.94-.24.27-4.26a.42.42,0,0,0,0-.12.53.53,0,0,0,0-.12s-.06-.05-.09-.08,0,0-.07-.06l-24.31-6.29-16.9-4.36.08-1.18Zm-2.6,2.53a.5.5,0,0,0,0-.13s-.05,0-.09-.07,0-.06-.07-.06l-21.37-5.5h0s-.06,0-.09,0a.18.18,0,0,0-.09,0,.46.46,0,0,0-.07.14l0,.07v0l-.16,2.41-1-.26.27-4,23.8,6.16-.24,3.88-.94-.24.15-2.44A.23.23,0,0,0,357.38,645.9Zm-.52.37-.12,2.06L335.86,643l.14-2.09Zm-22.75-7.74-.26,4-1-.25.16-2.48a.23.23,0,0,0,0-.12.61.61,0,0,0,0-.13s-.05,0-.09-.07,0,0-.07-.06l-15.4-4,.08-1.18ZM332.48,640l-.14,2.1-15.13-3.87.15-2.12Zm0,2.87,1.5.38,1.5.39h0l21.4,5.45,1.45.37,1.44.37h0l.57.15,1,.24-.05.68-44.19-11.23.05-.72Zm28.73,8.73-.54,9-.66-.16.46-7.57a.45.45,0,0,0,0-.11.5.5,0,0,0,0-.13s0,0-.08-.07,0-.06-.07-.07l-.58-.14-1.45-.37-1.45-.37-21.42-5.41-1.5-.37-1.5-.39L317,641.56l.09-1.18ZM360,653.15l-.43,7.17h-.07l.44-7.18Zm-.58-.15-.43,7.18L358,660l.43-7.18Zm-1.45-.36-.44,7.18-.94-.22.44-7.2Zm-1.45-.37-.44,7.19-20.94-5.16.48-7.31Zm-21.42-5.41-.48,7.31-1-.24.49-7.32Zm-1.5-.38-.49,7.32-1-.25.49-7.32Zm-1.5-.38-.49,7.34-15.19-3.76.52-7.41Zm-.31,8.09,1.51.38,1.51.37,21.46,5.29,1.45.36,1.45.36.59.14,1.17.29.44.11,32.42,8,8.24,2,1.34.33.41.1,7.11,1.76,14.5,3.58,16.32,4,1.49.36.38.1L479,690.53l1.61.39.36.09,2.84.7,4.47,1.11h.06l.08,0h0l1,.26,3.15.77,10.66,2.63.15,0,3.23.8,7.54,1.85,1.72.43.34.09.91.22,2.37.58h0l.17.05,3.32.82,6.37,1.56.18,0v.52L231.85,630.37l.07-.81,2.63.64,18.16,4.48,1.68.42,1.69.41,10.29,2.55.76.18.5.12,12.43,3.08,1.62.39,1.62.4,23.1,5.7,1.56.39,1.56.38,5.1,1.26,1,.24.46.12Zm62.8-4.36-31.73-8.29.17-2.94L394.72,647Zm.21,6,7.69,2-.11,2.14-7.7-2Zm-.24-5.32-.06,1.07-31.76-8.25.07-1.12Zm-.1,1.79-.14,2.78,0,.3h0l-.13,2.46-31.81-8.11.34-5.69Zm-.1,6.31,8.21,2.09,1.11.29,0,.63-41.37-10.51,0-.67Zm9.25,3.72-.43,8.73-.83-.21.37-7.33s0-.07,0-.11,0-.1,0-.13-.05,0-.08-.07a.16.16,0,0,0-.07-.07l-8.22-2.07L362.15,653l.07-1.13Zm-1.42,1.45-.36,7-7.72-1.91.37-7ZM394,661.73l-.37,7-31.9-7.88.42-7.16ZM411.39,663l23.21,5.92,7.53,1.93,1.25.31,0,.6-38.8-9.86,0-.64Zm-6.77-2.45.11-2.13,6.57,1.7-.1,2.11Zm32.94,5.65v0l1-23.32,4.45,1.23-1.09,26-6.61-1.69,2.13-1.93s0,0,0,0v0s0,0,0-.07l0-.1v0Zm-3,2-22.87-5.83.11-2.41,24.8,6.39Zm8.74,4.27-.35,8.45-1-.23.3-7.13a.35.35,0,0,0,0-.11.61.61,0,0,0,0-.13s-.05,0-.08-.07,0,0-.07-.06L432,670.64l-20.69-5.24-6.87-1.73,0-1.07ZM432,671.36l9.74,2.46-.28,6.73-15.41-3.8Zm-6.68,5.2-14.17-3.49.34-6.9,19.77,5ZM411,666l-.33,6.91-6.6-1.64.35-6.93ZM480.71,682l-.28,8.2-1.09-.28.24-6.92s0-.06,0-.11,0-.09,0-.12-.05-.05-.08-.07,0-.06-.07-.07l-35.17-8.88,0-1Zm-36.45-10,0-.6,35.08,9,1.38.36,0,.55ZM479,683.24l-.22,6.52-34.94-8.62.28-6.71Zm35.83-18.89v.34L504,672.82l-.16.12L491,682.57l-.28-.06L505,671.76Zm-9.72,6.49.21-7.72,1.71-1.32,7.39,2Zm2.12,15.53.08-3,7.17-5.17-.08,3.07Zm7.14-3.62-.15,5.77-5.87-1.5Zm-7.44.09s0,0,0,0l-.05.08a.78.78,0,0,0,0,.14s0,0,0,0l-.1,3.46-2.7-.69.09-3.37,10.48-7.62-.07,2.48Zm-2.81-1.12v-.33l3.17-2.31,7.29-5.34v.37Zm0-1.15.2-7,2.69.72-.12,4.28Zm3.3-2.42.11-3.95,7.16-5.3-.1,4Zm-.19-4.54-2.41-.64,10-7.45-.06,2.56Zm-7.44,11.23-.32-.08,3.93-2.87v.34Zm3.58-1.8-.07,2.39-.31.23-2.38-.61Zm-4.71,1.51-3.8-1,8.68-6.43-.11,3.92Zm-4.61-1.17-2.34-.6,11.92-8.92-.07,2.47ZM491,683.3l3.14.8,4.61,1.17,1.14.29h0l3.19.82.52.13h0l.15,0,3.22.82.62.15,6.9,1.76,1.49.39v.52l-34.33-8.73,0-.55,8.26,2.11Zm24.95,7.6-.2,8-1.2-.29.18-6.73a.35.35,0,0,0,0-.11.33.33,0,0,0,0-.13s0,0-.08-.07,0,0-.07,0L507,689.57l-3.22-.82h0l-.16,0-3.44-.87-3.18-.8-1.13-.29-3.93-1-3.13-.8h0l-.14,0-.52-.13-1.07-.28-5.48-1.38,0-1Zm-1.76,1.21-.15,6.33-7-1.73.17-6.37Zm-7.52-1.9-.17,6.37-2.71-.67.18-6.38Zm-14.78.16,4-2.89.31.08-6.64,4.83-.29-.08Zm-3.08,1.44.19-6.07,2.62.67-.11,3.44Zm3.24-2.36.09-2.91,2.9.74Zm4.93-1.69,2.36.6-6.67,4.81-2.33-.58Zm3.18.8,3.14.8-.18,6.38-9.63-2.37ZM483.84,691l-2.28-.56,6.55-4.9.2.05-.07,2.16Zm4.38-2.43-.12,3.49-3.44-.85Zm-2-3.51-4.86,3.65.16-4.84Zm.8.2.27.07-6,4.47v-.26Zm36,13.12s0,0,0,0l0,.06a.35.35,0,0,0-.06.14.43.43,0,0,1,0,0l0,2-2.8-.69,0-1.84,4.95-3.3,0,0a.31.31,0,0,0,.08-.12l0-.07v0a.25.25,0,0,0,0-.12.4.4,0,0,0,0-.11h0a.13.13,0,0,0-.07-.09s0-.06-.08-.07h0l-1.3-.34-.36-.09-3.31-.83h0l-.16,0h0l-1.71-.43-1.35-.34,0-.93,12.44,3.17Zm6.33-3.39-.16,7.21-5.84-1.44,0-1.84Zm-6-.28.29-.2.44.12-4,2.66v-.41Zm-3.23,1.37.06-2.43,2.6.65Zm-2.94,3.15-.43-.1,1.29-.86h0l1.36-.91v.4Zm2.19-.67,0,1.21-1.3-.33Zm-1.17-1.19.1-4.2,1.19.3-.07,3.08Zm-.42-4.33-.11,4.69-1.08.71.14-5.67ZM255.9,634.75l-1.17-.28.65-7.75,1.17.29Zm1.16-7.61,9.75,2.46-.62,7.69-9.78-2.41Zm-2.85,7.2-1.17-.29.66-7.76,1.17.3Zm-1.69-.42-17.64-4.35.22-2.49,2.13-5,16,4Zm15.61-20.37-.26,3.17-13.31-3.48-17.81-4.66.29-3.25Zm-31-8.92,1-11.24,2.16-5.39,29.29,8.1-1.36,16.74ZM257.42,620h0l-.06,0a.17.17,0,0,0-.12.06s0,.05,0,.07a.22.22,0,0,0-.06.13s0,0,0,0h0l-.21,2.57-1.17-.3.36-4.2,11.4,2.95-.1,1.24Zm9.91,3.26-.18,2.23L257.41,623l.19-2.24Zm-11.42-5.65h0l-.06,0c-.05,0-.09,0-.13.06s0,0,0,.06a.42.42,0,0,0-.07.15h0l-.38,4.53-1.17-.3.53-6.16,13.07,3.4-.1,1.24Zm-1.28-2.34.11-1.25,13.07,3.42-.1,1.24Zm-.4-1.38-.11,1.25-17.54-4.56.11-1.28Zm-.17,2-.52,6.16L236,617.51l.56-6.25Zm-.34,6.93,1.68.43,1.67.43,10.26,2.61.52.13-.06.77-34.85-8.85.07-.81,2.61.67Zm28.89,10.84,1.1.28-.59,7.59L282,641.2Zm-1.11,7.47-1.11-.27.6-7.62,1.1.29Zm2.73-7.06,22.52,5.69-.54,7.47-22.58-5.57Zm23,5.82,1,.26-.54,7.46-1-.25Zm1.56.4,1,.25-.53,7.46-1-.26Zm1.56.39,4.57,1.15-.52,7.43-4.59-1.14Zm5.11.9s0-.07,0-.11a.58.58,0,0,0,0-.14s-.05,0-.08-.07,0-.05-.08-.06l-5.09-1.29-1.56-.39-1.56-.4-23-5.82-1.61-.41-1.63-.41-12.16-3.07.11-1.25,47.33,12-.66,9.32-.47-.12Zm-35-8.47-.6,7.62L268,637.73l.63-7.68Zm35.65,6.36-47.32-12,.07-.76L281,629.71l1.61.42h0l1.61.41,23,5.87,1.56.4h0l1.56.4,5.08,1.3.75.19Zm-5.47-5.74h0s-.06,0-.09,0a.08.08,0,0,0-.08,0,.4.4,0,0,0-.08.16l0,.05s0,0,0,0v0l-.18,2.46-1-.27.29-4,6.12,1.59-.08,1.17Zm4.75,1.94-.15,2.13-4.57-1.17.15-2.13Zm-6.17-4.23-26.16-6.77-13.75-3.56.1-1.23,46.24,12-.08,1.17Zm-1.51,1.74a.53.53,0,0,0,0-.12s-.06,0-.09-.07,0-.06-.07-.06l-23-5.92h0s-.05,0-.07,0-.08,0-.11,0a.23.23,0,0,0,0,.1.29.29,0,0,0-.06.11v0h0l-.2,2.52-1.1-.29.32-4.12L308.9,632l-.29,4-1.05-.27.18-2.54S307.73,633.17,307.72,633.12Zm-.52.38-.15,2.15-22.5-5.75.17-2.18Zm-24.46-8.26-.33,4.13-1.1-.29.2-2.57c0-.06,0-.09,0-.13a.42.42,0,0,0,0-.12s-.06,0-.09-.08,0,0-.07-.06h0L269.16,623l.1-1.24ZM281,626.75l-.18,2.2-11.86-3,.18-2.22Zm-11.49-7.63.1-1.24L315.8,630l-.09,1.17Zm.16-1.94.25-3.17,46.17,12.2-.21,3Zm-1.73,8.48-.24-.06.21-2.6.16-2,.16-1.94.16-1.93.31-3.88,1.43-17.44a.53.53,0,0,0,0-.12.3.3,0,0,0,0-.13s-.06,0-.08-.07-.05-.06-.08-.06l-29.72-8.22s0,0-.06,0H240a.32.32,0,0,0-.08.09s0,0-.05.06l-2.27,5.67s0,0,0,.06,0,0,0,.07l-1,11.63-.36,4-.17,2-.59,6.58-2.61-.68v0a.09.09,0,0,0,0,0,.1.1,0,0,0-.09,0,.07.07,0,0,0-.06,0s0,0,0,0a0,0,0,0,1,0,0s0,0,0,0l-2.3,5.59L233,592l2.87-7.43,34.6,9.63Zm-53.41,6.55,5.08-13.48-.67,7.29-2.56,6.65Zm1.6,1.11-2.4,6.24.63-6.67Zm3.25-5.91,5.76-14.92L223.69,628l-.13.32s0,.05,0,.07,0,0,0,.06l-1.23,13.38-5.52,13.43Zm2.84-9.91-2.53,6.55.66-7Zm-1.71-1.15,5.64-15-.7,7.7-3,7.75Zm5.39-5.83L232.25,594l-1.47,16.25-.51,1.29s0,0,0,.07,0,0,0,.06l-.11,1.17-.44,4.85-.34,3.84-.37,4.08-5.78,14Zm3-10.31-2.65,6.91.68-7.43ZM227,599l6.27-16.63-.73,8.12-3.48,9Zm11.48-16-2.58-.73h0l-.05,0a.14.14,0,0,0-.09,0l0,0s0,0,0,.07,0,0,0,0l-2.32,6,.71-7.86L238.6,582Zm-16.94,27.87L220,615.14l-1.68-.43,1.49-4.23Zm-1.83,4.87-14.9,39.58-.81-.19,14-39.82Zm-10.73,31,4.6-12.2-.65,6.92-2.19,5.7Zm1.51,1.07-2.28,5.93.6-6.32Zm-23.44,57.06,2.87-7.63-.53,5.43-.95,2.47Zm1.14.94-1.8,4.68.48-4.94Zm15.42-49.58.15-.42.8.18-.15.43Zm.55.84-.45,1.2-.76-.17.43-1.2Zm-1.08-1-9.23-2.06,0-.46,9.34,2.1Zm-.24.67-.42,1.21-7.52-1.68h0l-.07,0a.21.21,0,0,0-.11,0,.39.39,0,0,0-.06.11s0,.06,0,.11,0,0,0,0h0l-3.11,32c0,.06,0,.1,0,.15s0,.07,0,.1h0l-.13.34-1-.19,3.35-34.22Zm-6.37,1.9h0s0,0-.08,0a.21.21,0,0,0-.11,0s0,.07,0,.1a.26.26,0,0,0-.05.12h0l-.05.57-2.19,22.53-1.76,5,2.93-30,7.09,1.58-.42,1.2Zm4.87,2.37-6.69,19,1.94-20Zm-9.29,28h.08l-.1.26-.07,0Zm-.27.93-.89,2.38.84-2.39Zm-1.13,5.59,1.38.27-1.89,4.91Zm.17-.68,3.15-8.35-.55,5.68-1.14,3Zm2.82-9.84-1.26,3.35-.09,0,1.41-4Zm1.23-.88,3.45-9.17-.57,6-1.35,3.51Zm1.27,1-2,5.14.52-5.44Zm-1.79-2,.08-.84,7.44-21.13.69.16Zm4.69-9.85,1.53.33-2.08,5.38Zm.18-.68,3.79-10-.6,6.25L200.84,673ZM203,660.18l-.71-.16.42-1.2.74.16Zm.73.74,1.59.35-2.17,5.64Zm.17-.68,4.17-11.07-.62,6.57-1.87,4.87ZM186.17,707.3l-.25,2.59-.12,0,0-.52a.36.36,0,0,0,0-.17s0-.07,0-.09,0,0-.06-.05-.06-.08-.11-.09h-.08Zm-.44,3.27.12,0-.19,1.89-.15.39Zm1.69,18.25,3.23-7.82-.58,6-.82,1.93-2.39,5.67Zm.29-3,2.14-21.92,3.28-8.5-.86,8.91L190.94,718Zm3.67-6.59,3.53-8.55-.6,6.29-1,2.4-2.49,5.91Zm.29-3,2.21-22.74,3.58-9.28-.94,9.76-1.32,13.68Zm4-7.28,3.86-9.36-.63,6.59-1.24,2.94-2.6,6.16Zm.3-3.06,2.27-23.62,3.92-10.16-1,10.71-1.3,13.68Zm4.29-8.08,4.24-10.26-.65,6.93-1.5,3.55-2.72,6.43Zm.3-3.09,2.34-24.54,4.3-11.15-1.11,11.79-1.29,13.6Zm4.68-8.94,4.65-11.29-.68,7.28-1.8,4.27-2.83,6.71Zm.29-3.14,2.42-25.55,4.72-12.25-1.21,13-1.27,13.48Zm5.1-9.93,5.14-12.44L215,667.9,212.88,673l-3,7Zm.3-3.18,2.49-26.64,5.21-13.49-1.33,14.37L216,657Zm5.58-11,5.68-13.76-.74,8.07-2.55,6-3.11,7.35Zm6.42-15.56,6.31-15.28-.77,8.53-3,7.17L222.16,651ZM230,625.8l2.82-6.84,35,8.88-.78,9.64-.25-.06.66-8.06a.42.42,0,0,0,0-.12.59.59,0,0,0,0-.13s-.05-.05-.08-.07-.05-.06-.08-.07l-10.27-2.59L255.2,626l-1.68-.42-16.38-4.14s0,0-.06,0l-.09,0-.08.08,0,0-2.25,5.24s0,0,0,.07,0,0,0,.06l-.22,2.51-2.63-.64h-.06l-.09,0-.05,0s0,0,0,0,0,0,0,0l-.05.05-2.29,5.41Zm1.83,5.27,297.77,73.16-.36,16.47-.16,7.51L229.11,660.88ZM533.53,763.65l-1.21,58.14-.42-.06,1.22-58.19.41.07Zm.51.42,19.71,3.85-.93,56.85-20-2.9Zm-2.66,57.59-.23,0-4-.59,0-1.22,0-.71.76-34.38,0-.7.46-21.06,4,.77h0l.09,0,.14-.07Zm-.28.67.5.07.94.14,20.51,3,.52.08h0a.22.22,0,0,0,.17-.1s0,0,0-.08a.35.35,0,0,0,.06-.14h0l.94-57.88s0,0,0,0a.35.35,0,0,1,0-.06.11.11,0,0,0,0,0s0,0,0-.06a.13.13,0,0,0-.06,0,.18.18,0,0,0-.07-.05l0,0-20.74-4-.93-.19-4.51-.88,0-.69,26.77,5.27-1,59.89-27.16-3.9,0-.73Zm-2.93-73.28L517,746.74l.26-10.7,11.35-6.62,0,1Zm0,1.4-.22,10.35,0,1.39v.35l-.47,21.07-11.27-2,.82-33.46Zm-11.67-3.64-13.63,7.61.28-10.13,13.61-7.94Zm0,1.46-.83,33.4-13.71,6.58.85-30.69v-.36h0l0-1.34Zm-3,141.24.87-35.09,11.48,1.33-.08,3.63L525,890.51Zm11.56,1.7v0l-11.58-1v0ZM513.84,853,500,857.43l0-1,.47-16.89.41-14.67h0l0-.87,13.8-5.49Zm.51.68v0L525.82,855h0Zm0-.72.86-34.55,11.37,1.67,0,1.23h0l0,1.43-.13,5.72-.32,14.35-.25,11.49Zm.87-35.25h0l8.59,1.27Zm-.5-.66-13.8,5.5.1-3.53,0-1.45.78-27.91,13.72-6.56ZM491.22,754v-.09l11,2.17,0,.71-11.58-2.26.41-.24,0,0,.05,0,0-.08a.39.39,0,0,0,0-.09s0,0,0,0Zm11.07.94v.43l-11-2.17V753a.45.45,0,0,0,0-.11.42.42,0,0,0,0-.12s-.06,0-.09-.07,0-.06-.07-.06l-1.69-.34,13.24-7.72Zm-11.57-1.62v.24l-2.34-.46h0l-.24-.05.31-.18Zm-1.21,7.38,1,.18v.24l-2.13-.41v-.23Zm-1.12-.93.13-4,.9.18-.12,4Zm1.2-5.4-.47.27-.58.34,0-1.13,1.42.28-.4.24Zm-1.25,7.06,1.41.26-.36.21s0,0,0,0a.24.24,0,0,0-.09.11l0,.09a.14.14,0,0,1,0,.07l-.62,20.6-.91-.15Zm.47,22.13,1,.18V784l-2.13-.36v-.25Zm-1.2-23.93-.69-.14.09-3.09.07-2,.7-.41Zm0,24.69,1.33.23-.26.13s0,0,0,.05a.22.22,0,0,0-.07.09.49.49,0,0,0,0,.11s0,0,0,.06l-.17,5.5-.91-.15Zm12.91,33.58,0,.75L489.31,817l0-.76Zm0,1.46-.1,3.69,0,.7h0l0,.75-11.22-1.56.15-5.19Zm-.57,39.52,13.87-4.39-.86,35.06-14,3.28.16-5.55v-.16l0-1.32v-.29Zm13,31.4h0l-9.12,2.12Zm-.39,37.06,11.68.63v0l-11.68-.64Zm0-.71.89-35.66,11.58,1-.78,35.32ZM524.29,948l.18.2,0,0s0,0,0,0l.31.16h0s0,0-.05,0,0,0-.06.05l-.06.1h-.4Zm7.72-58.9v.58l-4.11-.36v-.58Zm-4.14,1.07,4.11.35-1.2,58.32-4.17-.15ZM533,852.49s0,0,0,0-.08.05-.1.1,0,0,0,.08a.42.42,0,0,0,0,.12l-.15,6.95-6.35-.72.08-3.62h0v-.72l.26-11.48,25.89,3.28ZM515.25,817l.84-34,11.28,2-.74,33.69Zm13.86-86.87,0-.89,78.77,17.66v.78Zm.44-1.51.16-7.51,78.23,18.09,0,6h0v1ZM516.8,690.41v-.53l1.27.33,1.71.44.17,0,3.31.84,6.35,1.63.19,0,0,.51Zm3-10.14-.23,9.6-1.19-.3.24-9.62Zm-1.15-1.7.09-3.41,1.21-.87-.11,4.59ZM520.1,669l-1.21.88.1-4.08.65-.48.54.15Zm3.49,21.94.22-9.57,5.82,1.52-.21,9.54Zm6.07-9.42-5.81-1.54.2-8.59,5.93-4.27Zm.24-15.14-6.23,4.48a.13.13,0,0,1,0,0,.73.73,0,0,0,0,.09.25.25,0,0,0,0,.12l0,0-.21,9.1,0,.66-.23,9.88-2.79-.7.47-19.61,4.94-3.59s0,0,0,0a.29.29,0,0,0,.08-.13.21.21,0,0,0,0-.07v0a.25.25,0,0,0,0-.12s0-.08,0-.11h0a.24.24,0,0,0-.08-.09.16.16,0,0,0-.07-.07h0l-1.17-.33-.48-.13-3.29-.91-.17-.05h0l-.85-.23-2.19-.6,0-1.07Zm-5.88.55.4-.29.38.1-4,2.94v-.38Zm-3.22,1.55.07-2.83,2.76.77Zm-1.95-3.38-.24.17h0l-1.2.89,0-1.45Zm-.39,1.09-.1,4.08-1.07.78.1-4.07Zm.28,4.6,1.34-1v.37l-2.81,2v-.37Zm1.31.22-.06,2.51-1.61,1.15-1.21.87.07-2.49Zm-1.83,4.57-.07,3.1-1.07.76.07-3.09Zm-.11,4.58-.23,9.32-1-.27.21-8.29Zm-1.43-19.41-1.18-.33.13-5.37,0-.83,1.21-.94Zm-1.32-7.12-6.52-1.85-17.43-5L485,644.94l-2.15-.61,0-1.17,33.55,9.61Zm-5.47,5.23-1-.29,0-1.69.12-4.33,6.1,1.74v.54Zm5.21-3.2-.12,4.62L510.67,659Zm-27.4-5,3.7-3.08,17.11,4.87-.1,4Zm20.69,6.54,0,1.27-22.48-6.28,1.18-1Zm-24.14-11.67-1.49,1.27.05-1.67Zm.73.21,5.68,1.62-3.8,3.17h0l-1.72,1.44-2.52-.7.12-3.61Zm.14,7,23.43,6.54,1.33.38,5.3,1.47,1.48.42v.51l-34.08-9.49v-.54Zm31.51,10L516,689l-1.19-.31.16-6.48h0l0-.67.1-3.88.08-3.29,0-1.18.13-4.85.08-3.38,0-1.17v0a0,0,0,0,0,0,0c0-.05,0-.07,0-.1a.5.5,0,0,0,0-.13.27.27,0,0,0-.08-.07s0-.06-.07-.06l-8.1-2.24h0l-24.57-6.79,0-1.12Zm-10.33-1.06-1.32,1s0,0,0,0a.17.17,0,0,0-.06.1.28.28,0,0,0,0,.12v0l-.24,8.35L489.89,682.3l-8.24-2.11.83-25.19ZM481.73,651l-1.07-.29,0-1.53.16-4.87,1.11-1Zm-1.17-7.27-15-4.27-19.74-5.62.05-1.22,35.7,10.22Zm-1.79,6.45-17.22-4.8.06-1.58,4-3.62,14.76,4.21-.15,4.57Zm1.39-.36,0,.74-.64-.18Zm-15.29-9.84-3.57,3.24-15.66-4.4.17-4.26Zm-3.78,3.91,0,1.34-15.49-4.32.06-1.37Zm.14,2.12,17.53,4.89,1.57.43,1.38.39,0,.53L445.5,642.14l0-.57Zm20.43,7L480.77,680l-1.08-.28.77-23.26h0l.08-2.4a.38.38,0,0,0,0-.1.35.35,0,0,0,0-.12s-.05-.05-.08-.07,0-.06-.07-.07l-4.23-1.17-14.89-4.12L445.42,644l.05-1.17Zm-5.56.31,3.91,1.08-.06,1.91-13.34,11.13-5.41-1.42Zm-15.31,12.21.62-16.27L475.36,653Zm.1-16.41-.64,17.06s0,.06,0,.1,0,.07,0,.1h0v0l0,0a.23.23,0,0,0,.11.07l0,0,6.16,1.62h.05a.19.19,0,0,0,.13-.06l13.12-10.94-.75,22.48-34.85-8.89,1.07-25.93Zm-16.24-8.43-.95-.26.07-1.78.21-4.82,1-1Zm-1-7.43L406.54,622.6l.06-1.28,38,10.89Zm-4.84,3.69.18-4.12a.45.45,0,0,0,0-.11.22.22,0,0,0,0-.08l4.49,1.28-.18,4.28Zm4.42,2-.06,1.37L438.73,639l.06-1.38ZM438.47,633l-.18,4.12-.07,1.69-32.05-8.95.3-6Zm-.06,6.58,5,1.39,1.25.35,0,.57-38.5-10.7,0-.62Zm6.16,3-1.16,27.83-1-.24,1.1-26.39a.44.44,0,0,0,0-.1.42.42,0,0,0,0-.12.32.32,0,0,0-.09-.08l-.06-.06-5-1.37-32.36-9,.06-1.22Zm-6.52.1-1,23-32.28-8.32L406,633.83Zm-32.8-13.11-.81-.22.32-6.38h0l0-.44.87-1Zm-.79-7.6-39.77-11.33.08-1.33L405.38,621Zm-.23,1.26-.31,6-39.68-11.08.37-6.16Zm-.12,6.75,1.1.31,0,.61-41-11.41,0-.66Zm1,1.63-1.45,28.67-.82-.22.12-2.52h0l0-.28L404.26,633a.29.29,0,0,0,0-.1.5.5,0,0,0,0-.13s-.05-.05-.08-.08,0,0-.07-.06l-40-11.06.07-1.29Zm-1.43,1.57-1.2,23.62-7.69-2,.15-2.79.09-1.78.19-3.56s0-.06,0-.1a.5.5,0,0,0,0-.13.27.27,0,0,0-.08-.07l-.07-.07-32-8.45.94-15.67Zm-40.43-15.32-.65-.18.4-6.56,0-.49.71-.95Zm-.56-7.77L320,598l.1-1.4L363.57,609Zm-.23,1.28-.37,6.16L319.5,605.67l.45-6.38Zm-.19,6.94.94.26,0,.66L319.4,607.07l.05-.7Zm.86,1.63-1.78,29.54-.66-.17.37-6.08.11-1.82.22-3.65,1-16.4a.45.45,0,0,0,0-.11.19.19,0,0,0,0-.13s-.05,0-.08-.07,0-.06-.07-.06l-42.95-11.89.09-1.35Zm-1.29,1.67-.95,15.7L318.07,626l1.14-16.18Zm-43.36-16.25-.45-.12.47-6.78,0-.52.53-.85Zm-.29-7.95-2.07-.58-1.41-.4-8.06-2.3-1.27-.37-33.11-9.43.12-1.47L319,596.22ZM305,595l1.27.37,8.05,2.28,1.41.41,2.28.64-.45,6.38-45.89-12.8.54-6.6Zm12.74,10.85.74.21-.05.7-46.88-13,.06-.74Zm.64,1.62L316.23,638l-.47-.12.18-2.52.13-1.88.14-1.88.13-1.88.26-3.76,1.2-16.9a.45.45,0,0,0,0-.11.19.19,0,0,0,0-.13s-.05,0-.08-.07a.16.16,0,0,0-.07-.07l-46.22-12.78.12-1.42Zm-1.11,1.79-1.15,16.21L270,613.31l1.36-16.72ZM270.65,592l-.23-.06.57-7,0-.57.3-.62Zm0-8.14-29.44-8.39a.45.45,0,0,1-.16,0l-.08.08,0,0-.24.62-1.94,5L234.19,580l2.75-7.28,34.35,9.84Zm4.92-114.17L360,497.83,307,590.64l-69.69-20ZM360.52,498l1,.33L308.31,591l-.72-.21Zm1.55.52,9.21,3.06-54.86,91.74-7.54-2.17Zm-.2-.8-1-.33,1.66-2.91,1,.34Zm-1.55-.52-84.5-28.14,1.64-4.32L362,494.3Zm-85-28.31-5-1.68,1.56-4.43,5.11,1.79Zm-5.55-1.85-47.46-15.81,1.46-5.26,47.57,16.63Zm-.23.65L232.19,573.62,191.5,562.05l30.6-110.13ZM232,574.27l-12.48,35.41L181,599.77l10.29-37Zm-12.71,36.07-1.49,4.23-22-5.59.29-3a.3.3,0,0,0,0-.13.42.42,0,0,0,0-.12.2.2,0,0,0-.08-.08s0-.06-.08-.06l-15.33-3.93.35-1.24Zm-23.78-4.09-.29,3,0,.29-15.73-4,.88-3.16Zm-2.42,4.12-.18.6-.16,0,0-.31.09-.3Zm-.74-.19-.06.21s0,0,0,.05,0,0,0,0l0,.32-13.32-3.36.18-.61Zm.06,1.38h0l.61.15,1.77.45.14,0-.32,3.28-16.75-4.19.88-3.17Zm.09,4.77-.19.6-.15,0,0-.4.07-.23Zm-.75-.19-.05.14s0,0,0,0,0,0,0,0l0,.41-14.33-3.55.17-.63Zm.07,1.4.6.14,1.78.44.14,0-.32,3.28-17.77-4.36.88-3.19Zm.08,4.75-.19.64-.14,0,.05-.49,0-.16Zm-.76-.17,0,0v.05a.05.05,0,0,1,0,0l-.05.5L175.67,619l.18-.64Zm.09,1.41.6.14,1.77.44.15,0-.32,3.3-18.8-4.55.89-3.19Zm.08,4.76-.2.63-.14,0,.06-.58,0-.09Zm-.77-.19s0,0,0,0,0,0,0,0l-.06.59-16.37-3.93.18-.66Zm.1,1.43h0l.58.13h0l1.77.43.16,0-.32,3.3L173,628.74l.89-3.23Zm.08,4.76-.21.66-.13,0,.06-.66v0Zm-.79-.18-.07.69-17.4-4.11.19-.67Zm.11,1.45h0l.57.13,1.78.42.17,0-.33,3.32-20.86-4.87.9-3.23Zm.08,4.75-.21.68-.13,0,.07-.71Zm-.79-.18-.06.71-18.44-4.28.2-.69Zm.11,1.47h0l.56.13,1.78.41h0l.18,0-.33,3.33-21.91-5,.91-3.25Zm.08,4.75-.22.69-.12,0,.07-.72Zm-.78-.17-.08.71-19.47-4.43.2-.71Zm.11,1.47h0l.55.13,1.79.4.18.05-.33,3.34-22.95-5.17.91-3.27Zm.07,4.76-.23.69-.11,0,.07-.73Zm-.78-.17L188,653l-20.51-4.59.2-.72Zm.1,1.48.57.13,1.79.4.19,0-.33,3.35-24-5.3.91-3.29Zm.08,4.76-.24.71-.11,0,.08-.75Zm-.79-.17-.07.74-21.56-4.73.2-.73Zm.11,1.5.56.12,1.79.39.2,0-.33,3.36-25.07-5.43.92-3.31Zm.07,4.75-.24.73-.1,0,.08-.76Zm-.78-.16-.07.75-22.62-4.86.21-.76Zm.11,1.51h0l.55.12,1.79.39h0l.21,0-.33,3.37-26.13-5.55L164,661Zm.07,4.76-.25.74-.1,0,.08-.78Zm-.78-.16-.08.77-23.68-5,.22-.77Zm.1,1.53h0l.53.11,1.8.38h0l.22.05-.34,3.38-27.19-5.67.93-3.33Zm.07,4.75-.26.76-.08,0,.08-.8Zm-.78-.16-.08.8-24.74-5.13.22-.79Zm.1,1.55h0l.53.1h0l1.8.38.22.05L188,682.1l-28.27-5.78.93-3.34Zm.07,4.75-.27.77h-.07l.08-.81Zm-.78-.17-.08.82-25.81-5.24.23-.81Zm.11,1.57h0l.52.1,1.8.37.24.05-.34,3.41-29.34-5.88L159,679Zm.06,4.75-.28.79h-.07L185,689Zm-.78-.16-.08.84-26.88-5.35.23-.82Zm.11,1.58h0l.5.1,1.81.37h0l.24,0-.33,3.42-30.43-6,.94-3.39Zm.06,4.75-.29.81h-.06l.09-.85Zm-.78-.15-.08.84-28-5.44.24-.84Zm.1,1.59h0l.49.09h0l1.81.35.25.05-.33,3.43-31.52-6,1-3.4Zm.07,4.75-.3.82h-.05l.08-.86Zm-.78-.15-.09.86-29.05-5.53.24-.86Zm.1,1.61.49.1,1.81.34.27,0-.3,3.13h0l0,.31L153,700.71l.95-3.41Zm.06,4.75-.31.83h0l.09-.87Zm-.78-.15-.08.87-30.14-5.61.24-.87Zm.1,1.62.48.1h0l1.81.33.1,0h0l.18,0-.05.53-.29,2.93-33.71-6.19,1-3.43Zm.06,4.75-.32.85h0l.09-.89Zm-.78-.14-.08.89-31.24-5.69.25-.89Zm.1,1.64h0l.46.09h0l1.82.32h0l.3.06-.25,2.48-.09,1-34.81-6.24,1-3.45Zm.06,4.74-.33.86h0l.09-.91Zm-.77-.14-.09.91L149,715.13l.26-.91Zm.1,1.66.45.08h0l1.82.32.3.05-.34,3.48-35.92-6.3,1-3.45Zm0,4.73-.34.88h0l.09-.92Zm-.77-.13-.09.92-33.44-5.8.25-.94Zm.1,1.67h0l.44.08,1.83.32.32.06-.35,3.48-37-6.33,1-3.49Zm0,4.75-.35.85.09-.9Zm-.77-.14-.1.94-34.55-5.86.26-1Zm.09,1.68h0l.43.07h0l1.83.31.34.06-.34,3.5-38.16-6.36,1-3.5Zm0,4.75-.34.83.09-.88Zm-.77-.13-.09,1-35.68-5.91.27-1Zm.1,1.69h0l.42.07,1.83.31h.07l.28.05-.11,1.09h0l-.24,2.42-39.28-6.39,1-3.51Zm0,4.74-.33.81.08-.84Zm-.76-.12-.1,1L142,740.17l.28-1Zm.09,1.72h0l.39.06h0l1.84.29.68.12H182l-1.62,16.46-43.12-6.45,4.59-16.49Zm3.52.28,48.64-114.78-2.58,28.71L181.78,764l-.91-.14Zm268.12,38.44.27-6.92h0l.13-3.33,0-.87,1.33-34.27.38-.41.92-.42,1.35-.33,1.66-.17,1.86,0,1.94.14h0l1.82.29,1.66.43,1.3.51.87.55.35.46-.88,24.41-.48,13.56,0,1,0,.86-.06,1.69,0,.89-.06,1.83-.05,1.27-.17-.06h0l-2.53-.53h0l-2.85-.36h0l-3-.18h0l-2.88,0h0s0,0,0,0l-2.58.22h0l-.18,0Zm14.92-2.63.1,0v0s0,0-.05.07,0,0,0,.07h0Zm0-.77,0-.75.32.05-.19.61Zm.05-1.46v-.15l21.22,3.63-.19,6-.7-.11.11-3.56.06-1.81v-.19a.53.53,0,0,0,0-.12.42.42,0,0,0,0-.12.13.13,0,0,0-.09-.06s0-.06-.08-.07l-1.11-.19-10.67-1.81-2.58-.44-.11,0-.43-.07-2.57-.43-.23,0-1.65-.27-.23-.05Zm19.79,5.62h0l-5.48,2.76-1.49-.24,7.14-3.63,0,1Zm.11.71-.09,3h0l-4.37-.72Zm-.74-2.36.27.05-7.74,3.93-.24,0ZM476,788.42l-1.8-.3.18-5.23,9.34,1.59Zm-2.14-5.62-.18,5.23-2.06-.33.17-5.25Zm-2.7-.43-.18,5.22-1.36-.22Zm-3.33-.59-.26.86-1.11-.19.27-.86Zm-1.65,1.87,1,.17-.92,3-.21,0Zm2.43-1.74,2,.35-1.55,5-2-.34Zm.6,6.1,2,.33.11,0h0l2.58.43,2.11.34,1.37.23,2.61.44,5.42.89.3,0,1.22.21.27,0,1.43.23,1,.17v.25l-21.2-3.49-.08-.09h0l0,0-.44-.22ZM489,810.67l-.15,5.2h0l-.05,1.47-.18,5.89-.18,6.17-20.66-2.75.66-19.06ZM487.29,830l-2.37.94-17.23-2.27,0-1.28Zm-2.37,1.65,3.41.45-.09,3.21-20.69-2.66.11-3.28Zm-5.81,3.52,6,.76-1.84.71-6-.76Zm-3.24.53-.87-.11,1.82-.71.88.11Zm-.46-1-1.82.71-6.11-.77,0-1Zm-1.82,1.42,2.28.29,7.39.94,1.33.17,3.57.45v.1h0l-.09,3.12-20.72-2.57.11-3.28Zm5,4.92,6.24.78-1.95.71-6.22-.76Zm-3.4.55-1-.12,1.93-.73,1,.12Zm-7.64-1.92,5.83.73-1.92.73-4.23-.52,0-.82Zm3.91,2.17,1.31.17,2.42.28,7.69,1,1.33.16,3.73.46-.1,3.23-20.75-2.47.12-3.29Zm6.61,5.09,6.52.77-2.07.73-6.49-.76Zm-3.56.57-1.06-.13,2-.75,1.07.13Zm-1.85-1.22-2,.76-3.6-.43,0-1Zm-2,1.47,1.31.15,2.58.3,8,.94,1.34.16,3.9.46-.1,3.23-20.78-2.37.12-3.3Zm6.91,5.08,6.81.77-2.19.75-6.78-.76Zm-3.29.42-1.17-.13,1.7-.59,1.18.12Zm-2.35-1.06-2.16.77-2.92-.33,0-1Zm-2.16,1.48,1.31.14,2.74.31,8.37.94,1.34.15,4.09.46-.1,3.25-20.81-2.27.12-3.32Zm16.34,5.8-.1,0s0,0,0,0h.09Zm-9.11-.72,7.13.78-2.33.75-7.1-.76Zm-3.95.59-1.29-.13,2.29-.78,1.3.15Zm-1.94-1.23-2.29.78-2.18-.23,0-1Zm-2.29,1.49,1.31.14,2.92.32,8.76.94,1.34.14,4.29.46-.1,3.26-20.84-2.18.12-3.32Zm17,5.81h0v0Zm-9.48-.72,7.5.78-2.49.77-7.46-.77Zm-4.16.6-1.41-.14,2.43-.79,1.43.15Zm-2-1.24-2.44.79-1.36-.14,0-1Zm-2.44,1.5,1.31.13,3.12.32,9.18.94,1.34.14,4.52.46-.1,3.27-20.87-2.07.12-3.34Zm1.49,4.44-3.07,1,.05-1.25Zm3.09.31,1.57.15-7.79,2.39,0-.62Zm3.36.33,7.88.79L466,876.59l.1-3.05Zm11.74.91,0,0,.07,0a.09.09,0,0,0,0,0,.36.36,0,0,0,0-.11s0,0,0-.08h0l.12-4a.5.5,0,0,0,0-.13.28.28,0,0,0,0-.12s-.06,0-.1-.06,0,0-.07,0h0l-3-.31,3.15-1s0,0,.05-.06.05,0,.07,0,0,0,0,0a.29.29,0,0,0,0-.11s0,0,0-.08h0l.12-4a.7.7,0,0,0,0-.14.35.35,0,0,1,0-.11s-.07,0-.1-.06-.05-.05-.08-.05h0l-2.89-.32,3-1s0,0,.05-.05.05,0,.07,0l0,0a.29.29,0,0,0,0-.11.15.15,0,0,0,0-.08h0l.12-3.78,11.31,1.26,0,1.12,0,.7-.74,26.53-32.85-2.9.15-4.37Zm11.18,14.61,0,.62-18.54-1.61h0l-.92-.08h0l-13.41-1.17,0-.65Zm-18.85-.31-1.94,61.07h-.41l2-61.1Zm-1.08.05h.06l.1,0-1.95,61h-.17l-13.18-.48,2.15-61.62Zm-.34,61,1.94-60.9,18.28,1.59-.15,5.64,0,.72-1,35.18,0,.72-.49,17.72Zm19.07,1.05.49-17.77L512,928.1l-.8,32.3-14.08-.23Zm15.06-19.87,11.68.63-.41,18.54,0,1.64-.26,11.72-11.78-.2Zm11.75,21.19.54,0,.72,0,.81,0,4.69.17,21.47.78,3.72.13h.68l.82,0,14.61.53h0l.48,0,.8,0,19.55.71.5,0,.77,0,1,0,3.05.12,4.55.16,4,.15,0,9.07-28.74-.15-48-.48-6.17-.1Zm74.47,2,.36-56.15,4-.73-.31,57Zm4.55.17.31-57.15,3.64-.68,0,8.55v.64l-.15,32v.66L607,951.56Zm0-57.82-4.47.84-.43,0,8.84-1.66v.14Zm-7.2.52V894h0l.18-26.47,11.09-2.67,0,5h0v.63l-.09,21.5ZM596,866.91l-38.19-4.3.24-15.39,49.37,6.25-.06,10.71Zm-38.18-20.42-3.63-.47-27.57-3.49.3-13.64,80.56,11.19-.06,12.69Zm49.66,105.44h0l.08-16.11,16.12-1.72,0,27.34-16.21-.09Zm.09-17.5.14-31.34,16-2.68,0,32.3Zm.15-32.7,0-8.54v-.85l.1-21.51,15.9-3.63,0,31.82Zm.14-32.25,0-5,.05-11.33.06-13.39h0V839l15.79-4.56,0,31.37Zm.15-31.82v-4.57l.12-25.46,15.67-5.46,0,30.91Zm.14-31.38.13-28.12v-1.49l15.57-6.33,0,30.46Zm.14-31,.13-27.18v-2l15.46-7.17,0,30Zm.14-30.55,0-5.84.1-22.95,15.36-8,0,29.61Zm.14-30.15.11-23.06,3-1.72,12.26-7,0,23.71Zm2.87-53-.09,23.74-26.29-7.38Zm-27.32,16.17-23.18,14.37L556.56,691l54.9-34.57,0,4.41Zm-266.27-84-.85-.24,54.84-91.72,1.15.38ZM374,498.54l1.31.48-1.48,2.41Zm1.45-.2v-.07l-1.41-.5,1.31-22,11.46,4.46-11.15,18.19Zm-.56-23.61-.85-.32,1-1.7Zm-.15.68-10.81,18.82-1-.34L373.65,475ZM366,487.34l-3.63,6.36L277.7,464.12l8.3-21.89,87.05,32.56-7.12,12.52Zm-88.78-23.4-5.12-1.8,7.83-22.2,5.6,2.09Zm-5.63-2-47.62-16.64,6.63-23.85,48.82,18.27Zm-48.13-16.82-11.43-4,6-24.39,12.08,4.52ZM211.48,441l-20.84-7.29,4.55-25.44,22.28,8.33Zm-.16.67-1.17,4.79h0l-.17.7-20.54-6.84,1.06-5.93Zm-.6,4.72s0,0,0,0l1.11-4.51,11.41,4-1.46,5.27-11.29-3.76Zm10.87,5.37L191,561.9l-7.66-2.18,27-111.72ZM190.8,562.57l-10.31,37.07L174.06,598l9.09-37.58Zm-10.49,37.74-.35,1.24-6.36-1.63.3-1.26Zm-.53,1.91-.88,3.17-6.24-1.59.77-3.2Zm-1.25,4.48-.17.61-6.17-1.56.15-.62Zm-.35,1.28-.89,3.18-6-1.51.78-3.22Zm-1.25,4.48-.17.63-6-1.49.15-.63Zm-.36,1.3-.89,3.19-5.85-1.43.78-3.24Zm-1.25,4.49-.17.64-5.8-1.41.16-.66Zm-.36,1.31-.89,3.21-5.67-1.37.79-3.24Zm-1.25,4.49-.18.66-5.6-1.34.16-.67Zm-.37,1.34-.9,3.22L167,627.32l.79-3.27Zm-1.25,4.5-.19.67-5.41-1.27.17-.69Zm-.38,1.36-.9,3.22-5.27-1.23.79-3.27Zm-1.25,4.5-.19.69-5.21-1.21.17-.7Zm-.38,1.37-.9,3.25-5.08-1.16.8-3.3Zm-1.25,4.51-.2.71-5-1.15.17-.72Zm-.39,1.38-.91,3.27-4.88-1.1.8-3.31Zm-1.25,4.52-.21.73-4.81-1.08.18-.73Zm-.39,1.4-.92,3.29-4.68-1,.81-3.32Zm-1.26,4.54-.21.74-4.61-1,.18-.75Zm-.39,1.41-.92,3.3-4.49-1,.81-3.34Zm-1.27,4.54-.21.75-4.41-.95.18-.76Zm-.39,1.43-.92,3.32-4.29-.91.81-3.36Zm-1.27,4.55-.21.77-4.22-.89.19-.79Zm-.4,1.44-.93,3.34-4.07-.85.81-3.37Zm-1.26,4.56-.22.79-4-.83.2-.8Zm-.41,1.47-.93,3.35-3.88-.8.82-3.38Zm-1.27,4.56-.22.81-3.81-.78.2-.82Zm-.41,1.48-.94,3.37-3.67-.74.82-3.4Zm-1.27,4.56-.23.83-3.6-.71.2-.84Zm-.42,1.5-.94,3.39-3.46-.67.82-3.43Zm-1.27,4.59-.23.84-3.4-.67.21-.85Zm-.42,1.51-1,3.41-3.25-.63.83-3.43Zm-1.28,4.58-.23.87-3.19-.61.21-.87Zm-.42,1.54-.95,3.42-3.05-.57.83-3.45Zm-1.28,4.6-.24.87-3-.56.21-.88Zm-.43,1.55-1,3.44-2.84-.52.83-3.47Zm-1.28,4.6-.25.89-2.77-.51.22-.89Zm-.43,1.57L149,713l-2.63-.47.84-3.48Zm-1.29,4.61-.25.91-2.56-.46.23-.91Zm-.44,1.59-1,3.47-2.42-.43.85-3.49ZM147,720.32l-.26.93-2.34-.4.23-.94Zm-.45,1.61-1,3.49-2.21-.38.85-3.51Zm-1.28,4.62-.26,1-2.13-.36.23-.95Zm-.45,1.63-1,3.5-2-.33.85-3.53Zm-1.29,4.63-.27,1-1.91-.31.23-1Zm-.46,1.65-1,3.52-1.77-.29.85-3.55Zm-1.29,4.63-.27,1-1.7-.26.24-1Zm-.46,1.67-4.58,16.49-1.1-.17,4-16.59ZM137,758l43.5,6.51h0l1.33.2,33.22,5L226,771.33l-1.14,13-91.6-12.84Zm89.54,13h0a.24.24,0,0,0,0-.14s0-.08,0-.11-.05,0-.07-.06-.06-.07-.1-.08h0l-10.71-1.6,40.9-66.58-2.29,27.61L249.63,786l-.15,1.87-24.08-3.37Zm28.18-40.77,9.34-13.89-4.65,57.65-9.23,11.07Zm5.17,44.32,30.8,4.64-.6,8.07h0l-3.2,43.38-.15,2h0v.15l-.36,4.88-31.31-3.4Zm26.43,63.81-4.43,60-31.84-2.09L255,835Zm-36.8,58-8.95,5,4.79-57.95,9.09-8.1Zm.47.62,31.85,2.09-2,27.06-.55,7.34-.55,7.55-.58,7.77-.4,5.43-.47,6.46-32.39-.69Zm27.62,66.38,161.47,3.24-.29,7.33L277,971.79ZM438.8,974.71l-.3,7.63L276.34,981.2l.64-8.71Zm-.33,8.34-.32,7.94-162.53,0,.67-9.05Zm-.08,8.65h1.75c.14,0,.26-.16.26-.35s-.12-.35-.26-.35h-1.46l.33-8.27.33-8.34.32-8,.3-7.75.51-12.71.12-3,.06-1.52h0v-.07h0l.12-3.2.06-1.51h0v-.08l.12-3.2.06-1.5v-.09h0l.13-3.19.05-1.49v-.1l.12-3.19.06-1.47h0v-.12l.13-3.18.05-1.46v-.12h0l.12-3.17.06-1.47v-.12l.12-3.17L442,908h0v-.13l.12-3.16.06-1.44v-.14l.13-3.15.06-1.43v-.14l.13-3.15.05-1.42h0v-.15h0l.12-3.14h0l.06-1.41v-.16h0l.12-3.13h0l.06-1.39h0v-.06l0-.47.14-3.57,0-.58v-.18l0-.51,0-.51.14-3.55h0v-.09l0-1.15,0-.52.14-3.55.05-1.22,0-.55.14-3.54,0-1.19h0l0-.56.14-3.54,0-1.16,0-.6.14-3.52,0-.62,0-.52,0-.62.14-3.51,0-1.11.93-23.4.8-20.11.64-15.9.61-.55,1.42-.54,1.59-.31h0l.49-.09,2.55-.22h0l2.87,0,3,.18,2.84.37,2.51.52.47.15,1.55.49,1.35.71.11.11h0l.45.48-.62,17.93-.7,19.76-.06,2-.14,4,0,.33-.05,1.65-.14,4v.32h0v.27l-.05,1.41-.14,4v.31l-.06,1.7-.14,4v.29l-.06,1.71-.14,4v.28h0l-.06,1.73-.14,4v.27L465.9,865l-.14,4v.26h0l-.08,2.08v.53l-.05,1.36-.13,3.78,0,.51-.18,5v.3h0l0,1.36v.15h0L463,946.68l-.43,12.48-.27,7.61-.27,7.89-.29,8.19-.3,8.48-.31,8.94-.51,0-1.5,0-2.16,0-2.68,0h-3l-3.12,0h-5.7l-2.18,0h-.55l-164.94,1.2.74-9.89Zm23.9-8.48,31.27.22h0l5,0-.2,7.53H462Zm31-.48-31-.23.25-7.47,26.12.35h0l4.82.07Zm376.89-87v.11h0l1.17,22.63-48-4.2-1.31-31.92,47.72,6L870,892l0,.47.07,1.51,0,.23h0Zm61.32,66L874,959.59l0-.71,9.73.39.95,0,16.42.66,15.78.63,13.29.53,1,0h0s0,0,.07,0a.28.28,0,0,0,.09-.07.35.35,0,0,0,0-.11s0-.07,0-.12h0v0l-3.82-60.14s0-.09,0-.13l0-.08a.26.26,0,0,0-.11-.07s0,0-.06,0l-14.13-1.67-15.64-1.83-16.27-1.92-10.65-1.25,0-.81,57,6.81Zm-3.43-62.13,1.35-.15,4,62.35-1.4-.06ZM821.58,882.37l1.31,31.92-3.25.34-1.29-31.78Zm-3.26-.23-1.26-31.33,3.19-.62,1.3,31.48Zm4.6,32.86,1.33,32.38-3.28.19-1.31-32.23Zm.52,0,48,4.21L873,949.79l-48.21-2.41Zm.84,33.09.68,16.43-3.32-.13L821,948.28Zm.53,0L873,950.5l.34,6.57.08,1.47.07,1.41.33,6.28v.33l-31.72-.94-16.33-1.07h-.31Zm48.72,2-1.61-31.28-1.17-22.63,8.94,1,3.19,59.83-9-.38Zm-2.82-54.73,0-.8,9.4,1.1,0,.78Zm45.81,63.47.06,1-15.25-.61-3.53-61.7,15.12,1.77.08,1.36v.1h0Zm13.35,1.54-12.76-.51,0-.69,11.9.5.47,0h0s0,0,.07-.05.07,0,.09-.07a.36.36,0,0,0,0-.11s0-.07,0-.11v0l-3.62-57.25,0-.07,0,0s0-.06,0-.08-.06-.07-.11-.08a.07.07,0,0,0,0,0l-12.36-1.43,0-.72,12.65,1.48Zm-3.24-59.31.42,0,3.77,59.39-.43,0ZM917,958.5l-3.47-57.34,11.58,1.34L928.69,959Zm-16.21.75-15.9-.63-3.38-63,15.74,1.85Zm-16.42-.66H884l-.06-1.15-3.25-60.59h0l-.06-1.14.42-.05Zm-1.24-.79h.25l0,.76-9.49-.39,0-.76Zm-61.08-76.14-1.3-31.47,47.48,7.65,1.54,29.77Zm-1.33-32.18-.89-21.54,47.32,8.81.06,1.14,1,19.24Zm-.52,0-3.2.61-.86-21.46,3.17-.7Zm-3.7,1,1.29,32L819.13,915,820.46,948l.66,16.28-1.77.06-13.08-.51h0l-14.7-.4-.13-3.78,9.35-.42h0l.09-.06s.06,0,.09-.06a.37.37,0,0,0,0-.15.36.36,0,0,0,0-.1h0l0-1.49h0l-2.4-66.56v-.2l-.06-1.56v-.41h0a.3.3,0,0,0-.06-.14l0-.08s0,0-.08,0-.07-.06-.1-.05h0L789,889.58l-1.86-54.52,28.46-6.3Zm-18.44,40.65L800.46,957l-9.1.44-2.21-65Zm-9,.35,0-.84,8.93-1.27,0,.85Zm11.37,66.19,0,.77-9.1.41,0-.75ZM788.54,890v.4l.06,1.55h0v.19l2.24,65.69,0,1.47.14,4.08-2.95-.08L783.4,822.7l2.86.53.39,11.54Zm117.11-65.31s0,0,0,0l-3.48-58v0s0,0,0-.06a.19.19,0,0,0,0-.1l0,0s0,0-.05,0l0,0-10-2.81-11.23-3.16-11.5-3.24h0l-5.73-1.62,0-.69,38.76,11L905.79,825l-.28-.06.07-.05a.25.25,0,0,0,0-.09,1,1,0,0,0,0-.1S905.65,824.69,905.65,824.68Zm-36.18-66.85,11,3.1,3.26,58.82-11.12-2.33Zm2.61,59.48-.41-.08,0-.78-3-57.41-.06-1.11.38-.11ZM881,761.08l10.69,3,0,.25.07,1.37h0l0,.25,3.2,55.58,0,.58-10.8-2.27Zm11.34,5.3,7.44,2.07L903,822.8l-7.49-1.59Zm10.91,57.19.47.1h.06s0,0,.05,0a.15.15,0,0,0,.11-.07.19.19,0,0,0,0-.09,1,1,0,0,0,0-.1v0s0,0,0,0L900.74,768v0s0,0,0-.05a.23.23,0,0,0,0-.1s0,0,0-.06l0,0,0,0-8.24-2.3,0-.65,8.52,2.4,3.4,56.9-8.6-1.81,0-.3Zm-2-56.44.38-.1,3.43,57.22-.41-.09Zm-86.95,17.09-1.21-30,3.1-1,1.25,30.13Zm0,13.25,0,.71-1.49-.32Zm-.09-2.39-3.17-.71-.11-3,1.51.34h.1l1.51-.41Zm-.25-6.21-1.4-.32,1.37-.38Zm49.45-23.77-46.73-12.63-1.23-29.7L862,736.92l.84,16.32.06,1.08.07,1.42,0,.54.07,1.42V758h0Zm-.07-11.44L903,764.92l-.52.14-39-11.06Zm-47.19-1.17-3.1,1-1.19-29.59,3.07-1.12Zm.55.71,46.75,12.63L865,794.39l-47-11.07Zm46.8,3.49,4.46,1.25,0,.68-4.47-1.24Zm39.18,9,1.29-.36,3.62,60.06-1.35-.28Zm-39.37-12.79-.84-16.31-.74-14.24,40.43,13L904,764.48ZM862,736.18,815.49,722l-.72-17.33,46.38,15,.11,2.2Zm-47-14.12-3.06,1.12-.7-17.27,3-1.19Zm-3.57,1.59L812.62,754l1.24,30.71,0,1.1-3.15-.73L809,740l0,0v0s0,0,0-.06a.63.63,0,0,0-.07-.12.19.19,0,0,0-.1-.05.15.15,0,0,0-.07,0h0l-17.32,6s0,0-.06,0-.06.05-.08.09a.83.83,0,0,0,0,.12s0,.06,0,.1l1.25,34.82-7.08-1.64-2.13-62.28,27.54-10.74Zm-18.08,24,14.33-4.9,1.66,42-14.77-3.42Zm.7,33.55-.26-.06-1.2-33.54.24.07Zm14.14-38.93,0-.47s0,0,0,0v0s0-.05,0-.08a.39.39,0,0,0-.06-.11s-.06,0-.1,0,0,0-.06,0,0,0,0,0,0,0,0,0l-15.6,5.34,0,0a.13.13,0,0,0-.06,0,.1.1,0,0,0,0,0,.26.26,0,0,0,0,.08s0,0,0,0,0,0,0,.05v0L793.22,781l-.34-.08-1.24-34.69,16.81-5.79,1.77,44.5-.39-.09Zm-15.56,39.32.87.2.78.18,15.29,3.54.92.21,3.48.81,0,.83-28.63-6.59,0-.87Zm20.24,6.22-.41.12-1.78-.42-.92-.2-15.31-3.5-.77-.19-.88-.19-7.39-1.7v-.23Zm-20.13-3,.87.2.78.17,15.31,3.49h0l.91.22,3.49.79,0,.83-28.65-6.49,0-.88Zm20.23,6.15-.38.1-1.79-.39-.92-.22-15.31-3.45-.78-.17h0l-.87-.2h0l-7.41-1.67v-.22Zm-2.34,3.38-.39-.08-.13-3,.4.09Zm-.92-.19-14.8-3.28-.11-3.1L809.55,791Zm-15.32-3.39-.26-.06-.11-3.1.26,0Zm-.78-.18-.35-.07-.11-3.11.35.07Zm-1-3.3.11,3.11-7.1-1.57-.1-3.14Zm.34,3.87.87.2.78.18h0l15.33,3.38.91.2,3.49.78,0,.83-28.68-6.3,0-.88Zm20.21,6-.34.09-1.8-.39-.91-.21-15.33-3.34-.78-.17-.88-.2-7.41-1.62v-.19Zm-20.09-2.84.87.19.77.18L810,798l.91.2,3.5.76,0,.83-28.69-6.2,0-.88Zm16.76,11.55-14.71-3.06-.79-.16-.87-.19L786,800.84v-.15l27.43,5.74-.27.06-1.8-.37Zm.85.9-.89-.19h0Zm-2.44-.51h0l-12.89-2.67v0Zm-13.41-2.8v0l-.26-.06h0Zm-.78-.16h0l-.35-.07h0Zm-.88-.19v0L786,801.58v0Zm20,4.17h0l1.53-.38,0,.72-1.63-.34ZM786,800l0-.89,7.31,1.54.88.19h0l.78.16,15.35,3.24.92.19h0l3.48.74,0,.84Zm24.22-.29-15.35-3.29-.77-.17-.87-.19-7.42-1.6v-.17l27.45,5.93-.31.09-1.8-.39Zm.75,4-.39-.09-.12-3.1.38.09Zm-.92-.2-14.82-3.12-.12-3.16,14.81,3.18Zm-15.35-3.24-.25-.05-.12-3.16.25,0Zm-.78-.16-.35-.08-.11-3.16.34.07Zm-1-3.35.12,3.17-7.1-1.5-.12-3.2Zm18.57,7.06-.12-3.1,1.52.34H813l1.52-.4.15,3.83Zm-25.42,5,7.43-1.93.45,12.5-10.58,2.54L783,809.57Zm.09-4,7,1.43-6.93,1.8Zm7.4.8L786.13,804v-.13l27.41,5.63-.24.07-6.86-1.41-3.4-.69-7.83-1.6-.78-.17Zm-7.46-2.38,0-.9,7.32,1.52.87.19.78.16,13.14,2.73,3.14.65,3.49.72,0,.84Zm28.78,6.74,0,.45-1-.21Zm0-12.9-.06-1.55-.19-4.65-.07-1.56-.06-1.55-.06-1.54-.05-1.25,3.13-.88,1.12,27.1-3.22-.66,0-1-.07-1.56-.06-1.56-.06-1.55-.19-4.68-.06-1.56Zm3.17-13,47,11.06,1,20.33.06,1.06,0,.67h0l.19,3.72-47.18-9.64Zm47.48,10.74L864,765.51l-.37-7.14,4,1.12,3,56.47-4-.85Zm5.33,21.94.27,0,0,.34-4.51-1,0-.34ZM906,825.79l1.68.34.2,3.25-41-8.39-.18-3.42Zm-1.49-60.89-1.79-29.56,10.38-3.22,6.26,99.6-11-2.24-.22-3.68Zm-2.06-30.19-40.71-13.08-.11-2.19s0-.05,0-.08a.7.7,0,0,0,0-.12.28.28,0,0,0-.09-.07l0,0-46.89-15.2h0l0,0,0,0h0l-3.57,1.39-27.72,10.82-.67-19.72a.15.15,0,0,0,0-.08.29.29,0,0,0,0-.13.13.13,0,0,0-.07-.06s0,0,0-.06l-2.39-.77,9.74-4.12,122.63,40.48Zm-120.54-38,.69,19.91,2.14,62.84.05,1.6,0,1h0l0,.64,0,1.59,0,.94.13,3.87,0,1.6,0,.92,0,.68.06,1.61,0,.9.13,3.92.06,1.61,0,.87,0,.74.06,1.61,0,.86.13,3.77-2.81.72-3.77-113.05Zm.49,112.6.44,13,4.7,141-3-.08-9.07-277.7,2.8.93.3,8.94Zm1.64,153.89-3.23-.09-.11-3.36,0-1.44-2.07-64.73v-.19l0-1.53v-.39L776.82,837,776.41,824,776,811.07l-.18-5.64,0-.78,0-1.6,0-.81,0-.8-.05-1.59-.13-4,0-.83-.05-1.59,0-.76,0-.84-.06-1.59-.05-1.54-.07-2.37,0-.86,0-1.59,0-.72,0-.87-.05-1.58-.24-7.6-.16-4.86-.15-4.92-1.37-42.85-.71-22.31-.08-2.44s0,0,0,0,0,0,0-.05,0-.06-.06-.09a.25.25,0,0,0,0-.07.33.33,0,0,0-.1-.06l-.06,0,0,0h0L637.73,752.71V746l.63-.29L775,685.53Zm-16.86-4.05v0l-.06-2,.08-2.87s0,0,0-.05,0,0,0,0l-.11-.57h0l0-.17.25-.44v0l0,0,.46-1a.17.17,0,0,0,0-.1s0-.06,0-.1l0-.59,0-1.52.11-1.76.13-2,.12-1.85.16-1.31s0,0,0,0h0l.06-1v0l0-1.54h0l-.16-1.79c0-.2-.13-.33-.29-.31s-.24.2-.23.39l.16,1.76,0,1.52-.05,1-.16,1.31s0,0,0,0h0l-.12,1.89-.13,2-.11,1.79s0,0,0,0v0l.05,1.54v.49l-.42.93-.32.55a0,0,0,0,0,0,0,.27.27,0,0,0,0,.13.59.59,0,0,0,0,.13s0,0,0,0l.07.35h0l.11.52-.09,2.82v0h0l.06,2.06-.07,2.11v0h0l0,1.43-3.68-.09,0-.19s0,0,0,0h0l.11-1.83.08-1.26,0-.12.16-1.62v0h0l0-1.51.31-1.74s0,0,0,0v0l.06-1,.51-1.65s0,0,0-.07,0,0,0-.07v-1.72l.31-.67v0s0-.08,0-.13a.56.56,0,0,0,0-.13,0,0,0,0,0,0,0l-.15-.57-.14-1.07s0,0,0,0v0l-.31-1-.17-1.12,0-.66s0,0,0,0,0,0,0,0l-.18-.7V943s0,0,0-.06,0-.05,0-.07l-.37-1-.15-.7s0,0-.05-.08,0-.07,0-.09l-.09-.1.11-2s0,0,0,0,0,0,0,0l-.17-2.08,0-.52a.24.24,0,0,0,0-.09.35.35,0,0,0,0-.12l0,0s0,0-.07,0-.07-.05-.11-.05h0s0,0-.08,0-.06,0-.08,0l-.06.08v0h0s-.05-.06-.07-.08,0-.07-.08-.08h0l-.33-.13h0l0,0h0l-.11-.22s0,0,0,0l0-.06,0,0,.1,0,.56.14.79.33h3.62l.8-.19.55.37h0l.06,0,.09.79s0,0,0,0v0l.24.79.24,1.64.06,2.18,0,1.6-.1,1.15v0h0v1.34s0,0,0,0h0l.24,3.93-.13,1.83a0,0,0,0,0,0,0s0,0,0,0l.27,3.6h0l.39,3.72s0,0,0,.06,0,.05,0,.06l0,0h0l.57,1.4h0l.08.16.27,1.61s0,0,0,.06,0,0,0,0l.24.53-3.37-.08,0-1.46.07-2.11Zm-4.3-3.19v0l0,1.52-.13,1.31-4.53.22-.53,0L756,897l.48,0h0l12.25-1.72,1.89,63.14-.87,0-.37-3.44h0l-.26-3.57.12-1.81s0,0,0,0v0l-.24-3.94v-1.3l.1-1.16h0l.05-1.63v0h0l-.06-2.22v0l-.24-1.71,0,0v0l-.24-.78-.09-.79.06-.08s0-.07,0-.1a.5.5,0,0,0,0-.13l.07-1.49h0l0-1.91h0l0-1.72s0,0,0,0v0l-.24-1.74.06-.59.11-.69.18-.71v-.06s0,0,0-.07l0-1.26a.19.19,0,0,0,0-.07s0,0,0-.07L768.4,924s0,0,0,0,0,0,0,0l-.53-.74.15-.33s0,0,0-.07,0,0,0-.08l0-.37.07-.2s0,0,0,0a.25.25,0,0,0,0-.12.66.66,0,0,0,0-.14s0,0,0,0l-.11-.25,0,0a.07.07,0,0,0,0,0l-.05-.05,0-.08s0-.07,0-.1,0-.07,0-.11l-.07-.68a.32.32,0,0,0,0-.09s0-.06,0-.09l-.16-.26-.1-.32,0-.41,0-.7h0v-.3l.05-.14.23-.38a.06.06,0,0,0,0,0l0,0,.12-.35s0,0,0,0,0,0,0,0l0-.31s0,0,0-.07,0,0,0-.06L768,916a0,0,0,0,0,0,0s0,0,0-.05l-.11-.37-.1-.63v-.36s0,0,0,0,0,0,0-.06l-.23-.89h0v0l-.32-.92-.14-.7v0s0,0,0,0l-.25-.68h0l-.16-.37h0a.28.28,0,0,0,0-.13.33.33,0,0,0,0-.14h0l-.07-.28s0,0,0-.05,0,0,0,0l-.17-.31s0,0,0,0,0,0,0,0l-.35-.3s0,0,0,0,0,0-.05,0l-.36-.06s0,0-.07,0-.07,0-.1,0l-.18.15s0,0,0,.06,0,0,0,0l0-.08,0,0s0,0,0,0l-.17-.12h-.05s0,0,0,0l-.26,0h0l-.31,0s0,0,0,0h0l-.18.07v0h0l-.22.13h0a.1.1,0,0,0-.07,0,.13.13,0,0,0-.08,0l-.27.25s0,0,0,.07,0,0,0,.05l0,.08-.35.18s0,0,0,0h0l-.34.32s0,0,0,0,0,0,0,0L762,911a.19.19,0,0,0,0,.08s0,.05,0,.09l0,.34v0l-.18.21a.07.07,0,0,0,0,0s0,0,0,0l-.08.16s0,0,0,0l0,.05,0,.2,0,.05s0,0,0,.07,0,0,0,.05l-.09.22v.09s0,0,0,.08l0,.55-.08.62a.13.13,0,0,0-.08.07l0,0-.13.25a.13.13,0,0,0,0,.06s0,0,0,0l-.05.22-.07.09h0s0,.09,0,.13a.28.28,0,0,0,0,.12h0v.1l0,0s0,0,0,0a1.17,1.17,0,0,0,0,.11.28.28,0,0,0,0,.13s0,0,0,0v.41s0,.05,0,.07,0,0,0,.07l.11.32v.15a.24.24,0,0,0,0,.09s0,.07,0,.1l.25.49a.25.25,0,0,0,.13.12l0,0,.17,0,0,.17h0s0,0,0,0l0,.06-.58.44v0h0l-.43.44s0,.05,0,.06,0,0,0,0l-.25.66v0l0,0-.63,2.74-.67,1.76h0v0l-.45,1.47v0h0l-.39,1.72v0l-.12,1s0,0,0,.06,0,0,0,.06l.11.87h0l.22,1.27.22,2,0,0s0,0,0,0l.35,1.38h0l.36,1.71h0l.41,1.55a.32.32,0,0,0,.1.17l.62.58.09,0,0,0,.66.1h0l.08,0,.06,0,0,1a.24.24,0,0,0,0,.09.12.12,0,0,0,0,.08l.26.63h0l.46.86s0,0,0,0a.06.06,0,0,1,0,0l.47.53h0l.13.14.14.63v.05l.36,1v.49s0,0,0,.06,0,0,0,0l.18.7,0,.64s0,0,0,0,0,0,0,0l.19,1.18v0s0,0,0,0l.31,1,.13,1.06s0,0,0,0v0l.12.44-.28.61s0,.06,0,.1a.32.32,0,0,0,0,.09l0,1.76-.5,1.63s0,0,0,.05,0,0,0,0l-.06,1-.31,1.74Zm-31,4.67h0l-1.3-60.32h0v-.18l0-1.42h0v-.4s0-.06,0-.1a.36.36,0,0,0,0-.11.2.2,0,0,0-.08,0s0-.06-.09-.06h0l-23.21,3.33L706.24,853l70.07-15.52L778,891.16l-38.23,5.46-.06.06a.2.2,0,0,0-.09.05v0a.38.38,0,0,0,0,.1.49.49,0,0,0,0,.11s0,0,0,0h0l1.53,64.55c0,.19.11.35.26.35h0l1.57-.08h0l19.64-.89-.1,1.41,0,.27-11.36-.3h0l-19.21-.16a.08.08,0,0,1,0,0,.74.74,0,0,0,0-.14h0Zm-92-177.47H640l58.26-21.67v.66l-14.27,5.28-.66.24-14.59,5.4-.63.22-13.87,5.13-.6.23-13.21,4.88,0,0s-.05,0-.07.05,0,0,0,0a.36.36,0,0,0,0,.09s0,0,0,.06l0,0s0,0,0,0l.14,53.75v0s0,0,0,0a.19.19,0,0,0,0,.11l0,.08s.06,0,.09,0l-.54.15-1.24.33-.11-55.49Zm-.23-.76,58.58-21.89v.24l-58.33,21.7Zm44-13.94v-.19l.14,0,.69,57-.14,0Zm.16,57L670,829.2l-.49.13L669,773.8l.48.1h.11l13.49-5Zm.51-57.26.48.11h.11l13.36-4.93.88,57.88L685.45,825l-.49.13ZM669,829.47l-.12,0-.48-55.43v-.18l.11,0Zm-.63.17-13.07,3.58-.47.13-.3-54.19.47.09h.11l12.78-4.72Zm-14.06,3.85-.09,0-.29-54.11v-.17l.08,0Zm-.61.17L641.62,837l-.14-52.7,11.92-4.4Zm-12.59,3.45-.26.07-.13-52.92.24,0Zm-1,1.65,59.38-16.2s0,0,.07-.06l.08-.07a.53.53,0,0,0,0-.12.45.45,0,0,0,0-.11v-.71l-.89-58.63v-.48l0-1.38v-1s0,0,0,0,0,0,0,0,0-.05,0-.07a.6.6,0,0,0-.06-.11l-.09,0s0,0-.06,0h0s0,0,0,0h0L638.6,782l-.05-26.94,61.94-26.21,1.17,73.93,0,1.43h0l0,1.43,0,1.43h0l.07,4.29,0,1.43,0,1.44h0l0,1.43.07,4.31,0,1.44,0,1.44h0l0,1.44,0,2.58L638.73,843.6v-4.47Zm-5.86,62.09h0v-.66l0-32.26h0v-9.47l4.08-1,.19,92.52-4.18.31,0-16.06h0v-.68Zm-.07-66,0-31.37h0v-.63l0-19.19,2.69.51.09,52.84-2.72-.4v-1.1h0Zm-.07-63.59,0-17,4,.89.05,27-4-.8v-9.44h0Zm3.59,66.56h.05a.26.26,0,0,0,.16-.09.32.32,0,0,0,0-.09.29.29,0,0,0,.05-.13v0h0l-.1-53.82s0,0,0,0,0,0,0-.05,0,0,0-.06a.19.19,0,0,0,0-.07l0,0-.07-.05,0,0-3.55-.69V782l4,.79.11,55.64-4.07-.58v-.59l3,.43Zm-.37-53.69h.05l.09,53h0Zm.92,55.06v4.49l-4.07-.56v-4.51Zm0,5.2,0,12.32-4.09-.52V843.78Zm-4.06,12.51,2.4.31-2.4.57Zm4.28,93.85v2l-4.17-.15V951Zm0,2.7v8.1l-4.19,0v-8.23Zm-.17-198.93-4.23-1v-.74l3.39.76h0l.08,0,134.27-57.27,0,1.69-71.2,30.13ZM634,752.07v-6.82l3.17.74v6.79Zm138.45,53.84-24.25,6.47-.75.21L735,815.93l-.76.2-.72.19-.76.2h0l-.75.21-.36.09-10.19,2.72-.76.21-.73.19-.35.1-7.09,1.89,62.77-16.84v.07Zm2.92,4.9-2.72.7-.07-1.06.17-3.9,2.45-.65Zm-3.31-.35v0l.08,1.17-23.48,6.08-.12-4.72,23.69-6.32-.17,3.74S772.1,810.44,772.1,810.46Zm-23.93,7.4-.24.06-.12-4.7.23-.07Zm-.76.2-12,3.11-.1-4.61,12-3.2Zm-12.53,3.25-.23.06-.11-4.6.24-.07Zm-.75.19-.2,0-.11-4.59.21-.06Zm-.73.19-.23.06-.1-4.59.23-.06Zm-.75.2-.24.06-.1-4.59.24-.06Zm-1.12.29-9.67,2.5-.09-4.51,9.66-2.57Zm-10.19,2.63-.26.07-.09-4.5.26-.06Zm-.78.21-.2,0-.09-4.48.2-.05Zm-10.73,1.64v-.42l3.63.61-1,.25Zm1,.87-1.69.44h-.09l-.08-4.37.28-.07.06,3.46a1,1,0,0,0,0,.1.42.42,0,0,0,0,.12.18.18,0,0,0,.1.06s0,0,.06.06Zm-.94-2,0-2.19,9.54-2.55.08,4.48-4.36,1.13Zm-7.37-1.66v-.72l6.21-1.68.8-.22.08,0h0l10.06-2.72.36-.1.71-.19.78-.22,10.17-2.74.37-.11.75-.2.76-.2.71-.2.76-.2,12.5-3.38.76-.2,24.55-6.65,2.39-.65,0,.89Zm.05,3,0-2.17,1.33.22H704l4.51-1.21.07,4.14Zm4.89,1.52-4.85,1.25,0-2.06Zm-5-6v-.61l1.32.23h.09l4.51-1.24v0Zm6.43-1.74h0l.28-.08v0Zm.87-.24h0l9.54-2.6v0Zm10.42-2.82v0l.19,0v0Zm.71-.19v0l.26-.08v0Zm.77-.21v0l9.66-2.62v0Zm10.54-2.89.24-.07v.05l-.24.07Zm.76-.2.23-.07v0l-.23.07Zm.75-.17v0l.21-.06v.05Zm.72-.24.24-.06v0l-.24.07Zm.76-.16v0l12-3.26v.06Zm12.5-3.43.23-.07v.06l-.24.06Zm.75-.22,24-6.52v.09l-24,6.5ZM773,803.37l0-.09,2.19-.6v.1Zm-.36-.71-24.51,6.65-.75.21h0l-12.5,3.39-.75.21-.73.2-.75.2-.76.2-.36.11-10.17,2.76-.78.21-.71.2-.36.09-10,2.74h-.09l-.79.22-4.77,1.3h0l71.35-19.47V802ZM702.48,821v-.72l6.2-1.71.8-.22h0l.08,0h0l10.05-2.77.36-.1.72-.19.76-.22,10.17-2.79.37-.1.75-.21.76-.21.72-.2.75-.2,12.5-3.44.74-.22,24.42-6.7,2.51-.7,0,.89Zm0-1.44-.06-3.48,1.33.24h.09l4.5-1.27.05,2.88Zm6.37-4.65.28-.08,0,2.89-.28.07Zm.88-.25,9.52-2.68.06,3-9.52,2.63Zm10.4-2.92.2,0,.06,2.94-.2.06Zm.71-.2.26-.08.06,3-.26.07Zm.78-.22,9.64-2.71.07,3-9.65,2.65Zm10.52-3,.23-.07.07,3-.23.07Zm.75-.22.24-.06.07,3-.24.07Zm.76-.21.2-.05.07,3-.2.06Zm.72-.2.23-.07.07,3-.23.07Zm.75-.21,12-3.36.07,3.1-12,3.29ZM747.57,804l.23-.06.09,3.1-.24.06Zm.76-.21,23.8-6.69.13.6,0,2.62-23.91,6.58Zm24.5-3.62-.05-2.53s0,0,0,0,0,0,0,0l-.13-.59,2.36-.67.1,3.26Zm-.57-3.83L748,803.19l-.75.21-12.48,3.5-.75.22-.72.2-.76.21-.75.21-.36.1-10.16,2.86-.78.21-.71.2-.36.11-10,2.82-.08,0-.8.23-4.76,1.33h0L775,795.5v.11Zm-69.87,18.89,0-.72,6.21-1.76.79-.23.08,0h0l10-2.86.36-.09h0l.72-.21h0l.76-.22h0l10.16-2.89.35-.09.76-.23.75-.21.72-.2.75-.21,12.48-3.56.75-.2,23.83-6.79,3-.86,0,.88Zm0-1.43v-.6l1.29.23Zm32.67-9.3L747,801.12h0ZM747.5,801v0l.23-.06h0Zm.74-.22h0L771,794.25l0,0h0Zm23.91-6.8v0h0l2.76-.78v0Zm-.28-.68-.74.21h0l-.15,0-23.05,6.58h0l-.76.21h0l-12.47,3.56-.75.21-.72.2-.75.23-.76.21h0l-.36.1h0l-10.15,2.9h0l-.77.22h0l-.71.2-.36.11-10,2.86h0l-.08,0h0l-.79.22-4.76,1.36h-.08l71.26-20.44v.12Zm-69.53,19.1v-.71l6.2-1.8.78-.23h0l.08,0h0l10-2.9.35-.1h0l.72-.2.77-.23,10.15-2.93.36-.11.75-.22h0l.76-.21.71-.21h0l.75-.22,12.46-3.6.75-.22,22.1-6.38h0l2.26-.66,2.49-.72,0,.88Zm0-1.43,0-3.45,1.32.24h.09l4.49-1.33.05,2.84Zm6.37-4.69.27-.08,0,2.84-.27.07Zm.87-.26,9.5-2.8.06,2.89-9.51,2.75ZM719.93,803l.19-.05.06,2.89-.19.06Zm.71-.21.25-.07.06,2.91-.25.06Zm.77-.23,9.62-2.83.06,3-9.62,2.78Zm10.5-3.09.23-.07.07,3-.24.07Zm.75-.22.23-.07.07,3-.24.07Zm.75-.22.21-.06.06,3-.2.06Zm.72-.21.24-.07.07,3-.24.08Zm.75-.23L746.82,795l.07,3.05L735,801.52Zm12.45-3.66.23-.08.09,3.06-.23.06Zm22.37-4.52s0,0,0,0l0,1.06-21.57,6.24-.09-3,21.44-6.32.05.48a.11.11,0,0,0,0,.06v.06l.18.45-.08.94Zm1.37-1.35h0s0,0,0,0l0,.05s0,0,0,0l.21.43a.07.07,0,0,0,0,.05s0,0,0,0l.22.24.3.76.05.2-1.68.48,0-.94.08-1s0-.06,0-.09,0-.08,0-.11l-.19-.5-.06-.47.88-.26V788s0,0,0,0Zm1.38,1.67-.06-.28,0,0s0,0,0,0l-.34-.84s0,0,0,0,0-.05,0-.06l-.22-.24,1.39-.54.92.06.72.33,0,1Zm1.73-2.7h0l0,0-1-.07h0l0,0h0l-1.51.59-.1-.64v-.08l3.29-1,0,1.44Zm-3.11-.82h0l-1.39.41L747.76,794h0l-.75.22-12.45,3.67-.75.22h0l-.72.21-.75.22-.76.22-.35.11h0l-10.14,3-.77.23h0l-.72.21-.35.1-10,3h0l-.08,0h0l-.79.23-4.75,1.4-.12,0L774.67,786v.15Zm-68.82,19.5,0-.7,6.2-1.85.8-.25h0l.08,0,10-3,.36-.11.71-.21.77-.23,10.14-3h0l.36-.11.75-.22.75-.23.72-.21.75-.23,12.44-3.71.76-.22,21.54-6.43,1.72-.51,3.54-1.06,0,.88Zm0-1.43,0-.58,1.21.22ZM770.94,784l-1.8.54L747.69,791l-.75.22-12.45,3.73-.75.22-.72.21-.75.24-.75.22-.36.11L721,799l-.77.23-.71.21-.36.11-10,3-.08,0-.79.24-4.75,1.42-.14,0,71.15-21.4v.16ZM702.2,803.81v-.71l6.19-1.88.79-.23.08,0h0l10-3,.36-.11.72-.21.77-.24,10.12-3.07.36-.1.75-.24.75-.22.72-.22.75-.23L747,789.53l.74-.23,21.3-6.45,1.77-.53,3.72-1.13,0,.87Zm32-36L746,763.77l.64,25.13-11.92,3.61Zm0,24.85-.22.07-.57-24.94.23.05Zm12.3-29.36h0v-.47s0,0,0,0a.1.1,0,0,0,0-.08.37.37,0,0,0-.05-.11.19.19,0,0,0-.1,0s0,0-.06,0h0l0,0h0L733.09,767l0,0-.06,0,0,0a.25.25,0,0,0,0,.09s0,0,0,.06v0s0,0,0,0l.58,25.51-.19.06-.6-26.43,14-4.83.7,27-.23.07Zm-13.76,29.8-.23.08-.59-25.75a.29.29,0,0,0,0-.1.25.25,0,0,0,0-.12.27.27,0,0,0-.08-.07s0,0-.06,0l-12.07-2.79-11.18-2.59h0l0,0h0a.18.18,0,0,0-.07,0,.2.2,0,0,0-.09,0,.39.39,0,0,0-.06.11s0,.06,0,.09,0,0,0,0v.46l.66,37.86-.27.08-.69-39.52,24.27,5.64Zm-1.58-24.62,0-.08,0,0a.08.08,0,0,0-.07,0l0,0-10.53-2.41h-.05s0,0-.07,0a.16.16,0,0,0-.09.05.54.54,0,0,0,0,.11s0,.06,0,.09v.27l.61,30.32-.25.08-.64-31.74,11.54,2.67.58,25.59-.24.07-.55-24.79s0,0,0,0v0S731.19,768.51,731.18,768.49Zm-.28,25.19-9.61,2.91-.59-29.76,9.65,2.22ZM720,797l-.19.06-.61-30.77,0-1.09.19-.07Zm-1.66-30.27.59,30.59-9.48,2.88-.62-35.66Zm-9.61-3.13v-.67l9.94,2.3v.65Zm-1.06-3.44h0s0,0-.07,0-.06,0-.09.06a.23.23,0,0,0-.05.1s0,.06,0,.09,0,0,0,0v0l.7,40.1-5.88,1.78L701,728.85l30.47,8,.66,29Zm61.56,21.4v0l-.09-1.68.36-.11.74.23.57.4-.09.36-.22.61a.21.21,0,0,0,0,.08h0a.32.32,0,0,0-.16.32l-1.08.33,0-.5S769.23,781.55,769.23,781.54Zm1.78,0,.18-.51v0l.11-.43s.08,0,.1,0a.25.25,0,0,1,0-.07s0-.07,0-.12v0h0l.06-.5.08-.32h0l.42-2.2v0s0,0,0,0l0-.55v0h0v-1.14s0,0,0-.05,0,0,0,0l-.13-.83v0l-.28-1,0,0v0l-.23-.51c-.08-.17-.24-.22-.36-.12a.44.44,0,0,0-.08.49l.21.48.27.92.12.76v1.09l0,.5-.41,2.16-.09.33s0,0,0,0v.12l-.59-.41s0,0,0,0l0,0-.83-.27h-.12l-.41.13,0-.88,0-3.31.2-.78.49-.87.78-.76,1.47-1,.26.33,1.23,2.06s0,0,0,0,0,0,0,.06a.21.21,0,0,0,.12,0,.3.3,0,0,0,.15-.07h0s0,0,0,0a.13.13,0,0,0,.05-.07l.26-.63.17.13.23,7.11ZM772.3,771l.13-.54,1.44,1.38-.15.74,0,.19-.1.25-1-1.67h0v0Zm.76-.8h0l.16,0a.36.36,0,0,0,.1-.11s0,0,0,0,0,0,0,0,0-.07,0-.12a.57.57,0,0,0,0-.13v0s0-.06,0-.09a.06.06,0,0,1,0,0,.14.14,0,0,1,0-.06l.06-.54.14.06s0,0,.09,0a.24.24,0,0,0,.2-.16l0,0H774s0,.06,0,.07h0s0,0,0,0l.08,0,.08,2.25Zm.41-2.3,0,0a.18.18,0,0,0,.08,0v.22h0s0,0,0,.05l-.06-.07,0-.12h0l-.07-.16,0-.1,0,0s0,0,0,0S773.46,767.91,773.47,767.94Zm.6-.33v0l-.08-.15s0,0-.06-.05,0-.06-.06-.07v0s0,0,0-.06,0,0,0-.06v0s0,0,0,0a.33.33,0,0,0-.06-.1.24.24,0,0,0-.09-.08l0,0h-.09v-.08s0-.06,0-.09,0,0,0,0a.5.5,0,0,0,0-.13l-.06-.09s0,0,0,0h-.06l-.07,0-.13,0a.23.23,0,0,0-.1.07s0,0-.07,0h0l-.13.19s0,.07,0,.1,0,0,0,.07l0,.26a.24.24,0,0,0,0,.08s0,0,0,.08l.22.89,0,0s0,0,0,0l0,.09-.11,1,0,.11-.09,0s0,0-.07,0h-.08l0,0-.06-.38s0,0,0-.07,0-.08-.05-.1a.28.28,0,0,0-.09-.07l0,0-.14-.59-.12-1.92.27-1.22.65-1,.57-.37.43,0,.12,3.86Zm-.62-4.52-.05,0h0l-.65.42s0,0,0,.05,0,0,0,0l-.72,1.06s0,0,0,.08l0,.05-.31,1.37s0,0,0,.07a.19.19,0,0,0,0,.07l.14,2s0,0,0,0v0l.3,1.28s0,0,0,.07a.21.21,0,0,0,0,.06.13.13,0,0,0,0,0s0,0,0,.08l0,0-.19.79,0,0-1.6,1.12,0,0h0l-.81.81,0,0s0,0,0,0l-.54,1s0,0,0,.05,0,0,0,0l-.23.89s0,0,0,.06a.14.14,0,0,0,0,.06l0,3.37h0l0,1.42h0a.35.35,0,0,0,0,.11.59.59,0,0,0,.06.14h0s0,0,0,0l.09,1.56,0,.69-20.76,6.29-.71-27.29s0,0,0,0v0s0,0,0-.08a.39.39,0,0,0-.06-.11l-.09,0s0,0-.07,0,0,0,0,0h0l-14.23,4.91-.66-29L772.6,721l1.34,42.06Zm-41.73-26.88-29.91-7.87,70.08-29.65.69,21.57Zm-29.66,91.41,0,2.48v0a0,0,0,0,1,0,0c0,.05,0,.08,0,.12s0,.05,0,.07a.21.21,0,0,0,.17.1h0l6.79-1.76,3.36-.87,2.62-.68,4.62-1.19.36-.1.71-.18.79-.2,10.19-2.64.36-.09.76-.2.75-.2.73-.18.75-.2,12.53-3.24.75-.2,24-6.22,3-.77.39,12.17-73.37,17.64h-.07l-2.79.67-60.89,14.64,0-12.32Zm73.84-3.23.39,12.36-70.06,15.52-.17-10.12a.25.25,0,0,0,0-.13.14.14,0,0,0,0-.09c0-.06-.06-.07-.11-.08s0,0,0,0l-1.46-.23Zm-76.29,29.34-30.76,6.81L640.44,857l59-14.18Zm-31,7.49.77,90L639,950l-.19-92.56Zm.78,90.67.08,9.79-2.85,0L639,961.51V950.7Zm-.26-90.69,30.5-6.75.73,47.82L682,904.9s0,0-.07.05-.06,0-.08,0l0,0a.53.53,0,0,0,0,.12.79.79,0,0,0,0,.09v0l.64,56.51-12.41-.1-.09-10.14Zm13.16,44.43,1,.09.65,56.07h-1Zm1.5.07,16.59-2.37V904l-5,.7h-.06l-.59.08-10.61,1.49a.17.17,0,0,0-.08.06l-.09,0h0s0,.05,0,.07a.5.5,0,0,0,0,.13v0h0l.64,55.17h-.1Zm.64,1.29.22,0,.66,54.79h-.24Zm.75,0,9.34-1.31.79,56.19-9.48-.08Zm9.86-1.56h.13l.8,56.45h-.14Zm.65,0,.47,0h.05l4.19-.59.87,56.86-3.67.17h-1.11Zm5.23-.94h0v-.18l0-1.35v-.35L700.14,854,700,842.64l2.32-.55,1.91,119.85-2.41,0Zm1.9-62.41,2.74.41.17,10.22.81,49v.36l0,1.37,1,58.33h0v.2l-2.81,0Zm16.7,60,.48,0h0l10.05-1.41,1.28,59.59-10.21.49-.51,0Zm.61,58.75h-.19l-1.12-58.73.18,0Zm-.9-59.48-.7.1L707.07,903h0v-.66l23-3.27,0,.71Zm-11.85,2.43.47,0h0l10.4-1.46,1.12,58.5-10.58.51-.5,0Zm12.32,57.78.71,0,.77,0,10.21-.48v.63l-9.77.44L710.46,962Zm21.43-64.09,1.54,63.66-1,0-1.51-63.8Zm2,63.63-1.51-63.64,36.4-5.19,0,.82-8.28,1.16-.81.11-13.3,1.87-.78.11-12.77,1.8s0,0-.06,0-.07,0-.1.07h0a.45.45,0,0,0,0,.11.29.29,0,0,0,0,.1v0h0l1.49,61.59h0a.37.37,0,0,0,0,.15c.05.1.12.2.22.2h0l.78,0,12.19-.58.79,0,.79,0,4.45-.21,0,.71Zm28.59-2,.79,0,7.62-.36,0,.74-9.88.44-.3-.7.92,0ZM769.29,895l.28,0,1.91,63.41h-.3Zm3.24,63.32-.53,0L770.1,895l.49,0h0l7.48-1,2,64Zm-29.32-59.48,11.48-1.6,1.66,61.84-11.67.56Zm.95,60.82h-.26l-1.46-60.83.24,0ZM755.21,897l.26,0,1.67,62.1-.27,0ZM768,927.91h0l-.07.67v.11l.24,1.78,0,1.69,0,1.9h0l-.06,1.29h0l-.47-.3v-2.86s0,0,0,0v0l-.2-1.49,0-1.14a.43.43,0,0,0,0,0s0,0,0-.06l-.35-1.29h0l-.24-1.05,0-1.31h0l-.05-1.53s0,0,0,0v0l-.22-1.14.09.11h.05a0,0,0,0,0,0,0l.54.34.67.92.33,1,0,1.13-.17.66s0,0,0,0v0l-.12.72Zm-7.1,1.1h0v-.42l.16-.35,0,.16,0,0s0,0,0,0l.18.3,0,1.1-.2.61v0s0,0,0,0l-.12.73-.09.34,0-.29.07-2.31Zm.31,4.12v0l0-.78.21-.82s0,0,0,0l0,0,.11-.71.21-.65s0,0,0-.07,0,0,0-.06l0-1.3s0-.08,0-.11a.5.5,0,0,0,0-.12l-.22-.37-.16-.5s0,0,0-.05a.15.15,0,0,0-.06-.09h0l.11-.57a.43.43,0,0,1,0-.05.05.05,0,0,0,0,0v-.16l.25-.42h0l.17-.28s0,0,0,0l0-.05.18-.67.42-.65v0l0-.05.16-.52.12-.18,0,1.31c0,.2.1.36.24.37l1.88.12h0s.05,0,.06,0,.09,0,.11-.07,0-.06,0-.09,0-.09,0-.14v0h0l-.07-2.27.22-.21s0,0,0,0,0-.07,0-.12a.21.21,0,0,0,0-.12s0,0,0,0V922l0,0a.23.23,0,0,0,0-.11.39.39,0,0,0-.06-.11l0,0-.47-.4h0l0,0-.4-.2h0l0,0H763s-.05,0-.08,0l-.08,0a.45.45,0,0,0-.06.12s0,0,0,.08l-.05.38s0,0,0,.07,0,.06,0,.09l.07.38,0,0s0,0,0,.07a.2.2,0,0,0,.09.11v0l0,.61a.21.21,0,0,0-.33,0l-.22.28a.64.64,0,0,1,0,.07s0,0,0,.06l-.16.54-.41.65,0,.06s0,0,0,0l-.19.66-.15.25h0l-.31.52a.53.53,0,0,0,0,.12s0,.08,0,.12v.24l-.15.83-.34.75s0,.07,0,.1,0,.06,0,.09V929l-.07,2.32v0s0,0,0,0l.12.92,0,1.18s0,0,0,.07,0,.05,0,.07l.13.38v.44s0,0,0,0l.1.66s0,0,0,0,0,0,0,0l.1.34a.27.27,0,0,0,.1.17h0l.24.21.15.31,0,0,0,0s0,0,0,0l.09.11v.16l-.09.29-.24.39-.19.08-.54-.09-.5-.46-.37-1.42-.35-1.7s0,0,0,0h0l-.36-1.36-.23-2h0l-.21-1.27-.1-.79.11-.91.39-1.68.43-1.43.68-1.78v0s0,0,0,0l.63-2.74.22-.56.36-.38,1-.73h.06l.61.42h0l.51.27.71.7.07.26-.05.27s0,0,0,0a.5.5,0,0,0,0,.12.28.28,0,0,0,0,.13,0,0,0,0,1,0,0l.25.36h0a.24.24,0,0,0,.19.11H765l.35.37s.05,0,.07,0l0,0,.32.07.08.17,0,.75a.05.05,0,0,0,0,0s0,0,0,.05l.17.68.26,1.37,0,1.48,0,1.34s0,0,0,.06,0,0,0,.05l.26,1.13h0l.33,1.24,0,1.12v0l.21,1.48V935l-.65.14h-3.44l-.76-.32h0l-.61-.15s0,0,0,0,0,0,0,0l-.37.05-.05-.32v-.43l.07-.8Zm3-11.34.31.16.3.26-.12.1-.33,0-.19-.17h0l0-.12h0A.69.69,0,0,0,764.28,921.79Zm0,1.16,0,0,.26,0,0,1.77-1.33-.08.06-1.93h.26a.21.21,0,0,0,.11,0l.1-.07.1,0,.26.23A.21.21,0,0,0,764.3,923Zm-.74-.91h-.14l-.19-.1h0l0,0,0-.13h.4a.33.33,0,0,0,0,.1.57.57,0,0,0,0,.13v0Zm-2.29-6.89,0,0s0,0,0-.05a.9.9,0,0,1,0-.09l0-.26,0-.07a.29.29,0,0,0,.16-.09s0,0,0-.07a.43.43,0,0,0,.05-.12l.1-.89v0s0,0,0,0l0-.49,0-.08.06-.07,0,0a.29.29,0,0,0,.07-.12l.07-.26,0-.08.2-.23s0,0,0,0l.06-.1,0-.18v0s0,0,0,0l0-.28.1-.18.29-.26.41-.22v0h0s0,0,0,.05l.16.28h0l0,0a.29.29,0,0,0,.14.11l.38.08h.07l.4-.06,0,0s.06,0,.08,0l.12-.09-.06.23,0,.08s0,0,0,.06l0,0,0,.19-.19.37s0,0,0,0,0,0,0,0l0,.07,0,0s0,0,0-.05a.08.08,0,0,0,0-.07l-.21-.28,0,0s0,0,0,0h0a.11.11,0,0,0-.1,0,.14.14,0,0,0-.09,0s0,0,0,0,0,0,0,.07,0,0,0,.05l-.37,1.27v.06s0,0,0,0l-.06,1.16s0,0,0,.08,0,.05,0,.08l.2.66a.41.41,0,0,0,.08.13s0,0,0,0l.23.21.37.42.22.71.09.51s0,0,0,0v0l.41,1a.36.36,0,0,0,.07.1s0,0,0,0l.5.47.47.63.31.4.4,1.17a.44.44,0,0,0,.1.15h0l.86.67.1.11v0l0,.06h0a.42.42,0,0,0,0,.12l0,.37-.09.2-.41-.26-.27-.31-.22-.49-.17-.59s0,0,0,0,0,0,0,0l-.19-.37s-.05-.05-.08-.07-.06-.08-.09-.09l-.36-.08-.37-.39s-.05,0-.08,0,0,0-.08,0h-.38l-.08-.11,0-.19s0-.07,0-.1a.41.41,0,0,0,0-.11l-.11-.46-.06-.08a.18.18,0,0,0,0-.09l-.8-.78h0l0,0-.52-.29-.66-.45s0,0-.05,0l-.07,0h-.13l-.26-.13-.06-.18s0,0,0,0,0-.06-.07-.09-.05-.06-.08-.07l0,0-.2-.07-.15-.29v-.12l0-.06a.22.22,0,0,0,0-.08l-.11-.32v-.16l.06,0a0,0,0,0,1,0,0,.36.36,0,0,0,0-.11.28.28,0,0,0,0-.12s0,0,0,0Zm2.56-4.84,0,0,.13-.08.13-.06.23,0,.17,0h0l-.23.19-.28,0-.19,0Zm1.58,2.12s0,0,0,0v0l.15-.44.26.53.11.45a.41.41,0,0,0,.07.11.06.06,0,0,0,0,0l.15.18.08.89v.94l-.12.63-.07.28-.14.35-.17.33-.14.19a.11.11,0,0,1,0,0l0,0-.12.3,0,0h-.14l-.17-.07-.18-.1-.14-.19-.08-.43s0,0,0,0,0,0,0,0l-.24-.81-.05-.06s0-.06,0-.08L764,915h0v0l-.18-.16-.15-.48,0-1,.18-.61.08.58-.06.54-.13.2,0,.08a.5.5,0,0,0,0,.12.29.29,0,0,0,0,.13.19.19,0,0,0,0,.08s0,0,0,.06,0,0,0,0h0a.23.23,0,0,0,.16.08.38.38,0,0,0,.13,0l.19-.16h0a.35.35,0,0,0,.09-.16l.23-.62s0,0,0-.07a.08.08,0,0,1,0,0,.19.19,0,0,0,.12,0h0l.12-.09s0,0,0-.07,0,0,0,0Zm-.42-1.69h0v0l0-.06h0s0,0,0,0l.14.14a.07.07,0,0,0,0,.06s0,0,0,.06l0-.06s0,0-.07-.07,0-.06-.05-.07h0Zm.6-.57h0l.23.21v0l-.16-.1Zm1.39,3.61.22.83V915a0,0,0,0,0,0,0v0l.12.7v0s0,0,0,0l.11.35.08.74,0,.21-.08.27-.23.38s0,0,0,0l0,0-.1.26s0,.05,0,.09,0,0,0,.07l0,.39,0,.7h0l0,.48a.19.19,0,0,0,0,.07s0,0,0,.06l.13.42,0,0s0,0,0,0l.14.23,0,.36-.47-.36-.39-1.12,0,0s0,0,0-.06l-.32-.41-.2-.5-.06-.32.09-.2a.19.19,0,0,0,0-.1s0-.06,0-.1v-.42l0-.14.08-.13v0s0,0,0,0l.19-.36h0s0,0,0,0l.16-.38v0s0,0,0,0l.08-.33v0l.12-.68s0,0,0,0,0,0,0,0v-1s0,0,0,0h0l-.09-1.06h0a.37.37,0,0,0-.13-.27l-.14-.16-.1-.41,0,0s0,0,0,0l-.28-.57-.08-.27h.16s0,0,.08,0l.1.25.23.64.14.69,0,0s0,0,0,0ZM765.43,918h0a.41.41,0,0,0,0,.11l-.13-.12Zm-3.75,19.9h.06s0,0,0-.05a.1.1,0,0,0,.08,0l.33-.35s0,0,0,0a.18.18,0,0,0,0-.07l.08-.21.15,1.76-.09,1.41,0,0-.43-.81-.23-.54Zm8.86,22.7,9.68-.44.1,3-9.14-.25-.4-.88ZM638.15,729.65s0,0,0,.05l-.07.09a.35.35,0,0,0,0,.12s0,0,0,.07l0,15.1-.57.24-3.41-.78v-4.45L634,710V692.39l6.93,1.94,0,11.88,0,12.22,0,9.89ZM936.26,967.76l-61.92-1.91-.29-5.56,57.75,2.21,1.91.07h0s0,0,.07,0,.08,0,.1-.07a.35.35,0,0,0,0-.11s0-.07,0-.12v0h0l-4-63.1a.24.24,0,0,0,0-.09s0-.08,0-.13,0,0,0,0-.05,0-.08,0,0,0-.06,0l-59.19-7.1-.19-3.71-1.57-30.47-1-19.24,60.85,11.23.14,2.19Zm-7-116.49-.14-2.11a.24.24,0,0,0,0-.09s0-.08,0-.12a.28.28,0,0,0-.09-.06s0,0-.06,0l-61.17-11.29-.06-1.14s0-.06,0-.1a.49.49,0,0,0,0-.11s-.06-.05-.1-.08l0,0-47.84-8.91s0,0,0,0l0,0v0h0l-3.69.81-28.68,6.36-.39-11.44a.15.15,0,0,0,0-.08.66.66,0,0,0,0-.15s0,0-.05,0-.06-.06-.09-.07l-1.74-.32,9.41-2.26,151,28.65Zm-1.88-21,.2,3.14-1.4-.29L926,830Zm.45,3.9,18.4,3.76.71,10.34L794.47,819.32,794,806.83l.35.07.78.17,6.83,1.39,3.4.69,9.76,2,3.74.76,47.72,9.74,41.55,8.49,11.49,2.34,6.26,1.28Zm-2.41-4.58.23,3.43-5.73-1.17-6.26-99.69L919.3,734l.43,6.73L921.6,770l.07,1Zm-3.26-59v-.17l.31.09Zm1.33-.51-1.39-.39-1.82-28.49,1.37.45.26,4Zm-1.08-24.91-.25-3.83a.24.24,0,0,0,0-.09.3.3,0,0,0,0-.1A.2.2,0,0,0,922,741l0,0-1.73-.55-.4-6.25,18.81,6.22Zm15.36-30.72L939.52,740l-19.92-6.58-6.17-2-123.57-40.8-1.09-30.34ZM677.43,712l110.82-51.8,1.08,30.33-10.19,4.32-.29-8.74s0,0,0-.08a.26.26,0,0,0-.05-.12l-.07-.08s0,0-.05-.05l-3.33-1.11,0,0,0,0,0,0h0L638.53,744.85l0-14.62,2.85-1.33,14-6.53,5.7-2.67Zm-35.2,6.3,4.67-2.27,13,3.41-4.73,2.21Zm12,3.82-12.68,5.92,0-9.21Zm-12.72-4.22,0-11.48,5.11-2.59,0,11.59Zm34.86-6.14L660.91,719l-13.77-3.61,0-11.62,6.2,1.7Zm-23-7L646.88,703h0s0,0-.05,0,0,0,0,0l-5.28,2.68,0-11.66a.32.32,0,0,0,0-.09.42.42,0,0,0,0-.12.16.16,0,0,0-.07-.07s0,0-.06-.07l-7.25-2v-6.57a.29.29,0,0,0,0-.1.28.28,0,0,0,0-.12.13.13,0,0,0-.08-.07s0,0-.06-.06l-3-.87,0-58.1s0-.06,0-.08a.83.83,0,0,0,0-.12.2.2,0,0,0-.08-.08s0,0-.06-.06l-5.61-1.92h0l0,0s0,0-.05,0h-.06L556,669.78l-25.43-7.15.12-5.57.28-.2s0,0,0,0,0,0,0,0a.25.25,0,0,0,0-.07l0,0s0-.05,0-.07v0s0,0,0,0,0,0,0,0l0-1.2s0-.06,0-.1a.35.35,0,0,0,0-.12.2.2,0,0,0-.08-.08s0,0-.06-.06l-3.64-1,1.44-63s0,0,0-.09a.53.53,0,0,0,0-.12s-.05-.05-.08-.08,0,0-.06-.06l-6.74-2.3h-.06s0,0-.07,0a.08.08,0,0,0-.07,0h0L468.15,637l-149.73-43,55.13-91.55.12,0,.12.13,0-.08,1.2.4v0L767.76,647.74Zm114.95-59.59.06,2L374.23,501.81l1.58-2.58Zm0-.74L376.18,498.64l11.14-18.18L767.75,628.62Zm-.58-18.57.06,2-380-148,1.53-2.49ZM387.13,479.65l-11.74-4.58,0-.13-.06,0,.17-2.92,13.13,5.16Zm-12.26-8.08-1.48,2.61-87.14-32.6,1.48-3.92Zm-87.65-34.11-1.49,3.93-5.61-2.1,1.42-4Zm-6.19-2.4-1.42,4-48.87-18.28,1.34-4.81Zm-49.45-19.25-1.34,4.81-12.1-4.52,1.23-5Zm-12.71-4.94-1.24,5-22.32-8.35,1-5.48Zm-41.52-16.16,18.44,7.17-1,5.49-18.21-6.81Zm-.84,6.55,18.17,6.8-4.55,25.45-17-5.94Zm-3.5,27,17,5.94-1.07,5.93-16.74-5.57Zm-.9,7,16.71,5.56L126,791.83ZM189.33,441l20.49,6.83-27.09,112-9.25,38.27-.47,1.94-.94,3.89h0l-.16.64h0l-.31,1.3-.95,3.89-.15.64-.32,1.31-.94,3.92-.16.63-.32,1.33-.95,3.93-.15.62-.32,1.35-1,3.94h0l-.15.62h0l-.33,1.36-1,4h0l-.15.6h0l-.33,1.38-1,4-.15.59-.33,1.39-1,4-.14.58-.34,1.42-1,4-.14.57-.34,1.43-1,4h0L159,658h0l-.35,1.45-1,4-.14.56-.35,1.47-1,4h0l-.13.54h0l-.36,1.47-1,4.07-.13.54-.37,1.5-1,4.08-.13.53-.37,1.52-1,4.09-.12.52-.37,1.53-1,4.12-.12.51-.38,1.55-1,4.13-.11.5-.38,1.57-1,4.14-.12.49-.38,1.59-1,4.16-.11.48-.39,1.61-1,4.18h0l-.11.47h0l-.39,1.62-1,4.2-.11.46-.4,1.64-1,4.21-.11.45-.4,1.66-1,4.23h0l-.1.44h0l-.4,1.68L135,757.28l-3.46,14.29-5.16,21.37ZM124.85,801.92l8.25-29.71,92,12.9,24.59,3.45,1.13.16-2.31,28Zm122.58,17,1.45-1.49v0h0a.32.32,0,0,0,0-.09s0-.05,0-.08a.08.08,0,0,0,0-.06h0l2.37-28.75h0s0-.06,0-.1a.65.65,0,0,0,0-.16.28.28,0,0,0-.16-.12h0l-1.13-.16.15-1.73,9.22-11.07-4.8,59.34-9.09,8.11,1.06-12.79Zm-.58.59-.81,9.81-7.9-.88Zm-9.18,9.59L246,830l-1.09,13.17L240,901.91l-2.19,26.44L229.3,928Zm-17.8,18.08,17.24-17.68-8.34,98.55-16.64,7,1.27-14.46ZM107,836.35l112.38,11-6.43,72.88L98.12,914.71Zm-3.85,20.41s.07,0,.1-.06a.49.49,0,0,0,0-.07.28.28,0,0,0,.05-.11l2.3-12.71-8,71.16-1.48,5.9.08-.71s0-.08,0-.11a.5.5,0,0,0,0-.13s0-.06-.07-.09,0-.05-.06-.07h0l0,0s0,0-.08,0a.13.13,0,0,0-.1,0,.73.73,0,0,0,0,.09s0,.05-.06.09l-1.2,5,.54-4.82.06,0s0,0,0-.06a.29.29,0,0,0,.06-.11l.32-1.41v0l.44-3.92h0a.27.27,0,0,0,.08.07s0,.07.06.08h.08a.21.21,0,0,0,.16-.08l0-.06a.29.29,0,0,0,.06-.11l.37-1.63v-.05ZM91,965.49v0a.45.45,0,0,0,0-.11.35.35,0,0,0,0-.11v0l1-8.37s0,0,0,0,0,0,0,0a.45.45,0,0,0,0-.11.53.53,0,0,0,0-.12h0l.93-8.17h0v0a.35.35,0,0,0,0-.11.56.56,0,0,0,0-.12h0l.9-8v0s0-.07,0-.1a.42.42,0,0,0,0-.13l.88-7.76v0a.45.45,0,0,0,0-.11.42.42,0,0,0,0-.12.28.28,0,0,0-.09-.07s0,0-.07-.06h0v0h-.49l.28-2.46,1.2-5,0,.45s0,.07,0,.1a.27.27,0,0,0,0,.13.34.34,0,0,0,.08.09s0,.06.05.07h.09a.21.21,0,0,0,.16-.07l0-.06s.05-.06.05-.1l1.5-5.94-6.09,54,0-.06a.53.53,0,0,0,0-.12l-.09-.07s0,0-.07,0h-.58l.8-7.09Zm2-25L92.2,948l-73.5-2,1-7.91ZM19.81,937.4l1-7.69h.07l31.31,1.16,1.92.07h.06l37.37,1.38h0l1.83.07.49,0L93,939.75Zm72.4,11.3-.87,7.74-73.78-1.6,1.05-8.12Zm-.85,8.45-.9,8-74.07-1.2,1.08-8.36Zm9-100.58,1.26.1-8.2,72.44-.29,2.58-1.31-.05Zm-36.6-3.1,36.07,3-8.54,75.1-36.86-1.37Zm-1.92-.16,1.35.11-9.34,76.81-1.39-.05Zm-30.62-2.59,30.09,2.54L52,930.16,21.19,929Zm-7.55-20.33L30,848.87l-8.43-.71-.12-.31ZM9.16,944.05l12.45-95.18,8.48.71L15.36,963.89l-8.78-.15Zm-2.67,20.4,9.09.15h.5l74.4,1.21-.77,6.79-84.16-1Zm83,18L3.87,982l1.27-9.66h.09l84.7,1,.55,0Zm-3.7,42,1.16-10.23L98,915.42l114.81,5.48-1.29,14.62-6.18,70.17-16.66.16s-.05,0-.07,0h0s0,0-.06,0,0,0,0,0a.42.42,0,0,0,0,.1s0,.07,0,.11h0l-.93,10.17-17.27.28s0,0-.07,0,0,0-.07,0l0,0s0,.07-.05.11,0,0,0,.08h0l-.55,5.79Zm89.32,5.11-5.52-2.19.4-4.24.55-5.72,5.57,1.54Zm54.51-1.26-54,1.36,1-10.65,18.33-.32h0a.17.17,0,0,0,.15-.08h0l0-.07a.43.43,0,0,0,.05-.12h0l1-10.85,17.83-.19h0a.24.24,0,0,0,.15-.09h0s0-.05,0-.08a.29.29,0,0,0,.05-.13l.92-10.67,17.06-.05L230,1023.9Zm219.57,3-.08,2-348,11.69-1.13-2.73,138.5-4.35Zm-210.42-.82-8.63-2.1.34-4,8.63,1.83Zm.4-5-8.64-1.84L232.78,996l.38-4.63,2.39-28.87,8.81-1.66Zm33.49-1.06,0,.33-32.94.78,5.23-64.76,32.38.69-.11,1.58-.67,9.06-.7,9.42-.72,9.76-.78,10.59,0,.2-.8,10.84,0,.41h0Zm232.51-5.66-232,5.34.77-10.4,231.41-3.52Zm.25-9.63L274,1012.59l.75-10.14,230.83-1.7Zm.24-9.24-43.92.32.29-8.51h43.83Zm34.26-14.67-33.65.44s0,0-.07,0a.15.15,0,0,0-.1.06.28.28,0,0,0-.06.16s0,.05,0,.08l-.13,5h-7l.21-7.88h0a.42.42,0,0,0,0-.12s0-.09,0-.13a.2.2,0,0,0-.09,0s-.05-.06-.09-.06h0l-5,0,.21-7.62h0a.45.45,0,0,0,0-.11.4.4,0,0,0,0-.13.13.13,0,0,0-.09-.06s-.05,0-.09,0h0l-4.81-.07.17-5.89,17.7-1-.24,9.17h0v0s0,.08,0,.12,0,.08,0,.11.07,0,.1.06,0,.05.08.05h0l3.13-.11,30-1Zm3.28-.05-2.76,0,.17-9,2.75,0Zm-2.84-9.69h0l-30,1,.21-8.66,10.8.28h0l17.54.13,37.73.12h0l74.81-.2,72.45.14,70.26.4,48.16.82,39.88,1,22.45,1.18h0l7.08.68h0l16.41.54h0l6.15.15,2.58.07,21.9.53,19.38.84h0l21.53,1.78.63.69.11,1.38-8.15-.41h0l-24.74-.46h0L755.54,975h0l-102.71.13-109.24.4Zm46.83,9.12h0l-43.46.57.15-8.94,109-.39,102.7-.13,211.93,2.45,24.74.46,8.45.43,1.17.06h0l23.66.82h0l28.7.62h0l9.61.83.41,4.59-118.48-.52-358.58-.85Zm.26.7,358.32.85,118.78.53,34.36.12,41.49.38,6.7.83.69,6.38,0,.46-6.46.75-41.49.35L723,997.18l-135.73.13Zm286.41,13.58-70,1L642.17,998l80.87-.07h0l376.81-1.24,41.5-.35h0l6.75-.77h0s.06,0,.08-.06.07,0,.09-.07a.42.42,0,0,0,0-.12.61.61,0,0,0,0-.13h0l0-.43,9.49,0,63.75.44,18.41.3a.33.33,0,0,0-.1.06h0s0,.09-.06.16,0,.05,0,.08h0a.37.37,0,0,0,0,.14.32.32,0,0,1,0,.09.28.28,0,0,0,.12.08s0,0,.06,0l8.84.24-39.61.54-229.07,1.55-106.36.43Z"/><path class="cls-3" d="M763.79,929.36l.07.21a.39.39,0,0,0,.13.17h0l.15.09a.17.17,0,0,0,.1,0,.19.19,0,0,0,.1,0l.15-.09,0,0a.37.37,0,0,0,.11-.15v0h0l.06-.21h0a.4.4,0,0,0,0-.11.85.85,0,0,0,0-.16l-.07-.21a.34.34,0,0,0-.08-.09s0-.07-.06-.09l-.16-.09a.23.23,0,0,0-.2,0h0l-.15.09a0,0,0,0,1,0,0,.31.31,0,0,0-.08.11.35.35,0,0,0,0,.08h0l-.06.22s0,.09,0,.14A.48.48,0,0,0,763.79,929.36Z"/><path class="cls-3" d="M762.47,932.91s0,.05,0,.08a.19.19,0,0,0,0,.08l.13.34a.24.24,0,0,0,.13.13s0,0,0,0l.58.31.09,0h1.9a.2.2,0,0,0,.14-.06l.76-.64s0,0,0,0a.37.37,0,0,0,.05-.11.53.53,0,0,0,0-.12s0,0,0,0l-.09-3.28,0-1.05a.24.24,0,0,0,0-.09s0-.06,0-.09l-.08-.15,0-.05a.61.61,0,0,1,0-.06l-.26-.2h-.07s0,0-.06,0h-2.73s0,0-.07,0h-.07l-.22.2s0,.06,0,.08,0,0-.06.08l-.09.29s0,0,0,.08,0,.05,0,.07l0,1.08Zm3.37-.2-.56.48h-1.77l-.46-.24-.06-.14-.07-2.34h0l.06,0,0,0,.75.21h.94l.72-.31h0l.29-.21Zm-2.93-4.06.09-.08h2.59l.13.11,0,.73-.49.37-.65.27h-.74l-.67-.19-.29-.27,0-.82Z"/><path class="cls-3" d="M353.15,840.08s0-.06,0-.08,0,0,0,0,0,0,0-.06,0,0-.05,0a.14.14,0,0,0-.09-.05l0,0-26.59-3h0c-.15,0-.25.12-.26.31l0,.27L320.64,920h0v0a.42.42,0,0,0,0,.12.35.35,0,0,0,0,.12s.06,0,.09.06,0,.06.08.06h0l26.76,1.39.41,0h0a.22.22,0,0,0,.18-.1s0-.06,0-.09a.5.5,0,0,0,.05-.13h0l4.84-81.3S353.15,840.11,353.15,840.08Zm-5.72,81-26.25-1.36,5.35-81.9,25.69,2.89Z"/></g></svg>