<svg xmlns="http://www.w3.org/2000/svg" width="46.94" height="46.94" viewBox="0 0 46.94 46.94">
  <g id="Group_3" data-name="Group 3" transform="translate(-78 -2278)">
    <rect id="Rectangle_14" data-name="Rectangle 14" width="46.94" height="46.94" rx="5" transform="translate(78 2278)" fill="#fff"/>
    <path id="Icon_awesome-facebook-square" data-name="Icon awesome-facebook-square" d="M41.91,2.25H5.029A5.029,5.029,0,0,0,0,7.279V44.16A5.029,5.029,0,0,0,5.029,49.19H19.41V33.231h-6.6V25.72h6.6V19.995c0-6.512,3.877-10.109,9.814-10.109a39.989,39.989,0,0,1,5.817.507v6.391H31.765c-3.228,0-4.235,2-4.235,4.058V25.72h7.207l-1.153,7.511H27.53V49.19H41.91A5.029,5.029,0,0,0,46.94,44.16V7.279A5.029,5.029,0,0,0,41.91,2.25Z" transform="translate(78 2275.75)" fill="#3b7dff"/>
  </g>
</svg>
