<svg xmlns="http://www.w3.org/2000/svg" width="104.768" height="56" viewBox="0 0 104.768 56">
  <g id="logo" transform="translate(-123.85 -262.831)">
    <g id="Path_1" data-name="Path 1" fill="#da213d">
      <path d="M 163.8707122802734 318.0643310546875 L 163.8695373535156 318.0643310546875 L 163.8670043945313 318.0643310546875 L 150.8707427978516 318.0643310546875 C 150.5756378173828 318.0643310546875 150.2965393066406 317.9560241699219 150.0835266113281 317.7593688964844 C 149.8568115234375 317.5499572753906 149.7268524169922 317.2552185058594 149.7268524169922 316.9506530761719 L 149.7268371582031 306.5231323242188 L 139.8864288330078 306.5231628417969 L 139.8864288330078 316.9465637207031 C 139.8864288330078 317.5606079101563 139.3739318847656 318.0601806640625 138.7439880371094 318.0601806640625 L 125.7438888549805 318.0601806640625 C 125.4487228393555 318.0601806640625 125.1697311401367 317.951904296875 124.9567184448242 317.7552490234375 C 124.7299728393555 317.5458374023438 124.5999908447266 317.2511291503906 124.5999908447266 316.9465637207031 L 124.5999908447266 278.6673889160156 C 124.5994186401367 278.3892517089844 124.7057647705078 278.1217651367188 124.8994445800781 277.915771484375 L 137.9014282226563 263.9466247558594 C 138.1160125732422 263.7146301269531 138.4253540039063 263.58056640625 138.74853515625 263.58056640625 C 138.8785858154297 263.58056640625 139.0067291259766 263.6019897460938 139.12939453125 263.6442565917969 C 139.5866851806641 263.8018493652344 139.8926391601563 264.2254333496094 139.8908386230469 264.6983642578125 L 139.8908386230469 294.4157409667969 L 149.7298126220703 294.4157409667969 L 149.7297973632813 272.0888366699219 C 149.7319946289063 271.6283569335938 150.0146484375 271.2242126464844 150.4498901367188 271.0556030273438 C 150.5846862792969 271.0033264160156 150.7268218994141 270.9767761230469 150.8721160888672 270.9767761230469 C 151.1618957519531 270.9767761230469 151.4382476806641 271.0825805664063 151.6502685546875 271.2747497558594 L 164.6538543701172 283.2086791992188 C 164.8831481933594 283.418701171875 165.0143432617188 283.7159118652344 165.0132751464844 284.0235900878906 L 165.0132904052734 316.9507141113281 C 165.0132904052734 317.2551879882813 164.8833465576172 317.5498657226563 164.6567993164063 317.7591857910156 C 164.4435119628906 317.9560546875 164.1644439697266 318.0643310546875 163.8707122802734 318.0643310546875 Z" stroke="none"/>
      <path d="M 138.74853515625 264.33056640625 C 138.6361083984375 264.33056640625 138.5264739990234 264.3753662109375 138.4504241943359 264.4576110839844 L 125.4458770751953 278.4294738769531 C 125.3838806152344 278.4954223632813 125.3498077392578 278.5799865722656 125.3499908447266 278.6673889160156 L 125.3499908447266 316.9465637207031 C 125.3499908447266 317.043212890625 125.3915405273438 317.1358947753906 125.4654541015625 317.2041625976563 C 125.5389862060547 317.2720336914063 125.6385192871094 317.3101806640625 125.7422637939453 317.3101806640625 C 125.7428131103516 317.3101806640625 125.7433471679688 317.3101806640625 125.743896484375 317.3101806640625 L 138.7439880371094 317.3101806640625 C 138.9607238769531 317.3101806640625 139.1364288330078 317.1473999023438 139.1364288330078 316.9465637207031 L 139.1364288330078 306.1381530761719 C 139.1360321044922 306.0412292480469 139.1774139404297 305.9482116699219 139.2513732910156 305.8796081542969 C 139.3249359130859 305.8114624023438 139.4246978759766 305.7731628417969 139.5287170410156 305.7731628417969 C 139.5292510986328 305.7731628417969 139.52978515625 305.7731628417969 139.5303344726563 305.7731628417969 L 150.0829467773438 305.7731323242188 C 150.0834350585938 305.7731323242188 150.0839385986328 305.7731323242188 150.0844421386719 305.7731323242188 C 150.1884918212891 305.7731323242188 150.2883148193359 305.8114318847656 150.3619079589844 305.8796081542969 C 150.4358673095703 305.9482116699219 150.4772186279297 306.0412292480469 150.4768371582031 306.1381530761719 L 150.4768524169922 316.9506530761719 C 150.4768524169922 317.0473327636719 150.5183868408203 317.1400451660156 150.5923004150391 317.2083129882813 C 150.6658935546875 317.2762451171875 150.7655639648438 317.3143310546875 150.8694000244141 317.3143310546875 C 150.8698577880859 317.3143310546875 150.8702850341797 317.3143310546875 150.8707427978516 317.3143310546875 L 163.8693695068359 317.3143310546875 C 163.8698120117188 317.3143310546875 163.8702697753906 317.3143310546875 163.8707122802734 317.3143310546875 C 163.9745483398438 317.3143310546875 164.07421875 317.2762451171875 164.1478271484375 317.2083129882813 C 164.2217254638672 317.1400451660156 164.2632904052734 317.0473327636719 164.2632904052734 316.9507141113281 L 164.2632751464844 284.02099609375 C 164.2636108398438 283.9234008789063 164.2216186523438 283.829833984375 164.146728515625 283.76123046875 L 151.1466217041016 271.8304748535156 C 151.0718383789063 271.7626953125 150.9727935791016 271.7267761230469 150.8721160888672 271.7267761230469 C 150.8211212158203 271.7267761230469 150.7697143554688 271.7359924316406 150.7208251953125 271.7549438476563 C 150.5753936767578 271.811279296875 150.4804992675781 271.9427795410156 150.4797973632813 272.0888366699219 L 150.4797973632813 294.8006591796875 C 150.4801940917969 294.8976440429688 150.4388275146484 294.9906616210938 150.3648529052734 295.0592041015625 C 150.2912292480469 295.12744140625 150.1913452148438 295.1657409667969 150.0872344970703 295.1657409667969 C 150.0867919921875 295.1657409667969 150.0863342285156 295.1657409667969 150.0858917236328 295.1657409667969 L 139.5347290039063 295.1657409667969 C 139.5342864990234 295.1657409667969 139.5338287353516 295.1657409667969 139.5333862304688 295.1657409667969 C 139.4292907714844 295.1657409667969 139.3294219970703 295.12744140625 139.2557830810547 295.0592041015625 C 139.1818237304688 294.9906616210938 139.1404571533203 294.8976440429688 139.1408386230469 294.8006591796875 L 139.1408386230469 264.6955261230469 C 139.1414184570313 264.5430908203125 139.0393524169922 264.406494140625 138.8851776123047 264.3533630371094 C 138.8405609130859 264.3380126953125 138.7943115234375 264.33056640625 138.74853515625 264.33056640625 M 138.74853515625 262.83056640625 C 138.9619445800781 262.83056640625 139.1723175048828 262.8657531738281 139.3737945556641 262.9351806640625 C 140.133544921875 263.1969909667969 140.6423034667969 263.9049072265625 140.6408386230469 264.6975708007813 L 140.6408386230469 293.6657409667969 L 148.9797973632813 293.6657409667969 L 148.9797973632813 272.0888366699219 L 148.9797973632813 272.0852355957031 L 148.9798278808594 272.0816345214844 C 148.9835052490234 271.3142395019531 149.4542236328125 270.636962890625 150.1790466308594 270.356201171875 C 150.4004058837891 270.2703857421875 150.6337585449219 270.2267761230469 150.8721160888672 270.2267761230469 C 151.3485565185547 270.226806640625 151.8037109375 270.401611328125 152.1539154052734 270.718994140625 L 152.1573944091797 270.72216796875 L 152.1608581542969 270.725341796875 L 165.1609649658203 282.6560974121094 C 165.5439147949219 283.0068969726563 165.7636413574219 283.5045166015625 165.7632751464844 284.0211791992188 L 165.7632904052734 316.9507141113281 C 165.7632904052734 317.4637756347656 165.5454711914063 317.9592590332031 165.1656799316406 318.3101196289063 C 164.8132934570313 318.6354064941406 164.3535461425781 318.8143310546875 163.8707122802734 318.8143310546875 L 150.8707427978516 318.8143310546875 C 150.3865814208984 318.8143310546875 149.9268341064453 318.6354064941406 149.5748748779297 318.3105163574219 C 149.1947174072266 317.9594116210938 148.9768524169922 317.4638671875 148.9768524169922 316.9506530761719 L 148.9768371582031 307.2731323242188 L 140.6364288330078 307.2731628417969 L 140.6364288330078 316.9465637207031 C 140.6364288330078 317.9741516113281 139.7874755859375 318.8101806640625 138.7439880371094 318.8101806640625 L 125.743896484375 318.8101806640625 C 125.2596435546875 318.8101806640625 124.8000183105469 318.6312561035156 124.4480590820313 318.306396484375 C 124.0678253173828 317.9551696777344 123.8499908447266 317.4596862792969 123.8499908447266 316.9465637207031 L 123.8499908447266 278.6673889160156 C 123.8490295410156 278.2001037597656 124.0265197753906 277.7510070800781 124.3498687744141 277.4053649902344 L 137.3524322509766 263.4356384277344 C 137.7068786621094 263.0523986816406 138.2169189453125 262.83056640625 138.74853515625 262.83056640625 Z" stroke="none" fill="#fff"/>
    </g>
    <g id="Ellipse_1" data-name="Ellipse 1" transform="translate(168.306 279.467)" stroke="#fff" stroke-width="1.5">
      <ellipse cx="4.702" cy="6.217" rx="4.702" ry="6.217" stroke="none"/>
      <ellipse cx="4.702" cy="6.217" rx="5.452" ry="6.967" fill="none"/>
    </g>
    <g id="Path_2" data-name="Path 2" transform="translate(-250.279 -180.521)">
      <path d="M 430.0678405761719 498.5924682617188 L 429.3178405761719 498.5924682617188 L 417.1512451171875 498.5924682617188 L 416.1112670898438 498.5924682617188 L 416.4346923828125 497.6204223632813 C 416.5084228515625 497.3624267578125 417.7782287597656 492.8937072753906 418.8633422851563 488.1026611328125 C 419.4959411621094 485.3095703125 419.9307861328125 482.9973754882813 420.15576171875 481.2303466796875 C 420.5353698730469 478.2487182617188 420.2030639648438 477.7007446289063 420.1639099121094 477.6481018066406 C 420.0636291503906 477.5220947265625 419.8760986328125 477.3543090820313 419.4093017578125 477.3543090820313 C 418.5745544433594 477.3543090820313 417.2655944824219 477.89208984375 415.7232971191406 478.8687438964844 C 415.5390319824219 478.9867248535156 415.326171875 479.049072265625 415.1073913574219 479.049072265625 C 414.7926635742188 479.049072265625 414.4887390136719 478.9173889160156 414.2735900878906 478.6877746582031 C 413.8953857421875 478.2842102050781 413.8603820800781 477.6690368652344 414.1903991699219 477.22509765625 C 415.0682678222656 476.0372314453125 416.459228515625 474.3271789550781 418.0934448242188 472.9358520507813 C 420.0505981445313 471.26953125 421.9207458496094 470.4246520996094 423.6520080566406 470.4246520996094 C 423.9562683105469 470.4246520996094 424.2597045898438 470.4511413574219 424.553955078125 470.5033569335938 C 426.0802612304688 470.7720031738281 427.2486572265625 472.4154357910156 428.1248779296875 475.5273742675781 C 428.7624206542969 477.7916870117188 429.2546691894531 480.86767578125 429.5879821777344 484.669921875 C 430.1526489257813 491.1113586425781 430.0717163085938 497.5650939941406 430.0678405761719 497.8472595214844 L 430.0678405761719 498.5924682617188 Z" stroke="none"/>
      <path d="M 423.6520080566406 471.1746520996094 C 420.1320495605469 471.1741638183594 416.5989074707031 475.2279968261719 414.7922973632813 477.6725463867188 C 414.6790466308594 477.8248901367188 414.6911010742188 478.0364685058594 414.8208923339844 478.1749572753906 C 414.8973999023438 478.256591796875 415.0018615722656 478.299072265625 415.1073913574219 478.299072265625 C 415.1809387207031 478.299072265625 415.2550048828125 478.2784423828125 415.3204650878906 478.236083984375 C 416.5491027832031 477.4579162597656 418.1731262207031 476.6044311523438 419.4093017578125 476.6043090820313 C 419.9542846679688 476.604248046875 420.4236450195313 476.7700500488281 420.7509155273438 477.1812744140625 C 422.4415893554688 479.3027038574219 417.1585998535156 497.8203430175781 417.1512451171875 497.8424682617188 L 429.3178405761719 497.8424682617188 C 429.3178405761719 497.8203430175781 429.7117004394531 472.1726989746094 424.4228820800781 471.2418212890625 C 424.1666564941406 471.1963500976563 423.9090576171875 471.1746826171875 423.6520080566406 471.1746520996094 M 423.6513671875 469.6746520996094 L 423.6514892578125 469.6746520996094 L 423.6522216796875 469.6746520996094 C 424.0003662109375 469.6746826171875 424.3478698730469 469.7050476074219 424.68505859375 469.764892578125 C 425.7427368164063 469.9510803222656 426.6597900390625 470.6467590332031 427.4086608886719 471.8323059082031 C 427.9610290527344 472.7067565917969 428.4314270019531 473.8489074707031 428.8468017578125 475.3240966796875 C 429.4969787597656 477.6333312988281 429.9977416992188 480.7556762695313 430.3351135253906 484.6044006347656 C 430.8999633789063 491.0479736328125 430.8225402832031 497.5032653808594 430.8178405761719 497.8524169921875 L 430.8178405761719 499.3424682617188 L 429.3178405761719 499.3424682617188 L 417.1512451171875 499.3424682617188 L 415.0715942382813 499.3424682617188 L 415.7178344726563 497.3993225097656 C 415.8190307617188 497.0432739257813 417.0066223144531 492.8402099609375 418.0361633300781 488.3566284179688 C 419.7876586914063 480.7290344238281 419.6329040527344 478.6077880859375 419.5323181152344 478.1122741699219 C 419.5023803710938 478.1078491210938 419.461669921875 478.1042785644531 419.4094543457031 478.1043090820313 C 419.0856323242188 478.1043395996094 418.1178283691406 478.2405090332031 416.1267700195313 479.5009460449219 C 415.8217468261719 479.6960144042969 415.4695129394531 479.799072265625 415.1073913574219 479.799072265625 C 414.5860290527344 479.799072265625 414.0826416015625 479.5809020996094 413.7262878417969 479.2005310058594 C 413.0997924804688 478.5320739746094 413.0417785644531 477.5130310058594 413.5885009765625 476.7776489257813 C 414.488525390625 475.559814453125 415.9187316894531 473.8023071289063 417.6069030761719 472.3648681640625 C 419.7033996582031 470.5797729492188 421.7370300292969 469.6746520996094 423.6513671875 469.6746520996094 Z" stroke="none" fill="#fff"/>
    </g>
    <g id="Path_3" data-name="Path 3" transform="translate(-358.345 -151.43)">
      <path d="M 550.6793212890625 469.4961853027344 C 548.6712036132813 469.4961853027344 546.9818725585938 469.2410583496094 545.6582641601563 468.7379150390625 C 544.4674072265625 468.2852478027344 543.5335693359375 467.6191101074219 542.8826293945313 466.7579956054688 C 541.6987915039063 465.1919860839844 541.6987915039063 463.3668518066406 541.6987915039063 462.1591186523438 L 541.6987915039063 449.3749389648438 L 539.723876953125 449.3749389648438 C 539.0952758789063 449.3749389648438 538.5821533203125 448.8635864257813 538.5800170898438 448.2350769042969 L 538.5800170898438 446.4120483398438 L 538.5800170898438 446.4088745117188 L 538.580078125 446.4057006835938 C 538.5848388671875 445.8365783691406 538.9962768554688 445.36474609375 539.5589599609375 445.2821960449219 C 546.171875 444.2820739746094 547.9815673828125 438.3432312011719 548.2772827148438 437.1627502441406 C 548.40625 436.6539306640625 548.861083984375 436.2999572753906 549.3839111328125 436.2999572753906 L 551.2251586914063 436.2999572753906 C 551.8563842773438 436.3023681640625 552.3675537109375 436.8154907226563 552.3675537109375 437.44384765625 L 552.3675537109375 445.32275390625 L 556.984619140625 445.3227233886719 C 557.2904663085938 445.3227233886719 557.5778198242188 445.4420776367188 557.7938232421875 445.6587829589844 C 558.0067749023438 445.872314453125 558.1282348632813 446.16796875 558.1270141601563 446.4697265625 L 558.1270141601563 448.2369384765625 C 558.1270141601563 448.8668823242188 557.6145629882813 449.37939453125 556.984619140625 449.37939453125 L 552.3630981445313 449.37939453125 L 552.3630981445313 462.1222229003906 C 552.3630981445313 464.7899780273438 552.5613403320313 465.7980346679688 554.6624755859375 465.7980346679688 C 556.720458984375 465.7980346679688 556.9508666992188 464.7562255859375 556.9618530273438 462.5448608398438 C 556.96435546875 461.9197998046875 557.4755249023438 461.4086303710938 558.1013793945313 461.4061584472656 L 558.1078491210938 461.4061279296875 L 558.1143798828125 461.4062194824219 L 558.5584106445313 461.4121398925781 C 559.1812133789063 461.4190979003906 559.68603515625 461.9242858886719 559.6907958984375 462.5442810058594 C 559.700927734375 463.7476501464844 559.7178344726563 465.7626037597656 558.17333984375 467.3201293945313 C 556.7213745117188 468.7843933105469 554.27001953125 469.4961853027344 550.6793212890625 469.4961853027344 Z" stroke="none"/>
      <path d="M 550.6793212890625 468.7461853027344 C 558.9009399414063 468.7461853027344 558.9600219726563 464.8352661132813 558.9407958984375 462.550048828125 C 558.9391479492188 462.3352355957031 558.7645874023438 462.1620788574219 558.5499877929688 462.1620788574219 C 558.5494384765625 462.1620788574219 558.5488891601563 462.1620788574219 558.5484008789063 462.1620788574219 L 558.1043701171875 462.1561584472656 C 557.887939453125 462.1570129394531 557.7127075195313 462.3321838378906 557.7118530273438 462.548583984375 C 557.7015991210938 464.615478515625 557.531982421875 466.5480346679688 554.6624755859375 466.5480346679688 C 551.6130981445313 466.5480346679688 551.6130981445313 464.3543090820313 551.6130981445313 462.1222229003906 L 551.6130981445313 449.0232543945313 C 551.6139526367188 448.8060913085938 551.7898559570313 448.6301879882813 552.0070190429688 448.62939453125 L 556.984619140625 448.62939453125 C 557.2013549804688 448.62939453125 557.3770141601563 448.4536743164063 557.3770141601563 448.2369384765625 L 557.3770141601563 446.4666442871094 C 557.37744140625 446.3623352050781 557.3362426757813 446.2620849609375 557.2625732421875 446.1882019042969 C 557.1889038085938 446.1142883300781 557.0889892578125 446.0727233886719 556.984619140625 446.0727233886719 L 552.011474609375 446.07275390625 C 551.7939453125 446.07275390625 551.6175537109375 445.8963928222656 551.6175537109375 445.6788635253906 L 551.6175537109375 437.44384765625 C 551.6175537109375 437.2268981933594 551.4420776367188 437.05078125 551.2251586914063 437.0499572753906 L 549.3854370117188 437.0499572753906 C 549.3849487304688 437.0499572753906 549.3843994140625 437.0499572753906 549.3839111328125 437.0499572753906 C 549.2049560546875 437.0499572753906 549.048828125 437.1714172363281 549.0048217773438 437.3450317382813 C 548.6463012695313 438.7760620117188 546.697509765625 444.9618530273438 539.6693115234375 446.0240478515625 C 539.4757690429688 446.0517578125 539.3316650390625 446.2166442871094 539.3300170898438 446.4120483398438 L 539.3300170898438 448.2325439453125 C 539.3307495117188 448.4495239257813 539.5069580078125 448.6249389648438 539.723876953125 448.6249389648438 L 542.0562744140625 448.6249389648438 C 542.2733154296875 448.6257629394531 542.4487915039063 448.8018798828125 542.4487915039063 449.0188293457031 L 542.4487915039063 462.1591186523438 C 542.4487915039063 464.4339904785156 542.4575805664063 468.7461853027344 550.6793212890625 468.7461853027344 M 550.6793212890625 470.2461853027344 C 548.579833984375 470.2461853027344 546.8008422851563 469.974609375 545.3917846679688 469.43896484375 C 544.067138671875 468.9354248046875 543.0216064453125 468.1856079101563 542.2843017578125 467.2102966308594 C 540.9487915039063 465.4435729980469 540.9487915039063 463.3875427246094 540.9487915039063 462.1591186523438 L 540.9487915039063 450.1249389648438 L 539.723876953125 450.1249389648438 C 538.68310546875 450.1249389648438 537.8335571289063 449.2782897949219 537.8300170898438 448.2376098632813 L 537.8300170898438 448.2350769042969 L 537.8300170898438 448.2325439453125 L 537.8300170898438 446.4120483398438 L 537.8300170898438 446.4057006835938 L 537.830078125 446.3993835449219 C 537.8380126953125 445.4581298828125 538.5180053710938 444.6776733398438 539.4483032226563 444.5404052734375 C 545.43505859375 443.6338500976563 547.162841796875 438.5249633789063 547.5498046875 436.9804992675781 C 547.763671875 436.1365966796875 548.5174560546875 435.5499572753906 549.3839111328125 435.5499572753906 L 551.2251586914063 435.5499572753906 L 551.22802734375 435.5499572753906 L 551.2308959960938 435.5499572753906 C 552.2711791992188 435.553955078125 553.1175537109375 436.4035339355469 553.1175537109375 437.44384765625 L 553.1175537109375 444.57275390625 L 556.984619140625 444.5727233886719 C 557.4912719726563 444.5727233886719 557.96728515625 444.7704162597656 558.3250122070313 445.1293334960938 C 558.6770629882813 445.4823608398438 558.8782348632813 445.9708557128906 558.8770141601563 446.4697265625 L 558.8770141601563 448.2369384765625 C 558.8770141601563 449.2804565429688 558.028076171875 450.12939453125 556.984619140625 450.12939453125 L 553.1130981445313 450.12939453125 L 553.1130981445313 462.1222229003906 C 553.1130981445313 463.0531616210938 553.1130981445313 464.0158386230469 553.356689453125 464.5445556640625 C 553.437744140625 464.7205200195313 553.588623046875 465.0480346679688 554.6624755859375 465.0480346679688 C 555.7022094726563 465.0480346679688 555.8695068359375 464.7396545410156 555.9409790039063 464.6079711914063 C 556.1837158203125 464.1607055664063 556.2080688476563 463.3066101074219 556.2118530273438 462.5411376953125 C 556.2160034179688 461.5065307617188 557.062255859375 460.6602783203125 558.098388671875 460.6561584472656 L 558.1113891601563 460.6561279296875 L 558.1243896484375 460.6562805175781 L 558.5626831054688 460.6621398925781 C 559.5924072265625 460.6697998046875 560.432861328125 461.5085754394531 560.4407348632813 462.5385131835938 C 560.4511108398438 463.7715759277344 560.470458984375 466.0688171386719 558.7059326171875 467.8482360839844 C 557.1058959960938 469.4617919921875 554.4803466796875 470.2461853027344 550.6793212890625 470.2461853027344 Z" stroke="none" fill="#fff"/>
    </g>
    <g id="Path_4" data-name="Path 4" transform="translate(-496.152 -203.099)" fill="#da213d">
      <path d="M 707.0179443359375 521.1793212890625 L 707.0151977539063 521.1793212890625 C 704.71875 521.1792602539063 702.50048828125 520.4984130859375 700.6001586914063 519.21044921875 L 700.5946655273438 519.2067260742188 L 700.5891723632813 519.202880859375 C 700.5542602539063 519.1782836914063 700.518798828125 519.173095703125 700.4951782226563 519.173095703125 C 700.4708862304688 519.173095703125 700.4476318359375 519.1783447265625 700.42578125 519.1885986328125 C 700.2025146484375 519.3193359375 700.0298461914063 519.6923217773438 699.962890625 520.1900024414063 L 699.96240234375 520.1936645507813 L 699.9618530273438 520.1973876953125 C 699.8812255859375 520.754638671875 699.3958740234375 521.1748657226563 698.8328247070313 521.1748657226563 L 698.830322265625 521.1748657226563 L 698.8252563476563 521.1748657226563 L 698.2401123046875 521.1748657226563 C 697.6088256835938 521.17236328125 697.0975952148438 520.6592407226563 697.0975952148438 520.031005859375 L 697.0975952148438 510.7943115234375 C 697.0975952148438 510.1643676757813 697.610107421875 509.6518859863281 698.2401123046875 509.6518859863281 L 698.8994750976563 509.6518249511719 L 698.9024047851563 509.6518249511719 C 698.8250122070313 509.5845031738281 698.74951171875 509.5150756835938 698.6760864257813 509.4436950683594 L 698.6600952148438 509.4281616210938 L 698.6450805664063 509.4117126464844 C 698.0449829101563 508.75439453125 697.615234375 507.9510498046875 697.4013061523438 507.087158203125 C 697.2310180664063 506.5198059082031 697.1270751953125 505.9325866699219 697.0922241210938 505.3410339355469 C 697.0799560546875 505.19482421875 697.0799560546875 505.060302734375 697.0799560546875 504.9300842285156 C 697.0799560546875 502.9188537597656 697.9374389648438 500.9615783691406 699.4325561523438 499.5600891113281 C 700.3165893554688 498.7313842773438 701.4171142578125 498.0859069824219 702.7035522460938 497.6416015625 C 704.109130859375 497.1561279296875 705.745361328125 496.9099731445313 707.5667114257813 496.9099731445313 C 709.732421875 496.9151000976563 711.8060913085938 497.5839538574219 713.5652465820313 498.8442077636719 L 713.5707397460938 498.8481140136719 L 713.5761108398438 498.8521118164063 C 713.611328125 498.8783264160156 713.6474609375 498.8837890625 713.6715698242188 498.8837890625 C 713.6979370117188 498.8837890625 713.7362060546875 498.8775329589844 713.772216796875 498.8484191894531 C 713.9412231445313 498.6854858398438 714.0745849609375 498.3332214355469 714.1298828125 497.90234375 L 714.1303100585938 497.8989868164063 L 714.1307983398438 497.8956298828125 C 714.2080688476563 497.3337097167969 714.6939697265625 496.9099731445313 715.2611083984375 496.9099731445313 L 715.2631225585938 496.9099731445313 L 715.267333984375 496.9099731445313 L 715.7796020507813 496.9099731445313 C 716.4094848632813 496.9099731445313 716.9219360351563 497.4224853515625 716.9219360351563 498.0524291992188 L 716.9219360351563 506.0999755859375 C 716.9219360351563 506.7283630371094 716.4107666015625 507.2415466308594 715.7824096679688 507.2439270019531 L 715.2440795898438 507.2439270019531 C 714.7052612304688 507.2439270019531 714.2361450195313 506.8627624511719 714.1263427734375 506.3375854492188 L 714.1251220703125 506.3318481445313 L 714.1240234375 506.3260803222656 C 713.8417358398438 504.8616943359375 712.9164428710938 503.1360168457031 711.709228515625 501.8224792480469 C 710.3888549804688 500.3858032226563 708.9224243164063 499.5946044921875 707.580078125 499.5946044921875 C 707.0753784179688 499.5946044921875 706.4092407226563 499.6794128417969 706.1018676757813 500.0835266113281 C 705.8441772460938 500.4222717285156 705.8868408203125 500.914794921875 705.95263671875 501.1523742675781 C 706.0685424804688 501.5697937011719 706.5659790039063 502.3156127929688 708.2769775390625 503.4956665039063 C 709.57421875 504.3903503417969 711.1513671875 505.2532653808594 712.5428466796875 506.0145874023438 C 713.9019775390625 506.7582092285156 714.9768676757813 507.3463439941406 715.531005859375 507.8152465820313 C 715.6141357421875 507.8828125 715.6837158203125 507.9478149414063 715.7452392578125 508.0054016113281 L 715.7926025390625 508.0494689941406 L 715.79638671875 508.0529479980469 L 715.800048828125 508.0564575195313 L 715.8576049804688 508.1110534667969 L 715.8648071289063 508.1178588867188 L 715.871826171875 508.1248779296875 L 716.0193481445313 508.2724304199219 L 716.021240234375 508.2743225097656 L 716.0231323242188 508.2762451171875 L 716.1205444335938 508.3750915527344 L 716.1263427734375 508.3809814453125 L 716.1320190429688 508.3869934082031 L 716.2057495117188 508.4651489257813 C 716.7745361328125 509.0634155273438 717.2385864257813 509.7498474121094 717.5828857421875 510.5032043457031 L 717.6499633789063 510.6488647460938 L 717.7186889648438 510.7981872558594 L 717.7186889648438 510.8294677734375 C 718.3243408203125 512.34375 718.3228759765625 514.0647583007813 717.710205078125 515.5784912109375 C 717.492431640625 516.1570434570313 717.2011108398438 516.7052001953125 716.8433837890625 517.20947265625 L 716.8377075195313 517.2261962890625 L 716.7686157226563 517.320068359375 C 715.4722900390625 519.0806274414063 712.7283935546875 521.1793212890625 707.0179443359375 521.1793212890625 Z M 699.9840087890625 510.438232421875 C 700.007568359375 510.5093994140625 700.0243530273438 510.5837097167969 700.0335693359375 510.6605529785156 C 700.0558471679688 510.8482055664063 700.0824584960938 511.034912109375 700.11279296875 511.2166442871094 C 700.83740234375 515.4306030273438 703.7385864257813 518.49169921875 707.0105590820313 518.49169921875 C 707.5825805664063 518.49169921875 708.3338012695313 518.3987426757813 708.6640014648438 517.9560546875 C 708.9097900390625 517.6266479492188 708.8648681640625 517.1670532226563 708.799560546875 516.947509765625 C 708.680419921875 516.5446166992188 708.1832275390625 515.8043212890625 706.4891967773438 514.559326171875 C 705.2032470703125 513.6141967773438 703.6072387695313 512.6533813476563 702.1990966796875 511.8056945800781 C 701.3846435546875 511.3153381347656 700.6091918945313 510.8485107421875 699.9840087890625 510.438232421875 Z" stroke="none"/>
      <path d="M 707.0151977539063 520.4293212890625 C 707.0162353515625 520.4293212890625 707.0169067382813 520.4293212890625 707.0179443359375 520.4293212890625 C 711.8862915039063 520.4293212890625 714.7188720703125 518.8389892578125 716.1646728515625 516.8753662109375 L 716.1691284179688 516.8621826171875 C 716.52001953125 516.3844604492188 716.8035278320313 515.8607177734375 717.011474609375 515.3057250976563 C 717.5768432617188 513.9157104492188 717.5614013671875 512.3572387695313 716.9686889648438 510.9786987304688 C 716.9686889648438 510.9786987304688 716.9686889648438 510.9684753417969 716.9686889648438 510.9625244140625 L 716.9007568359375 510.8149719238281 C 716.5916748046875 510.1387329101563 716.1724243164063 509.5186157226563 715.6600952148438 508.979736328125 L 715.5863647460938 508.9015502929688 L 715.4889526367188 508.8027038574219 L 715.3414306640625 508.6551513671875 L 715.2838745117188 508.6005554199219 C 715.2072143554688 508.52978515625 715.1364135742188 508.46044921875 715.05224609375 508.3926086425781 C 713.492919921875 507.0648498535156 705.9557495117188 503.9667358398438 705.2298583984375 501.3526000976563 C 705.0218505859375 500.6016845703125 705.0602416992188 498.8446044921875 707.580078125 498.8446044921875 C 710.9730834960938 498.8446044921875 714.243896484375 502.9857177734375 714.8604736328125 506.1841125488281 C 714.898193359375 506.3646850585938 715.0575561523438 506.4939270019531 715.2418212890625 506.4939270019531 C 715.2425537109375 506.4939270019531 715.2432861328125 506.4939270019531 715.2440795898438 506.4939270019531 L 715.7796020507813 506.4939270019531 C 715.99658203125 506.4931030273438 716.1719360351563 506.3169860839844 716.1719360351563 506.0999755859375 L 716.1719360351563 498.0524291992188 C 716.1719360351563 497.8356628417969 715.9962768554688 497.6599731445313 715.7796020507813 497.6599731445313 L 715.2632446289063 497.6599731445313 C 715.2625122070313 497.6599731445313 715.2617797851563 497.6599731445313 715.2611083984375 497.6599731445313 C 715.0657958984375 497.6599731445313 714.900390625 497.8041381835938 714.873779296875 497.997802734375 C 714.8236083984375 498.3887634277344 714.6805419921875 499.030517578125 714.2733764648438 499.4066772460938 C 714.10205078125 499.5574951171875 713.8871459960938 499.6337890625 713.671630859375 499.6337890625 C 713.481201171875 499.6338195800781 713.290283203125 499.5742492675781 713.1284790039063 499.4538879394531 C 711.50634765625 498.2918090820313 709.5621948242188 497.6647033691406 707.5667114257813 497.6599731445313 C 700.2257690429688 497.6599731445313 697.8299560546875 501.7627258300781 697.8299560546875 504.9300842285156 C 697.8299560546875 505.0510864257813 697.8299560546875 505.1691284179688 697.84033203125 505.2871398925781 C 697.87158203125 505.8305358886719 697.9671020507813 506.3683471679688 698.125 506.8892822265625 C 698.3079833984375 507.6410217285156 698.6773071289063 508.3346252441406 699.198974609375 508.9060363769531 C 699.3792724609375 509.0813598632813 699.572998046875 509.2421875 699.7787475585938 509.3869323730469 C 699.888916015625 509.4737548828125 700.003662109375 509.5545043945313 700.1224365234375 509.6288452148438 C 702.721923828125 511.3992004394531 708.8487548828125 514.46923828125 709.5184936523438 516.7337646484375 C 709.7412719726563 517.483154296875 709.6985473632813 519.24169921875 707.0105590820313 519.24169921875 C 703.272216796875 519.24169921875 700.1505737304688 515.8618774414063 699.373046875 511.3402099609375 C 699.3405151367188 511.1454772949219 699.3125610351563 510.94921875 699.2889404296875 510.7500610351563 C 699.2651977539063 510.5525817871094 699.098388671875 510.4034423828125 698.8995361328125 510.4018249511719 L 698.2401123046875 510.4018859863281 C 698.0233764648438 510.4018859863281 697.8475952148438 510.5775756835938 697.8475952148438 510.7943115234375 L 697.8475952148438 520.031005859375 C 697.8475952148438 520.2479858398438 698.0230712890625 520.4240112304688 698.2401123046875 520.4248657226563 L 698.8302001953125 520.4248657226563 C 698.8310546875 520.4248657226563 698.8319702148438 520.4248657226563 698.8328247070313 520.4248657226563 C 699.02685546875 520.4248657226563 699.1917724609375 520.2823486328125 699.2196044921875 520.0899658203125 C 699.2801513671875 519.6400146484375 699.471923828125 518.859619140625 700.0708618164063 518.5277099609375 C 700.2042846679688 518.4577026367188 700.3499755859375 518.423095703125 700.4951782226563 518.423095703125 C 700.6800537109375 518.423095703125 700.8640747070313 518.4791870117188 701.0209350585938 518.589599609375 C 702.7899169921875 519.7885131835938 704.8782348632813 520.4292602539063 707.0151977539063 520.4293212890625 M 707.0179443359375 521.9293212890625 L 707.0151977539063 521.9293212890625 C 704.784423828125 521.9292602539063 702.6226806640625 521.3262329101563 700.723876953125 520.1798706054688 C 700.7174682617188 520.2142333984375 700.7114868164063 520.2509155273438 700.7062377929688 520.2899780273438 L 700.7052001953125 520.29736328125 L 700.7041625976563 520.3048095703125 C 700.5704956054688 521.2283935546875 699.7659912109375 521.9248657226563 698.8328247070313 521.9248657226563 L 698.82421875 521.9248657226563 L 698.8231811523438 521.9248657226563 L 698.2401123046875 521.9248657226563 L 698.2371826171875 521.9248657226563 L 698.2342529296875 521.9248657226563 C 697.1939086914063 521.9207763671875 696.3475952148438 521.0712280273438 696.3475952148438 520.031005859375 L 696.3475952148438 510.7943115234375 C 696.3475952148438 510.0334777832031 696.7988891601563 509.3760986328125 697.4478759765625 509.0757751464844 C 697.0983276367188 508.5253295898438 696.8369140625 507.9197998046875 696.6777954101563 507.2853698730469 C 696.4946899414063 506.6704711914063 696.3824462890625 506.0343933105469 696.343994140625 505.3937072753906 C 696.3299560546875 505.2203063964844 696.3299560546875 505.0664978027344 696.3299560546875 504.9300842285156 C 696.3299560546875 502.7123413085938 697.2738647460938 500.5556335449219 698.9196166992188 499.0129089355469 C 699.8811645507813 498.111572265625 701.0718994140625 497.4116821289063 702.4586791992188 496.9327087402344 C 703.9432373046875 496.4199523925781 705.661865234375 496.1599731445313 707.5667114257813 496.1599731445313 C 709.6420288085938 496.1648864746094 711.6373291015625 496.7372436523438 713.384033203125 497.8218383789063 C 713.3847045898438 497.81689453125 713.3853149414063 497.8119201660156 713.385986328125 497.806884765625 L 713.3868408203125 497.8001708984375 L 713.3877563476563 497.79345703125 C 713.5158081054688 496.8622131347656 714.3211669921875 496.1599731445313 715.2611083984375 496.1599731445313 L 715.2662963867188 496.1599731445313 L 715.267822265625 496.1599731445313 L 715.7796020507813 496.1599731445313 C 716.8230590820313 496.1599731445313 717.6719360351563 497.0089111328125 717.6719360351563 498.0524291992188 L 717.6719360351563 506.0999755859375 C 717.6719360351563 506.8453979492188 717.2373657226563 507.4929504394531 716.6083374023438 507.8016052246094 L 716.6547241210938 507.8486633300781 L 716.6663208007813 507.8604125976563 L 716.6776123046875 507.8724060058594 L 716.7498779296875 507.9490356445313 C 717.3768920898438 508.609130859375 717.8865966796875 509.3635559082031 718.2650146484375 510.1914367675781 L 718.3312377929688 510.3352355957031 L 718.4686889648438 510.6338195800781 L 718.4686889648438 510.6893310546875 C 719.09033203125 512.3453369140625 719.0718383789063 514.207275390625 718.4088134765625 515.8515014648438 C 718.1820068359375 516.4520263671875 717.8833618164063 517.0226440429688 717.51953125 517.55126953125 L 717.5108032226563 517.5769653320313 L 717.37255859375 517.7647094726563 C 715.9736938476563 519.6646118164063 713.0418090820313 521.9293212890625 707.0179443359375 521.9293212890625 Z M 701.0455322265625 511.9855041503906 C 701.4513549804688 513.5403442382813 702.1885986328125 514.9254760742188 703.1669921875 515.9513549804688 C 703.9459228515625 516.76806640625 705.2450561523438 517.74169921875 707.0105590820313 517.74169921875 C 707.7305908203125 517.74169921875 708.0142822265625 517.57275390625 708.0628662109375 517.5076293945313 C 708.1107177734375 517.4434814453125 708.1117553710938 517.2656860351563 708.0806884765625 517.1611938476563 C 708.0485229492188 517.052490234375 707.8021850585938 516.4550170898438 706.0450439453125 515.1636352539063 C 704.786865234375 514.2389526367188 703.20654296875 513.28759765625 701.8123168945313 512.4482421875 C 701.5516357421875 512.2913208007813 701.294921875 512.1367797851563 701.0455322265625 511.9855041503906 Z M 707.580078125 500.3446044921875 C 706.9775390625 500.3446044921875 706.7396240234375 500.48388671875 706.6987915039063 500.5375671386719 C 706.6476440429688 500.6047973632813 706.6361083984375 500.8101501464844 706.6754150390625 500.9521789550781 C 706.7055053710938 501.0604553222656 706.9456787109375 501.6664123535156 708.7028198242188 502.8782348632813 C 709.9682006835938 503.7509765625 711.5272827148438 504.60400390625 712.90283203125 505.3566284179688 C 712.9696044921875 505.3931579589844 713.0357055664063 505.4293212890625 713.1011352539063 505.4651489257813 C 712.7018432617188 504.3880004882813 712.0052490234375 503.2529296875 711.156982421875 502.3299865722656 C 709.9974365234375 501.0682373046875 708.6936645507813 500.3446044921875 707.580078125 500.3446044921875 Z" stroke="none" fill="#fff"/>
    </g>
    <g id="Path_5" data-name="Path 5" transform="translate(-609.377 -155.681)">
      <path d="M 834.07275390625 451.4552612304688 L 834.0726928710938 451.4552612304688 L 834.0725708007813 451.4552612304688 C 832.0474243164063 451.4552612304688 830.39990234375 449.8077392578125 830.39990234375 447.7826538085938 C 830.39990234375 445.7575073242188 832.0474243164063 444.1099243164063 834.0725708007813 444.1099243164063 C 836.09765625 444.1099243164063 837.7451782226563 445.7574768066406 837.7451782226563 447.7825927734375 C 837.7435302734375 449.8060913085938 836.0961303710938 451.4535522460938 834.07275390625 451.4552612304688 Z M 834.0723266601563 445.01416015625 C 832.5459594726563 445.0143127441406 831.30419921875 446.2561950683594 831.30419921875 447.7826538085938 C 831.30419921875 449.3091430664063 832.5460815429688 450.551025390625 834.0725708007813 450.551025390625 C 835.5990600585938 450.551025390625 836.8410034179688 449.3091430664063 836.8410034179688 447.7826538085938 C 836.8387451171875 446.2585144042969 835.5966796875 445.0163879394531 834.0722045898438 445.01416015625 L 834.0723266601563 445.01416015625 Z" stroke="none"/>
      <path d="M 834.0725708007813 451.2052612304688 C 835.962158203125 451.2036743164063 837.49365234375 449.6722412109375 837.4951782226563 447.7825927734375 C 837.4951782226563 445.892333984375 835.9628295898438 444.3599243164063 834.0725708007813 444.3599243164063 C 832.1823120117188 444.3599243164063 830.64990234375 445.892333984375 830.64990234375 447.7826538085938 C 830.64990234375 449.6728515625 832.1823120117188 451.2052612304688 834.0725708007813 451.2052612304688 M 834.0725708007813 444.76416015625 C 835.7386474609375 444.7666015625 837.0885620117188 446.1165771484375 837.0910034179688 447.7826538085938 C 837.0910034179688 449.4496459960938 835.7395629882813 450.801025390625 834.0725708007813 450.801025390625 C 832.405517578125 450.801025390625 831.05419921875 449.4496459960938 831.05419921875 447.7826538085938 C 831.05419921875 446.1155395507813 832.405517578125 444.76416015625 834.0725708007813 444.76416015625 M 834.072998046875 451.7052612304688 L 834.07275390625 451.7052612304688 L 834.0725708007813 451.7052612304688 C 831.9096069335938 451.7052612304688 830.14990234375 449.9455871582031 830.14990234375 447.7826538085938 C 830.14990234375 445.6196594238281 831.9096069335938 443.8599243164063 834.0725708007813 443.8599243164063 C 836.2354736328125 443.8599243164063 837.9951782226563 445.61962890625 837.9951782226563 447.7825927734375 C 837.993408203125 449.9439086914063 836.2339477539063 451.7034301757813 834.072998046875 451.7052612304688 Z M 834.072021484375 445.26416015625 C 832.6836547851563 445.2644348144531 831.55419921875 446.3941345214844 831.55419921875 447.7826538085938 C 831.55419921875 449.1712951660156 832.6839599609375 450.301025390625 834.0725708007813 450.301025390625 C 835.4612426757813 450.301025390625 836.5910034179688 449.1712951660156 836.5910034179688 447.7826538085938 C 836.5889892578125 446.3963928222656 835.458984375 445.2663269042969 834.072021484375 445.26416015625 Z" stroke="none" fill="#fff"/>
    </g>
    <g id="Path_6" data-name="Path 6" transform="translate(-621.959 -165.077)">
      <path d="M 848.3336791992188 459.2307739257813 L 847.898681640625 459.2307739257813 L 847.3809204101563 459.2307739257813 L 847.235595703125 459.2307739257813 L 847.1636962890625 459.1044921875 L 846.37109375 457.7127075195313 L 846.1173095703125 457.7127075195313 L 846.1173095703125 458.9807434082031 L 846.1173095703125 459.2307434082031 L 845.8673095703125 459.2307434082031 L 845.409912109375 459.2307434082031 L 845.159912109375 459.2307434082031 L 845.159912109375 458.9807434082031 L 845.159912109375 455.3899230957031 L 845.159912109375 455.1399230957031 L 845.409912109375 455.1399230957031 L 846.5355834960938 455.1399230957031 C 847.8466796875 455.1399230957031 848.04248046875 455.9297180175781 848.04248046875 456.4004821777344 C 848.04248046875 456.9294128417969 847.794677734375 457.3329162597656 847.3515625 457.5451965332031 L 848.1146850585938 458.8549194335938 L 848.3336791992188 459.2307739257813 Z M 846.1173095703125 456.8423767089844 L 846.4692993164063 456.8423767089844 C 847.0867309570313 456.8423767089844 847.0867309570313 456.5549011230469 847.0867309570313 456.4004821777344 C 847.0867309570313 456.2265930175781 847.0867309570313 456.0101928710938 846.4692993164063 456.0101928710938 L 846.1173095703125 456.0101928710938 L 846.1173095703125 456.8423767089844 Z" stroke="none"/>
      <path d="M 847.898681640625 458.9807739257813 L 846.9840698242188 457.4110717773438 C 847.4724731445313 457.2915649414063 847.79248046875 456.9596252441406 847.79248046875 456.4004821777344 C 847.79248046875 455.6525268554688 847.267333984375 455.3899230957031 846.5355834960938 455.3899230957031 L 845.409912109375 455.3899230957031 L 845.409912109375 458.9807434082031 L 845.8673095703125 458.9807434082031 L 845.8673095703125 457.4627075195313 L 846.5164184570313 457.4627075195313 L 847.3809204101563 458.9807739257813 L 847.898681640625 458.9807739257813 M 845.8673095703125 455.7601928710938 L 846.4692993164063 455.7601928710938 C 847.0283813476563 455.7601928710938 847.3367309570313 455.9284057617188 847.3367309570313 456.4004821777344 C 847.3367309570313 456.8725891113281 847.0283813476563 457.0923767089844 846.4692993164063 457.0923767089844 L 845.8673095703125 457.0923767089844 L 845.8673095703125 455.7601928710938 M 848.7686767578125 459.4807739257813 L 847.898681640625 459.4807739257813 L 847.3809204101563 459.4807739257813 L 847.0902709960938 459.4807739257813 L 846.9464111328125 459.2282104492188 L 846.3673095703125 458.2112731933594 L 846.3673095703125 458.9807434082031 L 846.3673095703125 459.4807434082031 L 845.8673095703125 459.4807434082031 L 845.409912109375 459.4807434082031 L 844.909912109375 459.4807434082031 L 844.909912109375 458.9807434082031 L 844.909912109375 455.3899230957031 L 844.909912109375 454.8899230957031 L 845.409912109375 454.8899230957031 L 846.5355834960938 454.8899230957031 C 848.1212768554688 454.8899230957031 848.29248046875 455.9462890625 848.29248046875 456.4004821777344 C 848.29248046875 456.927001953125 848.0759887695313 457.3584594726563 847.692138671875 457.6331176757813 L 848.3306884765625 458.7290649414063 L 848.7686767578125 459.4807739257813 Z M 846.3673095703125 456.5923767089844 L 846.4692993164063 456.5923767089844 C 846.8367309570313 456.5923767089844 846.8367309570313 456.5076904296875 846.8367309570313 456.4004821777344 C 846.8367309570313 456.3489990234375 846.830078125 456.3231811523438 846.8268432617188 456.3136596679688 C 846.8087158203125 456.3025512695313 846.7230224609375 456.2601928710938 846.4692993164063 456.2601928710938 L 846.3673095703125 456.2601928710938 L 846.3673095703125 456.5923767089844 Z" stroke="none" fill="#fff"/>
    </g>
  </g>
</svg>
