<svg xmlns="http://www.w3.org/2000/svg" width="224.254" height="225.375" viewBox="0 0 224.254 225.375">
  <g id="photo_coming_soon" data-name="photo coming soon" transform="translate(0.007 -0.001)">
    <g id="Group_158" data-name="Group 158">
      <g id="Group_153" data-name="Group 153">
        <path id="Path_90" data-name="Path 90" d="M2.36,3.26H221.633a2.364,2.364,0,0,1,2.36,2.36V204.335a2.364,2.364,0,0,1-2.36,2.36H2.36A2.364,2.364,0,0,1,0,204.335V5.6A2.347,2.347,0,0,1,2.36,3.26Z" fill="#999" opacity="0"/>
      </g>
      <rect id="Rectangle_145" data-name="Rectangle 145" width="224.254" height="225.375" transform="translate(224.247 225.377) rotate(180)" fill="#ededed"/>
      <g id="Group_154" data-name="Group 154" transform="translate(5.061 3)">
        <path id="Path_91" data-name="Path 91" d="M71.931,134.084a30.169,30.169,0,0,1,4.819-.32,7.592,7.592,0,0,1,4.819,1.26,4.617,4.617,0,0,1,1.68,3.64,5.078,5.078,0,0,1-1.44,3.74,8.828,8.828,0,0,1-6.339,1.58v5.639h-3.54V134.084Zm3.54,7.139a4.864,4.864,0,0,0,1.2.1c1.9,0,3.06-.96,3.06-2.58,0-1.44-1-2.32-2.78-2.32a6.8,6.8,0,0,0-1.48.14Z" fill="#909999"/>
        <path id="Path_92" data-name="Path 92" d="M89.089,133.864v6.059h5.859v-6.059h3.56v15.758h-3.56v-6.6H89.089v6.6H85.51V133.864Z" fill="#909999"/>
        <path id="Path_93" data-name="Path 93" d="M116.046,141.583c0,5.159-3.14,8.3-7.739,8.3-4.679,0-7.419-3.54-7.419-8.019,0-4.719,3.02-8.259,7.659-8.259C113.406,133.6,116.046,137.243,116.046,141.583Zm-11.379.22c0,3.08,1.44,5.259,3.84,5.259s3.78-2.3,3.78-5.359c0-2.82-1.36-5.259-3.82-5.259C106.067,136.443,104.667,138.723,104.667,141.8Z" fill="#909999"/>
        <path id="Path_94" data-name="Path 94" d="M120.785,136.863h-4.239v-3h12.119v3h-4.3v12.758h-3.58Z" fill="#909999"/>
        <path id="Path_95" data-name="Path 95" d="M144.3,141.583c0,5.159-3.14,8.3-7.739,8.3-4.679,0-7.419-3.54-7.419-8.019,0-4.719,3.02-8.259,7.659-8.259C141.663,133.6,144.3,137.243,144.3,141.583Zm-11.4.22c0,3.08,1.44,5.259,3.84,5.259s3.78-2.3,3.78-5.359c0-2.82-1.36-5.259-3.82-5.259C134.324,136.443,132.9,138.723,132.9,141.8Z" fill="#909999"/>
      </g>
      <g id="Group_155" data-name="Group 155" transform="translate(6.598 3)">
        <path id="Path_96" data-name="Path 96" d="M54.033,171.3a7.23,7.23,0,0,1-3.16.64c-3.32,0-5.479-2.24-5.479-5.619a5.59,5.59,0,0,1,5.9-5.839,7.024,7.024,0,0,1,2.78.56l-.46,1.54a4.554,4.554,0,0,0-2.32-.52c-2.52,0-3.88,1.86-3.88,4.159a3.782,3.782,0,0,0,3.82,4.119,5.9,5.9,0,0,0,2.46-.54Z" fill="#909999"/>
        <path id="Path_97" data-name="Path 97" d="M66.192,166.12c0,4.06-2.82,5.839-5.479,5.839-2.98,0-5.279-2.18-5.279-5.659,0-3.68,2.4-5.839,5.459-5.839C64.052,160.48,66.192,162.76,66.192,166.12Zm-8.719.12c0,2.4,1.38,4.219,3.34,4.219,1.9,0,3.34-1.8,3.34-4.279,0-1.86-.94-4.219-3.3-4.219S57.473,164.16,57.473,166.24Z" fill="#909999"/>
        <path id="Path_98" data-name="Path 98" d="M68.712,163.7c0-1.14-.02-2.06-.1-2.98h1.74l.1,1.78h.06a3.813,3.813,0,0,1,3.46-2.02,3.252,3.252,0,0,1,3.12,2.2h.04a4.647,4.647,0,0,1,1.22-1.44,3.754,3.754,0,0,1,2.44-.78c1.46,0,3.62.96,3.62,4.779v6.479H82.45V165.5c0-2.12-.78-3.38-2.38-3.38a2.578,2.578,0,0,0-2.36,1.82,3.083,3.083,0,0,0-.16,1v6.8h-1.96V165.16c0-1.74-.78-3.02-2.3-3.02a2.748,2.748,0,0,0-2.48,2,2.655,2.655,0,0,0-.16.98v6.639h-1.96V163.7Z" fill="#909999"/>
        <path id="Path_99" data-name="Path 99" d="M89.889,157.641a1.24,1.24,0,0,1-2.48,0,1.209,1.209,0,0,1,1.24-1.24A1.165,1.165,0,0,1,89.889,157.641Zm-2.24,14.078v-11h2v11Z" fill="#909999"/>
        <path id="Path_100" data-name="Path 100" d="M92.969,163.7c0-1.14-.02-2.06-.1-2.98h1.78l.12,1.82h.04a4.047,4.047,0,0,1,3.64-2.06c1.52,0,3.88.9,3.88,4.679v6.559h-2V165.38c0-1.78-.66-3.24-2.54-3.24a2.848,2.848,0,0,0-2.68,2.04,2.733,2.733,0,0,0-.14.94v6.619h-2Z" fill="#909999"/>
        <path id="Path_101" data-name="Path 101" d="M115.046,160.72c-.04.8-.1,1.68-.1,3.02v6.379c0,2.52-.5,4.06-1.56,5.019a5.829,5.829,0,0,1-4,1.32,7.187,7.187,0,0,1-3.66-.9l.5-1.52a6.114,6.114,0,0,0,3.22.86c2.04,0,3.54-1.06,3.54-3.84v-1.22h-.04a3.945,3.945,0,0,1-3.5,1.84c-2.72,0-4.679-2.32-4.679-5.359,0-3.72,2.44-5.839,4.959-5.839a3.7,3.7,0,0,1,3.44,1.9h.04l.1-1.66Zm-2.06,4.339a2.518,2.518,0,0,0-.12-.9,2.882,2.882,0,0,0-2.8-2.12c-1.9,0-3.28,1.62-3.28,4.16,0,2.16,1.1,3.96,3.24,3.96a2.958,2.958,0,0,0,2.78-2.04,3.25,3.25,0,0,0,.16-1.06v-2Z" fill="#909999"/>
        <path id="Path_102" data-name="Path 102" d="M122.825,169.679a5.349,5.349,0,0,0,2.64.8c1.46,0,2.14-.72,2.14-1.64,0-.96-.56-1.48-2.04-2.02-1.98-.7-2.9-1.8-2.9-3.12,0-1.78,1.44-3.22,3.8-3.22a5.45,5.45,0,0,1,2.7.68l-.5,1.46a4.2,4.2,0,0,0-2.24-.64c-1.18,0-1.84.68-1.84,1.5,0,.9.66,1.32,2.1,1.86,1.9.72,2.88,1.68,2.88,3.32,0,1.94-1.5,3.3-4.119,3.3a6.366,6.366,0,0,1-3.08-.74Z" fill="#909999"/>
        <path id="Path_103" data-name="Path 103" d="M142.043,166.12c0,4.06-2.82,5.839-5.479,5.839-2.98,0-5.279-2.18-5.279-5.659,0-3.68,2.4-5.839,5.459-5.839C139.9,160.48,142.043,162.76,142.043,166.12Zm-8.739.12c0,2.4,1.38,4.219,3.34,4.219,1.9,0,3.34-1.8,3.34-4.279,0-1.86-.94-4.219-3.3-4.219C134.344,161.98,133.3,164.16,133.3,166.24Z" fill="#909999"/>
        <path id="Path_104" data-name="Path 104" d="M154.5,166.12c0,4.06-2.82,5.839-5.479,5.839-2.98,0-5.279-2.18-5.279-5.659,0-3.68,2.4-5.839,5.459-5.839C152.361,160.48,154.5,162.76,154.5,166.12Zm-8.719.12c0,2.4,1.38,4.219,3.34,4.219,1.9,0,3.34-1.8,3.34-4.279,0-1.86-.94-4.219-3.3-4.219C146.8,161.98,145.782,164.16,145.782,166.24Z" fill="#909999"/>
        <path id="Path_105" data-name="Path 105" d="M157.021,163.7c0-1.14-.02-2.06-.1-2.98h1.78l.12,1.82h.04a4.047,4.047,0,0,1,3.64-2.06c1.52,0,3.88.9,3.88,4.679v6.559h-2V165.38c0-1.78-.66-3.24-2.54-3.24a2.848,2.848,0,0,0-2.68,2.04,2.734,2.734,0,0,0-.14.94v6.619h-2Z" fill="#909999"/>
      </g>
      <g id="Group_157" data-name="Group 157" transform="translate(6.419 3)">
        <rect id="Rectangle_146" data-name="Rectangle 146" width="113.306" height="95.928" transform="translate(49.574 27.117)" fill="#969696"/>
        <rect id="Rectangle_147" data-name="Rectangle 147" width="99.448" height="82.99" transform="translate(56.513 33.596)" fill="#fff"/>
        <g id="Group_156" data-name="Group 156">
          <path id="Path_106" data-name="Path 106" d="M82.27,90.849,56.513,117.706h51.514Z" fill="#969696"/>
          <path id="Path_107" data-name="Path 107" d="M124.3,73.111,92.649,117.706h63.312Z" fill="#969696"/>
        </g>
        <circle id="Ellipse_8" data-name="Ellipse 8" cx="11.779" cy="11.779" r="11.779" transform="translate(61.972 37.975)" fill="#969696"/>
      </g>
    </g>
    <path id="Path_108" data-name="Path 108" d="M104.347,40.6v14.3a.222.222,0,0,1-.22.22H97.968a.222.222,0,0,1-.22-.22h0V35.936a.222.222,0,0,0-.22-.22.217.217,0,0,0-.18.08l-7.6,8.8a.216.216,0,0,0-.06.14V68.852a.222.222,0,0,0,.22.22h7.579a.222.222,0,0,0,.22-.22v-6.8a.222.222,0,0,1,.22-.22h6.159a.222.222,0,0,1,.22.22h0v6.819a.222.222,0,0,0,.22.22h7.579a.222.222,0,0,0,.22-.22h0V48.114a.227.227,0,0,0-.06-.16l-7.579-7.519a.243.243,0,0,0-.32,0C104.367,40.475,104.347,40.535,104.347,40.6Z" transform="translate(8 5)" fill="#d8213c"/>
    <ellipse id="Ellipse_9" data-name="Ellipse 9" cx="2.74" cy="3.62" rx="2.74" ry="3.62" transform="translate(124.946 50.454)"/>
    <path id="Path_109" data-name="Path 109" d="M114.646,57.313a.225.225,0,0,0,.04.32.21.21,0,0,0,.26,0c1.04-.66,2.54-1.4,3.18-.62.98,1.24-2.1,12.039-2.1,12.059h7.1c0-.02.22-14.978-2.86-15.518C118.066,53.173,115.766,55.773,114.646,57.313Z" transform="translate(8 5)"/>
    <path id="Path_110" data-name="Path 110" d="M136.543,65.232a.222.222,0,0,1,.22.22c.02,1.34-.02,3.62-4.819,3.62s-4.8-2.52-4.8-3.84V57.553a.222.222,0,0,0-.22-.22h-1.36a.222.222,0,0,1-.22-.22v-1.06a.206.206,0,0,1,.2-.22,6.673,6.673,0,0,0,5.439-5.059.234.234,0,0,1,.22-.18h1.08a.222.222,0,0,1,.22.22v4.8a.222.222,0,0,0,.22.22h2.9a.222.222,0,0,1,.22.22h0v1.04a.222.222,0,0,1-.22.22h-2.9a.222.222,0,0,0-.22.22v7.639c0,1.3,0,2.58,1.78,2.58,1.68,0,1.78-1.12,1.78-2.34a.222.222,0,0,1,.22-.22Z" transform="translate(8 5)"/>
    <path id="Path_111" data-name="Path 111" d="M149.682,67.012a3.971,3.971,0,0,0,.5-.9,3.24,3.24,0,0,0-.02-2.52h0l-.04-.08a3.92,3.92,0,0,0-.72-1.08l-.04-.04-.06-.06-.08-.08-.04-.04a.87.87,0,0,0-.14-.12c-.92-.78-5.319-2.58-5.739-4.1-.12-.44-.1-1.46,1.38-1.46,1.98,0,3.9,2.42,4.259,4.279a.234.234,0,0,0,.22.18h.32a.222.222,0,0,0,.22-.22v-4.7a.222.222,0,0,0-.22-.22h-.3a.206.206,0,0,0-.22.2,1.358,1.358,0,0,1-.36.82.513.513,0,0,1-.66.02,5.534,5.534,0,0,0-3.24-1.04c-4.279,0-5.679,2.4-5.679,4.239v.2a4.859,4.859,0,0,0,.16.94,2.691,2.691,0,0,0,.62,1.18,2.3,2.3,0,0,0,.34.28,1.214,1.214,0,0,0,.2.14h0c1.52,1.04,5.1,2.82,5.479,4.139.14.44.1,1.46-1.46,1.46-2.18,0-4-1.98-4.459-4.619h0a1.971,1.971,0,0,1-.04-.34.233.233,0,0,0-.22-.2h-.38a.222.222,0,0,0-.22.22v5.4a.222.222,0,0,0,.22.22h.34a.206.206,0,0,0,.22-.2,1.232,1.232,0,0,1,.5-.92.517.517,0,0,1,.56.04,6.28,6.28,0,0,0,3.5,1.08c2.8-.02,4.459-.96,5.3-2.1Z" transform="translate(8 5)" fill="#d8213c"/>
  </g>
</svg>
